<svg width="200" height="80" viewBox="0 0 200 80" fill="none" xmlns="http://www.w3.org/2000/svg">
<path d="M76.6298 38.7462C76.6498 38.7462 76.6738 38.7382 76.6938 38.7302C77.134 38.438 77.6222 38.2019 78.0024 37.8498C79.487 36.4692 80.1233 34.6725 80.1473 32.7156C80.2073 27.5015 80.1713 22.2873 80.1753 17.0731C80.1753 16.5089 80.0512 15.9086 80.5795 15.4764C80.5875 15.4684 80.5795 15.4524 80.5835 15.4364C80.6515 15.4364 80.7195 15.4324 80.7835 15.4284C81.5799 15.4164 81.872 15.7005 81.872 16.4929C81.872 21.543 81.884 26.5971 81.86 31.6472C81.856 32.5676 81.7519 33.492 81.6199 34.4084C81.4278 35.7249 80.9756 36.9534 80.1593 38.0259C79.8592 38.418 79.567 38.8142 79.2709 39.2064L79.1108 39.3704C78.9948 39.4264 78.8747 39.4705 78.7627 39.5345C78.1064 39.9107 77.4542 40.2948 76.7979 40.675C76.6218 40.779 76.4417 40.8791 76.2617 40.9831C76.1416 40.9951 76.0176 40.9911 75.9015 41.0271C74.0887 41.5833 72.236 41.6714 70.3592 41.4913C68.4904 41.3152 66.7697 40.787 65.241 39.6545C64.3687 39.0063 63.6644 38.2099 63.1642 37.2775C62.2478 35.5768 61.9517 33.7081 61.8916 31.7953C61.8596 30.7708 61.8836 29.7464 61.8836 28.722C61.8836 24.6083 61.8836 20.4985 61.8836 16.3848C61.8836 15.7566 62.2158 15.4244 62.848 15.4244C63.4283 15.4244 64.0085 15.4244 64.5888 15.4244C65.189 15.4244 65.5252 15.7646 65.5252 16.3568C65.5492 21.7991 65.5692 27.2454 65.6052 32.6876C65.6132 34.0442 66.0174 35.3047 66.6736 36.4852C66.7417 36.6053 66.8697 36.6853 66.9698 36.7853C67.1218 37.0294 67.2419 37.3016 67.438 37.5096C68.8105 38.9783 70.5873 39.5665 72.5241 39.6665C73.3684 39.7106 74.2368 39.5825 75.0692 39.4104C75.6094 39.2984 76.1016 38.9703 76.6178 38.7382L76.6298 38.7462Z" fill="#CAB179"/>
<path d="M42.6434 39.5407H43.5775C47.5964 39.5407 51.6112 39.5487 55.63 39.5288C56.1349 39.5288 56.4767 39.7355 56.759 40.0893C57.077 40.4828 56.6357 40.8645 56.6795 41.2659C56.6874 41.3256 56.3098 41.4885 56.111 41.4925C55.471 41.5005 54.831 41.4329 54.1911 41.4329C49.8264 41.4249 45.4578 41.4289 41.0931 41.4329C40.6558 41.4329 40.2146 41.4925 39.7773 41.5005C39.3043 41.5124 38.7557 40.9599 38.7518 40.4789C38.7478 39.9422 38.7518 39.4056 38.7518 38.8729C38.7518 31.4276 38.7518 23.9822 38.7518 16.5329C38.7518 15.9088 39.1612 15.5033 39.7893 15.4993C40.4332 15.4993 41.0732 15.4993 41.7172 15.4993C42.1107 15.4993 42.5162 15.8333 42.5917 16.2228C42.6235 16.3937 42.6394 16.5686 42.6394 16.7396C42.6394 24.173 42.6434 31.6064 42.6434 39.0399C42.6434 39.187 42.6434 39.334 42.6434 39.5368V39.5407Z" fill="#CBB179"/>
<path d="M108.75 67.2055C109.066 66.8682 109.3 66.6101 109.545 66.3603C109.783 66.1188 109.987 66.1563 110.178 66.4394C110.407 66.7725 110.619 67.1264 110.902 67.4095C111.81 68.3254 113.271 68.5877 114.4 68.0798C115.565 67.5552 115.803 66.3895 114.837 65.5651C114.229 65.0447 113.496 64.6658 112.805 64.2453C112.052 63.7873 111.248 63.4043 110.532 62.9005C109.612 62.2552 109.083 61.3518 109.329 60.1902C109.587 58.9828 110.449 58.3416 111.606 58.1126C113.259 57.7837 114.812 58.0294 116.177 59.0869C116.365 59.2326 116.527 59.4033 116.719 59.5781C116.465 59.8571 116.236 60.1152 115.994 60.365C115.724 60.6481 115.516 60.6148 115.312 60.2651C114.504 58.8787 113.142 58.325 111.756 58.7996C110.532 59.2201 110.099 60.5482 111.194 61.3642C112.039 61.9971 113.005 62.4675 113.904 63.0254C114.583 63.4418 115.307 63.8123 115.907 64.3244C117.451 65.6442 117.098 67.8425 115.203 68.6044C113.434 69.3163 111.681 69.0915 110.032 68.1547C109.587 67.9008 109.204 67.551 108.75 67.2138V67.2055Z" fill="#323232"/>
<path d="M74.8424 59.918C74.6164 60.1632 74.4096 60.3892 74.1951 60.6151C73.9423 60.8794 73.7546 60.8564 73.5708 60.5347C73.2375 59.9449 72.8009 59.4699 72.1536 59.2248C71.4182 58.9452 70.6867 58.9605 69.9858 59.3244C69.1048 59.7802 68.9325 60.753 69.6564 61.431C70.0738 61.8216 70.5718 62.1357 71.0697 62.4306C71.9008 62.9209 72.7741 63.3422 73.5976 63.8439C74.2104 64.2155 74.7236 64.7172 74.919 65.4488C75.2139 66.548 74.6892 67.6664 73.5823 68.149C72.1038 68.7963 70.6062 68.6891 69.1661 68.0188C68.5954 67.7507 68.0898 67.3408 67.5 66.9578C67.8217 66.6131 68.0554 66.345 68.3082 66.0999C68.5035 65.9122 68.6988 65.9658 68.852 66.2454C69.3193 67.0881 69.9819 67.6894 70.9395 67.8809C71.6902 68.0303 72.4294 67.9805 73.0843 67.5132C73.7546 67.0344 73.881 66.2071 73.3256 65.602C73.0269 65.2764 72.6592 64.9891 72.2762 64.7632C71.445 64.2729 70.5794 63.8439 69.7445 63.3613C69.0206 62.94 68.3809 62.4191 68.1128 61.5765C67.7834 60.5539 68.2392 59.4623 69.2121 58.8992C70.8322 57.957 73.6206 58.4511 74.8424 59.9219V59.918Z" fill="#323232"/>
<path d="M91.875 20.9798L91.8868 20.6717C91.954 20.5809 92.0646 20.4979 92.0804 20.3992C92.112 20.1899 92.0804 19.9727 92.0962 19.7634C92.1949 18.4758 92.3173 17.1883 92.4042 15.8968C92.4793 14.787 92.5109 13.6773 92.5741 12.5714C92.5899 12.2989 92.6491 12.0303 92.6925 11.7223C93.6602 11.7223 94.6159 11.7539 95.5677 11.7065C96.0338 11.6828 96.2549 11.8487 96.3497 12.2673C96.3655 12.3423 96.3734 12.4253 96.4011 12.4964C96.5748 12.9229 96.6222 13.3929 96.875 13.7918C96.5077 13.7641 96.721 14.1235 96.5551 14.2578C96.1917 14.2341 95.9508 14.3645 95.9903 14.7989C95.9943 14.8542 95.939 14.9174 95.9074 14.9727C95.6902 15.3597 95.3466 15.6559 95.2715 16.1536C95.2281 16.4379 94.9674 16.7697 94.5448 16.7144L94.4856 16.9908C94.4105 16.7973 94.3395 16.5998 94.2526 16.4142C94.1933 16.2878 94.1104 16.1693 94.0235 16.0193C93.9643 16.1101 93.9406 16.1299 93.9366 16.1536C93.826 17.054 93.7194 17.9585 93.6088 18.8629C93.5772 19.1117 93.6049 19.3842 93.5022 19.5975C93.3205 19.9806 92.8071 20.1227 92.732 20.6046C92.732 20.6204 92.6886 20.6441 92.6688 20.6441C92.266 20.652 92.1396 20.9126 92.1357 21.2957L91.8789 20.9798H91.875Z" fill="#D6BB7E"/>
<path d="M79.5452 68.2367C80.2298 66.1407 80.8763 64.1673 81.5229 62.1982H82.5413C82.6215 63.2081 82.7061 64.2096 82.7863 65.2111C82.8878 66.4873 82.9807 67.7634 83.0948 69.0353C83.1667 69.8171 83.1709 69.8298 82.3934 69.8213C82.3088 69.8213 82.2243 69.8213 82.0764 69.8213L81.5947 63.842L81.5313 63.8251C81.3538 64.3533 81.1764 64.8857 81.0031 65.4139C80.5594 66.7746 80.1115 68.1353 79.6762 69.5002C79.6086 69.7157 79.5326 69.8298 79.2748 69.8298C79.0255 69.8298 78.9367 69.7241 78.8564 69.5129C78.1803 67.7212 77.4915 65.9337 76.807 64.142C76.7521 64.0025 76.6929 63.8631 76.5534 63.7279C76.4055 65.7393 76.2619 67.7507 76.114 69.7791C75.7886 69.8509 75.5984 69.8002 75.628 69.4199C75.8055 67.0239 75.9745 64.6322 76.152 62.1813C76.4605 62.1813 76.7605 62.1475 77.0436 62.1982C77.1577 62.2193 77.2803 62.401 77.331 62.532C78.0113 64.2603 78.6747 65.9971 79.3466 67.7296C79.3973 67.8606 79.4523 67.9874 79.5495 68.2325L79.5452 68.2367Z" fill="#333333"/>
<path d="M90.625 41.7348C90.6312 41.3836 90.625 41.0294 90.6435 40.6783C90.6804 39.9298 90.7205 39.1813 90.7728 38.4359C90.7882 38.2264 90.8499 38.0201 90.893 37.8106C90.9299 37.6997 90.9854 37.5919 91.0008 37.4779C91.0531 37.0806 91.0932 36.6802 91.1394 36.2859C91.4638 36.2797 91.6261 36.1155 91.6261 35.7931C91.6261 35.7099 91.6261 35.6267 91.6261 35.5436C91.6322 35.3434 91.7585 35.2664 91.9125 35.3557C92.0357 35.4265 92.1127 35.5805 92.2175 35.7037L92.2945 35.2633L92.3838 35.2694C92.547 35.5744 92.4885 35.9163 92.4947 36.2459C92.4146 37.4441 92.3314 38.6423 92.2544 39.8435C92.2452 39.9667 92.2544 40.09 92.2452 40.2162C92.2051 40.8692 92.1589 41.5192 92.1158 42.1722C92.0758 42.2707 92.0111 42.3662 92.0018 42.4679C91.9834 42.6619 92.0018 42.8621 91.9926 43.0593C91.9526 43.7523 91.9495 43.7523 91.2595 43.7307C90.9423 43.7215 90.6281 43.3981 90.6281 43.0716C90.6281 42.625 90.6281 42.1814 90.6281 41.7348H90.625Z" fill="#EDD085"/>
<path d="M149.81 65.7894C149.81 66.7878 149.81 67.7697 149.81 68.7516C149.81 69.2077 149.81 69.1954 149.255 69.2159C148.919 69.2282 148.746 69.1543 148.75 68.764C148.762 66.5905 148.758 64.4171 148.75 62.2478C148.75 61.9191 148.853 61.7712 149.206 61.7836C150.229 61.8205 151.252 61.8041 152.275 61.8698C152.649 61.8945 153.031 62.0383 153.372 62.2026C154.025 62.519 154.366 63.0613 154.354 63.8009C154.346 64.524 153.993 65.0293 153.36 65.3498C153.142 65.4607 152.908 65.5388 152.633 65.6538C153.426 66.2906 153.73 67.2356 154.247 68.0409C154.416 68.2997 154.658 68.5133 154.855 68.7557C154.921 68.8338 155.024 68.9694 154.995 69.0146C154.942 69.105 154.814 69.1995 154.716 69.2077C154.206 69.2405 153.742 69.1173 153.438 68.6736C153.183 68.2997 152.961 67.8971 152.731 67.5067C152.67 67.3999 152.62 67.2849 152.559 67.174C151.827 65.814 151.417 65.6004 149.81 65.7894ZM149.827 65.321C150.636 65.2758 151.429 65.2881 152.197 65.1649C152.871 65.0581 153.204 64.4952 153.195 63.7392C153.191 63.0284 152.834 62.4615 152.181 62.367C151.412 62.256 150.624 62.2684 149.827 62.2232V65.3169V65.321Z" fill="#333333"/>
<path d="M95.8915 65.5984C96.3117 66.2863 96.7113 66.9743 97.1479 67.6375C97.4074 68.0371 97.7288 68.3996 98.013 68.7868C98.0707 68.8651 98.1448 68.9928 98.1201 69.0587C98.0872 69.137 97.9553 69.2111 97.8606 69.2152C97.4033 69.2358 96.9584 69.1658 96.666 68.7745C96.4023 68.4202 96.1799 68.0371 95.9492 67.6622C95.6979 67.2503 95.4796 66.8136 95.2118 66.4099C94.907 65.9609 94.4868 65.7014 93.91 65.7467C93.6093 65.7714 93.3045 65.7508 92.942 65.7508C92.942 66.1669 92.942 66.5623 92.942 66.9578C92.942 67.5839 92.9255 68.206 92.9461 68.8321C92.9626 69.2441 92.7113 69.2276 92.4312 69.2235C92.1469 69.2235 91.8709 69.2564 91.875 68.8198C91.8874 66.6118 91.8833 64.4079 91.875 62.1998C91.875 61.9362 91.941 61.7673 92.2417 61.7755C93.2963 61.8003 94.3508 61.792 95.4013 61.8538C95.7762 61.8744 96.1593 62.0268 96.5012 62.1875C97.1397 62.4923 97.4816 63.0196 97.4898 63.7446C97.4981 64.4861 97.1438 65.0093 96.4971 65.343C96.2787 65.4583 96.0398 65.5366 95.8956 65.5943L95.8915 65.5984ZM92.9543 65.2565C93.6546 65.2565 94.3055 65.2894 94.9523 65.2482C95.8009 65.1947 96.2952 64.6674 96.3446 63.8394C96.3899 63.0649 95.945 62.4058 95.183 62.3193C94.4538 62.2369 93.7041 62.3028 92.9543 62.3028V65.2565Z" fill="#363636"/>
<path d="M98.8227 22.782C98.9317 22.9818 99.0625 23.1744 99.1497 23.3852C99.4368 24.0865 99.7057 24.7951 99.9782 25.5036C100.004 25.569 99.9927 25.649 100 25.7217V26.1577C99.7093 26.2231 99.4767 26.3212 99.3023 26.6265C99.1424 26.9026 98.7718 27.0516 98.7427 27.4368C98.7427 27.4586 98.6846 27.4804 98.6519 27.4913C98.2885 27.6148 98.2704 27.931 98.2449 28.2362C98.2267 28.4397 98.2922 28.6613 97.9797 28.7013C97.936 28.7086 97.907 28.8612 97.8779 28.9484C97.8452 29.0465 97.8198 29.1483 97.7907 29.25C97.7435 29.2028 97.6781 29.1628 97.6562 29.1083C97.4891 28.6432 97.351 28.1708 97.1621 27.7129C96.8314 26.9099 96.4644 26.125 96.25 25.282L96.4499 25.2347C96.2536 24.8714 96.2718 24.6933 96.5661 24.5443C96.8859 24.3845 96.9622 24.1047 97.0858 23.8031C97.242 23.4179 97.5327 23.0908 97.7653 22.7347C97.7725 22.7275 97.7871 22.7202 97.798 22.7202C98.2267 22.6439 98.1904 22.306 98.2195 21.9935C98.2267 21.9099 98.3249 21.8336 98.383 21.75C98.3648 22.1642 98.6156 22.4622 98.8227 22.7783V22.782Z" fill="#EDD085"/>
<path d="M119.839 65.6518C121.303 66.9272 122.718 68.15 124.125 69.386C124.239 69.4868 124.296 69.6533 124.375 69.7892C124.226 69.8418 124.081 69.9163 123.928 69.947C123.371 70.0478 122.964 69.8111 122.556 69.4386C121.513 68.4875 120.43 67.5759 119.282 66.5854C119.269 66.8045 119.251 66.9404 119.251 67.0762C119.251 67.8871 119.234 68.6979 119.251 69.5087C119.265 69.9558 118.997 69.9558 118.677 69.9601C118.344 69.9601 118.121 69.9251 118.125 69.4912C118.143 67.1595 118.138 64.8278 118.125 62.5005C118.125 62.1148 118.287 62.014 118.633 62.0316C118.949 62.0447 119.26 61.9877 119.251 62.483C119.23 63.4385 119.247 64.3939 119.247 65.4327C119.422 65.3099 119.541 65.2354 119.65 65.1478C120.851 64.1923 122.048 63.2369 123.244 62.2814C123.323 62.2157 123.402 62.1105 123.49 62.1017C123.626 62.0886 123.766 62.1368 123.906 62.1587C123.867 62.277 123.858 62.4436 123.775 62.5093C122.863 63.2544 121.934 63.9863 121.013 64.7183C120.636 65.0207 120.26 65.3231 119.839 65.6562V65.6518Z" fill="#343434"/>
<path d="M93.0202 30.1548C93.0133 29.7905 93.078 29.4161 92.8976 29.0756L92.7989 29.0688L92.7138 29.5556C92.598 29.4195 92.5129 29.2493 92.3768 29.171C92.2066 29.0722 92.067 29.1573 92.0602 29.3786C92.0602 29.4705 92.0602 29.5624 92.0602 29.6543C92.0602 30.0106 91.8809 30.1922 91.5223 30.199C91.4747 30.6347 91.4304 31.0773 91.3691 31.5164C91.3521 31.6424 91.2908 31.7615 91.25 31.8841C91.3147 30.9105 91.3794 29.9403 91.4406 28.9667C91.4508 28.8305 91.444 28.6944 91.4474 28.5582L91.5087 28.5242V28.9905H91.6449V27.4212C91.6687 27.36 91.7096 27.2987 91.7096 27.2374C91.7164 26.6825 91.7062 26.1277 91.7232 25.5728C91.73 25.3413 91.7981 25.1166 91.8253 24.8851C91.8321 24.8171 91.7981 24.7422 91.781 24.6707L91.8049 24.3915L92.0261 24.6639C92.0295 24.3303 92.1385 24.109 92.4857 24.1022C92.5061 24.1022 92.5402 24.0818 92.5402 24.0681C92.6048 23.6562 93.0474 23.5303 93.204 23.2001C93.2925 23.0163 93.2687 22.778 93.2959 22.5669C93.3912 21.7874 93.4831 21.0112 93.5784 20.2317C93.5784 20.2113 93.6023 20.1942 93.6533 20.1159C93.7282 20.2453 93.7997 20.3474 93.8508 20.4564C93.9257 20.6197 93.9869 20.7866 94.0516 20.9534C94.0788 21.0282 94.1027 21.0997 94.1299 21.1746C94.2116 21.4333 94.2933 21.6887 94.375 21.9474C94.2933 21.8861 94.1742 21.8384 94.1367 21.7567C94.0005 21.4674 93.895 21.1644 93.7691 20.8512C93.7554 20.8785 93.7146 20.9159 93.7112 20.9568C93.6125 22.3763 93.524 23.7992 93.4218 25.2221C93.3401 26.3625 93.2448 27.5063 93.1563 28.6467C93.1223 29.0893 93.1053 29.5352 93.0746 29.9777C93.0712 30.039 93.0338 30.1003 93.0133 30.165L93.0202 30.1548ZM91.8083 25.3821C91.8287 25.3515 91.8491 25.3277 91.8457 25.3175C91.8389 25.3004 91.8151 25.2936 91.7981 25.2834L91.8083 25.3821Z" fill="#E6CD8C"/>
<path d="M133.22 67.9746C133.22 66.1546 133.22 64.4537 133.22 62.7528C133.22 62.638 133.19 62.5104 133.233 62.4126C133.28 62.3148 133.399 62.183 133.484 62.1873C133.569 62.1873 133.671 62.3233 133.73 62.4254C133.769 62.4892 133.739 62.5912 133.739 62.6805C133.739 64.9002 133.743 67.1199 133.73 69.3353C133.73 69.5054 133.603 69.6712 133.535 69.8413C133.378 69.7435 133.182 69.6797 133.071 69.5437C131.613 67.7237 130.167 65.8952 128.717 64.0668C128.641 63.969 128.555 63.8797 128.407 63.7053C128.407 63.9349 128.407 64.071 128.407 64.2071C128.407 65.8952 128.407 67.5834 128.407 69.2758C128.407 69.3778 128.441 69.4926 128.398 69.5734C128.339 69.6797 128.224 69.7563 128.135 69.8456C128.058 69.7605 127.956 69.684 127.909 69.5819C127.871 69.4969 127.901 69.3863 127.901 69.2843C127.901 67.3963 127.892 65.504 127.905 63.616C127.905 63.2461 127.871 62.9144 127.594 62.638C127.522 62.5657 127.475 62.3914 127.514 62.3148C127.556 62.234 127.714 62.1915 127.828 62.1745C128.33 62.0937 128.683 62.2553 129.015 62.689C130.265 64.3262 131.566 65.925 132.85 67.5366C132.948 67.6557 133.046 67.7747 133.216 67.9788L133.22 67.9746Z" fill="#333333"/>
<path d="M141.25 63.33C141.077 63.5164 140.921 63.6855 140.765 63.8545C140.526 64.1103 140.366 64.0496 140.201 63.7592C139.521 62.5455 138.307 62.1381 137.072 62.7059C136.192 63.109 135.802 63.8849 135.637 64.7778C135.437 65.8527 135.524 66.9017 136.105 67.8639C136.785 68.9866 138.303 69.5674 139.534 69.1253C139.885 68.9996 140.171 68.6875 140.496 68.4751C140.613 68.3971 140.747 68.3581 140.877 68.3017C140.869 68.4664 140.921 68.6788 140.838 68.7915C140.231 69.6107 139.369 69.9618 138.376 70.0095C136.122 70.1136 134.401 68.4534 134.375 66.1995C134.362 65.0162 134.614 63.9369 135.459 63.07C136.963 61.5269 139.785 61.6439 141.25 63.3387V63.33Z" fill="#343434"/>
<path d="M87.1449 67.6892C86.612 67.6892 86.0747 67.7024 85.5418 67.6848C85.2951 67.676 85.1718 67.7596 85.0793 67.9843C84.8459 68.5436 84.5816 69.0897 84.3438 69.6446C84.2557 69.8472 84.1677 70.0542 83.9034 69.9309C83.6612 69.8164 83.7581 69.6226 83.8417 69.4421C84.9208 67.0726 85.9954 64.6987 87.0832 62.3336C87.1493 62.1927 87.3343 62.0253 87.462 62.0253C87.5941 62.0253 87.7835 62.1927 87.8496 62.3292C88.955 64.6855 90.0473 67.0506 91.1439 69.4156C91.3465 69.8561 91.2761 69.9177 90.7828 69.9662C90.2939 70.0146 90.0253 69.8605 89.8623 69.3892C89.6861 68.8915 89.4395 68.4115 89.1885 67.9446C89.1224 67.8257 88.9374 67.7024 88.8009 67.698C88.2548 67.6716 87.7042 67.6848 87.1537 67.6848L87.1449 67.6892ZM87.1141 63.514C86.5415 64.7736 86.0042 65.9583 85.4537 67.1739H88.8361C88.2592 65.9495 87.7086 64.7736 87.1141 63.514Z" fill="#333333"/>
<path d="M142.6 67.0538C142.313 67.6849 142.042 68.2755 141.779 68.8701C141.702 69.04 141.629 69.222 141.399 69.1169C141.18 69.0157 141.245 68.8499 141.326 68.6719C142.321 66.4835 143.308 64.291 144.311 62.1066C144.364 61.9893 144.53 61.8558 144.643 61.8518C144.756 61.8518 144.926 61.9812 144.983 62.0945C146.018 64.295 147.042 66.5037 148.061 68.7083C148.199 69.0036 148.118 69.1209 147.786 69.1371C147.131 69.1694 147.127 69.1694 146.847 68.5829C146.645 68.1541 146.459 67.7132 146.237 67.2925C146.176 67.1833 146.006 67.0619 145.889 67.0619C144.801 67.0457 143.713 67.0498 142.6 67.0498V67.0538ZM144.335 63.215C143.806 64.3881 143.312 65.4762 142.819 66.5684H145.913C145.383 65.4398 144.873 64.3638 144.335 63.215Z" fill="#333333"/>
<path d="M157.296 66.2416V69.137C157.416 69.145 157.532 69.153 157.648 69.153C158.722 69.153 159.8 69.149 160.875 69.1649C161.002 69.1649 161.126 69.2887 161.25 69.3566C161.122 69.4405 160.994 69.5923 160.863 69.5962C159.449 69.6122 158.039 69.6042 156.625 69.6122C156.346 69.6122 156.25 69.5084 156.25 69.2288C156.258 67.0763 156.258 64.9237 156.25 62.7752C156.25 62.4637 156.386 62.3878 156.665 62.3878C158.023 62.3958 159.381 62.3878 160.739 62.3998C160.875 62.3998 161.01 62.5395 161.146 62.6154C161.01 62.6913 160.879 62.8351 160.743 62.8391C159.748 62.859 158.754 62.851 157.76 62.851H157.3V65.7784C157.48 65.7784 157.664 65.7784 157.843 65.7784C158.718 65.7784 159.593 65.7784 160.467 65.7784C160.647 65.7784 160.863 65.7783 160.823 66.026C160.807 66.1138 160.595 66.2296 160.467 66.2336C159.421 66.2496 158.375 66.2416 157.288 66.2416H157.296Z" fill="#363636"/>
<path d="M102.176 35.216C102.491 36.0429 102.81 36.8734 103.125 37.7002C103.017 37.6817 102.903 37.6335 102.799 37.6483C102.662 37.6669 102.469 37.6965 102.406 37.7892C102.243 38.0265 102.146 38.3046 102.013 38.5641C101.875 38.8274 101.786 39.2093 101.568 39.3131C101.134 39.5207 100.967 39.7803 101.041 40.2326C101.049 40.2808 101.056 40.3364 101.041 40.3809C101.008 40.4625 100.956 40.5329 100.911 40.6108C100.856 40.5329 100.763 40.4625 100.752 40.3809C100.733 40.1955 100.741 40.0176 100.481 40.0287C100.441 39.9879 100.381 39.9508 100.366 39.9026C100.162 39.3502 99.9623 38.794 99.7621 38.2378L99.6916 37.9968C99.6842 37.9783 99.6842 37.9598 99.6842 37.9375L99.5655 37.8337L99.5359 37.6335C99.4914 37.4778 99.6768 37.2479 99.3839 37.1737C99.3765 37.1552 99.3727 37.1329 99.3765 37.1107C99.5136 37.0922 99.662 37.0291 99.788 37.0588C100.077 37.1366 100.281 37.0217 100.374 36.7436C100.478 36.4359 100.559 36.0614 100.782 35.8723C101.149 35.5608 101.334 35.1493 101.586 34.7748C101.668 34.6524 101.727 34.519 101.798 34.3892L101.875 34.6042L101.939 34.6932L102.165 35.0677L102.176 35.2086V35.216ZM99.7176 37.5816H99.8214L99.8028 37.3628H99.7287L99.7176 37.5816Z" fill="#D7AE4E"/>
<path d="M101.755 62.3699C101.755 64.0636 101.755 65.7215 101.755 67.3794C101.755 67.8207 101.739 68.266 101.759 68.7034C101.783 69.1685 101.469 69.0771 101.194 69.097C100.904 69.1169 100.753 69.0572 100.753 68.7113C100.769 66.7155 100.761 64.7196 100.761 62.7277V62.3738C100.093 62.3738 99.4529 62.3738 98.8128 62.3738C98.6935 62.3738 98.5623 62.4017 98.455 62.3659C98.3357 62.3261 98.2363 62.2307 98.125 62.1552C98.2403 62.0757 98.3476 61.9763 98.4749 61.9166C98.5544 61.8808 98.6578 61.9127 98.7532 61.9127C100.439 61.9127 102.129 61.9127 103.814 61.9127C103.91 61.9127 104.013 61.8848 104.093 61.9206C104.2 61.9683 104.284 62.0637 104.375 62.1393C104.284 62.2148 104.196 62.354 104.097 62.3579C103.751 62.3858 103.401 62.3699 103.055 62.3699C102.63 62.3699 102.2 62.3699 101.755 62.3699Z" fill="#333333"/>
<path d="M99.371 18.8422C99.1362 18.4901 98.861 18.1541 98.8812 17.6968C98.7193 17.3163 98.5979 16.9075 98.3753 16.5675C98.2741 16.4137 97.9786 16.3449 97.7641 16.3287C97.6548 16.3206 97.5051 16.4947 97.416 16.6161C97.2258 16.8832 97.072 17.1787 96.8858 17.4458C96.6713 17.7494 96.3718 18.0084 96.222 18.3363C96.0156 18.7815 95.9184 19.2753 95.7727 19.7489C95.7282 19.7003 95.6594 19.6639 95.6392 19.6072C95.3963 18.9636 95.1616 18.3201 94.9228 17.6765C94.9228 17.6563 94.9228 17.6361 94.9349 17.6199C95.2142 17.5915 95.5016 17.5794 95.7768 17.5227C95.8658 17.5065 95.9751 17.3932 96.0115 17.3001C96.0925 17.0735 96.1208 16.8266 96.1977 16.5999C96.2301 16.4947 96.3232 16.4097 96.3879 16.3125C96.4851 16.1709 96.6025 16.0333 96.6753 15.8795C96.8413 15.5435 96.732 15.0214 97.3148 14.9809C97.3513 14.9809 97.3836 14.9081 97.416 14.8676C97.5901 14.645 97.4201 13.7586 97.1327 13.6331C96.7927 13.4914 96.9465 13.3093 97.0032 13.115C96.7441 12.7062 96.6956 12.2246 96.5175 11.7874C96.4891 11.7146 96.481 11.6296 96.4649 11.5527C96.3677 11.1237 96.1411 10.9537 95.6635 10.9779C94.688 11.0265 93.7085 10.9941 92.7169 10.9941C92.6724 11.3098 92.6116 11.5851 92.5955 11.8643C92.5307 13.0017 92.4983 14.139 92.4214 15.2723C92.3324 16.5959 92.2109 17.9153 92.1057 19.2348C92.0895 19.4534 92.1219 19.672 92.0895 19.8865C92.0733 19.9877 91.96 20.0727 91.8912 20.1657L91.875 19.5789C91.8993 19.3441 91.9195 19.1134 91.9438 18.8786C92.0774 17.0816 92.2109 15.2845 92.3405 13.4874C92.3607 13.1757 92.3364 12.86 92.3607 12.5484C92.4012 12.0424 92.4538 11.5365 92.5266 11.0306C92.5388 10.9537 92.6845 10.8444 92.7695 10.8444C93.8987 10.8322 95.032 10.8282 96.1613 10.8484C96.2989 10.8484 96.5013 10.9982 96.5539 11.1237C96.9951 12.2124 97.416 13.3133 97.8329 14.4143C98.3348 15.7297 98.8286 17.0451 99.3183 18.3687C99.371 18.5144 99.3588 18.6884 99.375 18.8503L99.371 18.8422Z" fill="#E6CD8C"/>
<path d="M126.24 65.4829C126.24 66.7713 126.221 68.0597 126.25 69.3481C126.259 69.8664 125.993 69.8761 125.606 69.881C125.218 69.8858 124.995 69.8228 125 69.3578C125.015 66.781 125.019 64.2042 125 61.6322C125 61.143 125.252 61.1188 125.62 61.1188C125.978 61.1188 126.255 61.1285 126.245 61.6225C126.221 62.911 126.235 64.1994 126.235 65.4878L126.24 65.4829Z" fill="#363636"/>
<path d="M96.3609 13.1072C96.3007 13.3136 96.1372 13.5072 96.4985 13.6577C96.8082 13.7868 96.9846 14.733 96.7996 14.9696C96.7652 15.0126 96.7308 15.0857 96.6921 15.09C96.0727 15.1374 96.1888 15.6922 96.0125 16.0449C95.9308 16.2084 95.8103 16.3503 95.7071 16.5052C95.6383 16.6084 95.5393 16.6987 95.5049 16.8106C95.4275 17.0557 95.3931 17.3138 95.3071 17.5547C95.2727 17.6536 95.1565 17.774 95.0576 17.7913C94.7651 17.8472 94.4597 17.8601 94.1629 17.8945C94.1586 17.8773 94.1543 17.8644 94.1586 17.8472C94.0554 17.5203 93.9522 17.1977 93.8489 16.8708C93.8188 16.7762 93.7844 16.6858 93.75 16.5912L93.8145 16.2901C94.2748 16.3503 94.5586 15.989 94.606 15.6793C94.6877 15.1374 95.0619 14.8148 95.2985 14.3932C95.3329 14.333 95.3974 14.2642 95.3888 14.204C95.3501 13.7308 95.6125 13.5889 96.0039 13.6147C96.1845 13.4685 95.9566 13.0771 96.3523 13.1072H96.3609Z" fill="#E8CC85"/>
<path d="M158.687 41.0982C158.398 41.0982 158.101 41.0591 157.819 41.106C157.277 41.1997 157.042 40.938 156.831 40.4771C155.882 38.3833 154.894 36.3052 153.933 34.2154C153.816 33.9654 153.683 33.8677 153.402 33.8716C149.519 33.8795 145.636 33.8795 141.757 33.8716C141.503 33.8716 141.425 33.9849 141.335 34.1841C140.343 36.3912 139.347 38.5943 138.343 40.7896C138.284 40.9146 138.116 41.0864 138.011 41.0786C137.698 41.0591 137.351 41.2544 137.081 40.8677C136.827 40.5005 136.816 40.2075 137.003 39.7974C138.796 35.8912 140.562 31.9732 142.335 28.0592C144.132 24.0983 145.929 20.1373 147.718 16.1725C147.808 15.9733 147.902 15.8874 148.124 15.903C148.53 15.9264 149.019 15.7897 149.32 15.9694C149.601 16.1374 149.695 16.6296 149.862 16.985C153.187 24.149 156.511 31.3092 159.835 38.4732C160.085 39.0083 160.331 39.5474 160.577 40.0825C160.765 40.4966 160.37 41.0904 159.909 41.0904C159.503 41.0904 159.093 41.0904 158.687 41.0904V41.0982ZM153.027 32.3209C151.195 28.4146 149.374 24.5397 147.515 20.5787C145.722 24.5358 143.964 28.4107 142.191 32.3209H153.023H153.027Z" fill="#755209"/>
<path d="M114.995 37.7563C115.072 38.5711 115.154 39.3821 115.219 40.1969C115.354 41.8265 115.47 43.4561 115.613 45.0818C115.648 45.495 115.628 45.8619 115.254 46.1129C115.161 46.1746 115.049 46.2403 114.945 46.2442C114.065 46.2557 113.18 46.2519 112.234 46.2519C112.118 44.7613 112.006 43.2939 111.894 41.8265L111.999 41.7377L111.883 41.6604L111.875 41.3515C112.018 41.2472 112.165 41.1507 112.304 41.0426C112.458 40.9229 112.643 40.8186 112.748 40.6641C112.902 40.4363 112.972 40.1505 113.126 39.915C113.362 39.552 113.644 39.2199 113.891 38.8646C114.034 38.66 114.153 38.436 114.261 38.2082C114.428 37.8645 114.686 37.6984 114.995 37.7602V37.7563Z" fill="#755209"/>
<path d="M101.283 43.2015L100.384 41.0079L100.297 40.7704C100.198 40.4299 100.099 40.0893 100 39.7528C100.277 39.7409 100.269 39.931 100.289 40.1289C100.297 40.216 100.4 40.2913 100.459 40.3744C100.507 40.2952 100.562 40.216 100.598 40.1289C100.618 40.0854 100.61 40.022 100.598 39.9705C100.519 39.4875 100.697 39.2103 101.16 38.9886C101.394 38.8777 101.489 38.4699 101.635 38.1888C101.778 37.9155 101.885 37.6146 102.055 37.3612C102.122 37.2583 102.328 37.2305 102.475 37.2107C102.586 37.1949 102.708 37.2464 102.823 37.2662L103.081 37.9789L103.14 38.062C103.239 38.3432 103.342 38.6243 103.441 38.9054L103.552 38.9213C103.801 38.1294 104.051 37.3335 104.3 36.5416L104.352 36.4426L104.526 35.9041C104.716 35.8922 104.945 35.9556 104.969 35.619L104.668 35.5715L104.938 34.6212L105.282 34.5618L105.064 34.3717L105.1 34.1342L105.155 34.0431C105.151 34.0193 105.155 33.9995 105.163 33.9797L105.524 33.952L105.539 33.8768L105.29 33.7263C105.29 33.7026 105.298 33.6788 105.314 33.6551L105.71 33.6353C105.694 33.3383 105.896 33.0493 105.555 32.8552L105.575 32.7008C106.399 32.8394 106.347 32.3207 106.185 31.7149L106.319 31.7307L106.407 32.0237C106.541 31.8772 106.569 31.806 106.601 31.7386C106.735 31.4496 106.803 31.0616 107.028 30.8992C107.357 30.6616 107.484 30.3766 107.567 30.0281C107.59 29.937 107.65 29.8499 107.674 29.7985L108.125 29.9806L108.03 30.2974C108.006 30.2974 107.982 30.2974 107.959 30.2974L107.741 30.1509L107.594 30.4597L107.959 30.2974L107.967 30.3964C107.511 31.8337 107.056 33.271 106.601 34.7083C106.494 35.0488 106.403 35.3973 106.276 35.7299C106.201 35.9358 106.074 36.1219 105.971 36.3159L105.777 35.817C105.646 36.007 105.476 36.1377 105.492 36.2525C105.567 36.9653 104.704 37.1395 104.652 37.769C104.652 37.7888 104.553 37.7928 104.51 37.8205C104.458 37.8522 104.403 37.8878 104.367 37.9353C104.09 38.3353 104.142 38.9411 103.587 39.1668C103.568 39.1747 103.556 39.238 103.56 39.2776C103.579 39.7488 103.108 39.9508 102.97 40.3467C102.867 40.6437 102.613 40.8971 102.534 41.198C102.463 41.4633 102.32 41.5979 102.118 41.7365C101.992 41.8236 101.869 41.9503 101.798 42.0849C101.608 42.4492 101.449 42.8254 101.275 43.1976L101.283 43.2015Z" fill="#C59D43"/>
<path d="M108.172 23.8103L107.722 23.6283C107.694 23.6798 107.634 23.7628 107.615 23.8578C107.528 24.2098 107.405 24.4907 107.077 24.728C106.851 24.8902 106.784 25.2779 106.65 25.5666C106.618 25.6339 106.594 25.7051 106.456 25.8514L106.369 25.5587L106.234 25.5429C106.396 26.1481 106.448 26.6663 105.625 26.5279C105.969 25.5231 106.317 24.5184 106.65 23.5057C106.843 22.9203 107.009 22.3269 107.195 21.7375C107.235 21.6149 107.306 21.5041 107.362 21.3854L107.397 21.7771H107.488L107.714 21.1679L107.362 21.3301L107.528 20.7684L107.987 20.8475C107.82 20.5706 108.129 20.2739 107.749 20.1236L107.998 19.3918C108.378 19.4788 108.319 19.819 108.414 20.1038C108.497 20.0128 108.532 19.9179 108.568 19.8229C108.663 19.5896 108.695 19.2612 108.865 19.1505C109.138 18.9804 109.189 18.751 109.252 18.5017C109.324 18.213 109.454 18.1141 109.664 18.304L109.901 17.9084L109.612 17.7185L110.02 17.493C110.071 17.3704 110.103 17.1331 110.237 17.0065C110.38 16.876 110.518 16.7968 110.494 16.5753C110.487 16.512 110.55 16.429 110.601 16.3736C110.934 15.9938 111.266 15.618 111.373 15.1038C111.384 15.0563 111.416 15.001 111.452 14.9733C111.824 14.6964 111.942 14.2929 112.041 13.838C112.354 13.8103 112.575 13.6639 112.567 13.2921C112.567 13.2367 112.623 13.1378 112.662 13.1339C113.137 13.0904 113.03 12.7383 113.038 12.4495H113.572C113.631 13.1892 113.691 13.8973 113.75 14.6054C113.703 14.5698 113.635 14.5421 113.604 14.4907C113.473 14.281 113.362 14.372 113.295 14.5263C113.157 14.8585 113.042 15.1987 112.892 15.5983L112.729 15.262C112.405 15.6062 112.425 16.1362 111.978 16.3657C111.93 16.3894 111.934 16.5081 111.915 16.5832C111.887 16.6821 111.867 16.785 111.828 16.8799C111.701 17.1924 111.594 17.5207 111.424 17.8055C111.234 18.1141 110.985 18.391 110.748 18.6679C110.72 18.7035 110.621 18.6758 110.554 18.6798C110.502 18.1734 110.451 17.6671 110.4 17.1608L110.324 17.1529C109.921 18.4029 109.525 19.6568 109.118 20.9068C108.805 21.872 108.481 22.8332 108.161 23.7984L108.172 23.8103ZM108.129 19.6924L108.018 19.7003L108.054 19.9337L108.137 19.9218L108.125 19.6885L108.129 19.6924Z" fill="#CEA649"/>
<path d="M114.224 21.9354L114.237 22.353C113.979 22.521 113.634 22.6071 113.634 23.0118C113.634 23.0333 113.6 23.0591 113.574 23.0677C113.092 23.2959 113.109 23.8815 112.748 24.2087C112.58 24.3594 112.502 24.622 112.395 24.8373C112.222 25.186 112.063 25.5433 111.882 25.8835C111.852 25.9437 111.736 25.961 111.654 25.9911C111.525 26.0385 111.396 26.0815 111.271 26.1246L111.344 26.5637L110.918 26.4044C110.819 25.0353 110.724 23.6705 110.625 22.3014C110.711 22.2712 110.84 22.2712 110.883 22.211C111.107 21.8924 111.314 21.5608 111.516 21.225C111.654 20.9968 111.723 20.6653 111.921 20.5491C112.252 20.3596 112.463 20.153 112.588 19.7827C112.735 19.3522 112.976 18.9518 113.178 18.5385C113.213 18.4653 113.264 18.3447 113.316 18.3404C113.579 18.3189 113.609 18.1208 113.695 17.94C113.781 17.7592 113.919 17.6042 114.031 17.4363C114.147 18.8269 114.259 20.2219 114.375 21.6125L114.224 21.9182V21.9354Z" fill="#B78F3E"/>
<path d="M101.25 44.9221C101.431 44.5258 101.604 44.1253 101.806 43.7374C101.882 43.5941 102.009 43.4549 102.148 43.3664C102.367 43.2189 102.515 43.0797 102.591 42.7931C102.675 42.4726 102.949 42.207 103.054 41.8866C103.198 41.4651 103.699 41.25 103.683 40.7484C103.683 40.7104 103.691 40.643 103.712 40.6303C104.302 40.39 104.247 39.745 104.543 39.3192C104.576 39.2686 104.635 39.2264 104.694 39.1969C104.741 39.1716 104.846 39.1632 104.846 39.1421C104.901 38.4718 105.82 38.2863 105.74 37.5275C105.727 37.4052 105.909 37.2619 106.043 37.0637L106.25 37.5949L106.174 37.7467C105.955 37.8521 105.896 37.9912 106.086 38.1809C105.862 38.9313 105.639 39.6818 105.411 40.4322C105.209 41.1025 105.006 41.7686 104.804 42.4347L104.787 42.5275L104.631 42.949C104.349 43.8049 104.054 44.6607 103.788 45.5207C103.691 45.8285 103.535 45.9549 103.21 45.9339C102.814 45.9086 102.418 45.9043 102.026 45.9339C101.701 45.9549 101.524 45.8411 101.452 45.5249C101.406 45.3183 101.322 45.1244 101.254 44.9221H101.25Z" fill="#B78F3E"/>
<path d="M113.121 11.2059C113.109 11.4922 113.219 11.8451 112.749 11.8843C112.713 11.8843 112.654 11.9863 112.654 12.0412C112.662 12.4098 112.443 12.5549 112.133 12.5824C112.035 13.0333 111.917 13.4333 111.549 13.7078C111.509 13.7353 111.478 13.7902 111.47 13.8373C111.36 14.3471 111.031 14.7196 110.705 15.0961C110.654 15.151 110.592 15.2333 110.6 15.2961C110.623 15.5157 110.482 15.5941 110.345 15.7235C110.207 15.849 110.176 16.0882 110.129 16.2059L109.725 16.4294L110.011 16.6177L109.776 17.0098C109.568 16.8216 109.439 16.9196 109.368 17.2059C109.309 17.4529 109.254 17.6804 108.984 17.849C108.811 17.9549 108.78 18.2843 108.69 18.5157C108.65 18.6098 108.619 18.7039 108.537 18.7941C108.447 18.5118 108.505 18.1745 108.125 18.0882C108.298 17.5392 108.466 16.9941 108.639 16.4451C108.96 15.4333 109.274 14.4177 109.603 13.4059C109.756 12.9275 109.925 12.4569 110.105 11.9863C110.196 11.751 110.325 11.5314 110.486 11.2059H113.125H113.121Z" fill="#D7AE4E"/>
<path d="M111.25 28.3004L111.684 28.4627L111.61 28.0153C111.737 27.9715 111.873 27.9276 112 27.8794C112.079 27.8487 112.197 27.8311 112.232 27.7697C112.417 27.4189 112.579 27.0592 112.754 26.7039C112.864 26.4846 112.939 26.2171 113.114 26.0636C113.482 25.7303 113.465 25.1338 113.956 24.9013C113.982 24.8881 114.018 24.8618 114.018 24.8443C114.018 24.432 114.368 24.3443 114.632 24.1732L114.706 24.2039L114.811 24.3048C114.873 25.4189 114.939 26.5329 115 27.6469C114.61 27.6425 114.632 28.0153 114.482 28.2215C114.026 28.8531 113.583 29.4934 113.158 30.1469C112.803 30.6952 112.496 31.2741 112.136 31.818C111.952 32.0943 111.684 32.3092 111.759 32.6952C111.763 32.7259 111.662 32.7829 111.61 32.8268C111.491 31.318 111.368 29.8136 111.25 28.3048V28.3004Z" fill="#A88138"/>
<path d="M114.366 16.3406C114.251 16.5128 114.11 16.6718 114.022 16.8573C113.933 17.0429 113.902 17.2505 113.633 17.2681C113.58 17.2681 113.527 17.3962 113.492 17.4713C113.284 17.8953 113.037 18.3061 112.886 18.7478C112.758 19.1277 112.542 19.3397 112.202 19.534C111.999 19.6489 111.928 19.9934 111.787 20.2275C111.579 20.5676 111.367 20.9121 111.137 21.239C111.093 21.3008 110.965 21.3052 110.872 21.3317L110.625 18.4828C110.7 18.4828 110.811 18.5093 110.841 18.4695C111.106 18.1559 111.385 17.8512 111.597 17.5066C111.791 17.1886 111.906 16.822 112.047 16.4731C112.091 16.3671 112.114 16.2522 112.144 16.1418C112.167 16.0579 112.162 15.9254 112.215 15.8989C112.71 15.6427 112.692 15.0508 113.054 14.6665L113.235 15.042C113.403 14.5914 113.531 14.2116 113.686 13.845C113.757 13.6727 113.88 13.5711 114.03 13.8052C114.066 13.8582 114.136 13.8892 114.194 13.9333L114.375 16.345L114.366 16.3406Z" fill="#C9A043"/>
<path d="M114.996 34.5323C114.703 34.47 114.457 34.6314 114.299 34.9578C114.197 35.1742 114.083 35.387 113.947 35.5813C113.713 35.9188 113.445 36.2342 113.221 36.579C113.078 36.7991 113.008 37.0705 112.862 37.2906C112.763 37.4373 112.587 37.5363 112.44 37.65C112.308 37.7527 112.168 37.8481 112.033 37.9434C111.981 37.2759 111.926 36.6083 111.875 35.9408C112.073 35.7574 112.311 35.5997 112.466 35.3833C112.763 34.9615 113.005 34.4957 113.287 34.0629C113.724 33.399 114.175 32.7424 114.637 32.0566L114.831 32.1629C114.883 32.8048 114.93 33.4467 114.982 34.0922C114.787 34.1986 114.787 34.2939 114.993 34.3856L115 34.5323H114.996Z" fill="#876219"/>
<path d="M115 31.4869L114.764 31.3577C114.203 32.1905 113.655 32.9833 113.125 33.7939C112.782 34.3194 112.488 34.885 112.127 35.3972C111.94 35.66 111.651 35.8515 111.41 36.0742L111.25 34.1858C111.303 34.1413 111.406 34.0878 111.401 34.0522C111.326 33.6603 111.597 33.442 111.784 33.1615C112.15 32.6092 112.461 32.0213 112.822 31.4646C113.254 30.801 113.704 30.1463 114.167 29.5094C114.319 29.3001 114.296 28.9171 114.693 28.926V28.9349L114.813 29.1442C114.875 29.9236 114.933 30.703 114.996 31.4869H115Z" fill="#98722B"/>
<path d="M105.968 30.9314C106.447 31.2016 106.165 31.6182 106.188 32.0405L105.625 32.0686C105.743 31.6914 105.856 31.3086 105.974 30.9314H105.968Z" fill="#CEA649"/>
<path d="M105.23 33.2737L105.625 33.6185L105 33.7263L105.23 33.2737Z" fill="#CEA649"/>
<path d="M100.47 27.442C100.731 28.1146 100.989 28.7873 101.25 29.4599C100.992 29.3408 100.827 29.4407 100.7 29.6752C100.623 29.8213 100.508 29.9481 100.412 30.0865C100.351 30.1749 100.281 30.2556 100.239 30.3517C100.105 30.6515 100.066 31.1051 99.8393 31.2281C99.4588 31.4357 99.5357 31.8546 99.2589 32.1045C99.1052 32.2429 98.9975 32.4735 98.7708 32.5657C98.6093 32.0776 98.4479 31.5894 98.2864 31.0974L98.1365 30.8552L98.125 30.7053C98.1558 30.5977 98.1827 30.4939 98.2172 30.3863C98.248 30.2941 98.2788 30.1326 98.3249 30.1249C98.6554 30.0826 98.5901 29.8482 98.6055 29.6329C98.6324 29.31 98.6516 28.9756 99.036 28.8449C99.0706 28.8334 99.1282 28.8103 99.1321 28.7873C99.1667 28.3798 99.5587 28.2222 99.724 27.9301C99.9085 27.6072 100.155 27.5035 100.466 27.4343L100.47 27.442Z" fill="#EBC972"/>
<path d="M95.0081 21.5989L95 21.2734C95.1465 20.7973 95.2441 20.3009 95.4517 19.8533C95.6022 19.5237 95.9033 19.2633 96.119 18.9581C96.3102 18.6896 96.4608 18.3925 96.652 18.124C96.7415 18.0019 96.8921 17.8229 97.002 17.8351C97.2176 17.8514 97.5146 17.9205 97.6164 18.0752C97.8402 18.417 97.9622 18.8279 98.125 19.2104C98.0599 19.2999 97.95 19.3854 97.9419 19.483C97.9093 19.833 97.95 20.2114 97.4699 20.2968C97.4577 20.2968 97.4414 20.305 97.4333 20.3131C97.1729 20.7078 96.8473 21.0781 96.6724 21.5094C96.534 21.8471 96.4486 22.1605 96.0905 22.3395C95.765 22.5063 95.7406 22.7057 95.9603 23.1126L95.7365 23.1655L95.0854 21.6803L95.0122 21.603L95.0081 21.5989Z" fill="#E8CC85"/>
<path d="M128.125 29.973C128.125 34.1134 128.125 38.2537 128.125 42.3983C128.125 43.017 127.743 43.3908 127.116 43.3908C126.514 43.3908 125.912 43.3908 125.309 43.3908C124.79 43.3908 124.375 42.9838 124.375 42.4522C124.375 37.0951 124.375 31.7338 124.375 26.3767C124.375 23.4406 124.375 20.5004 124.375 17.5644C124.375 16.9705 124.728 16.6175 125.318 16.6134C125.92 16.6134 126.522 16.6134 127.124 16.6092C127.789 16.6092 128.121 16.9331 128.121 17.5893C128.121 21.7172 128.121 25.8451 128.121 29.9689L128.125 29.973Z" fill="#76520A"/>
<path d="M98.75 33.4114C98.9782 33.3186 99.0865 33.0865 99.2412 32.9473C99.5196 32.6959 99.4423 32.2743 99.8252 32.0655C100.053 31.9417 100.092 31.4854 100.227 31.1837C100.27 31.087 100.34 31.0058 100.401 30.9168C100.498 30.7776 100.614 30.65 100.692 30.503C100.819 30.2632 100.985 30.1665 101.245 30.2864L101.322 30.3638L101.388 30.445C101.523 30.8279 101.658 31.2108 101.79 31.5975C101.825 31.7058 101.848 31.818 101.875 31.9263C101.802 32.0616 101.74 32.2009 101.655 32.3285C101.392 32.7191 101.198 33.1445 100.815 33.4733C100.583 33.6705 100.498 34.065 100.39 34.3822C100.293 34.6684 100.08 34.7883 99.7788 34.7109C99.6511 34.6761 99.4926 34.7418 99.3495 34.7651L99.1986 34.444L99.129 34.3667H99.1252L99.0594 34.2777L99.0439 34.0534C99.1484 33.8832 99.0633 33.8252 98.9008 33.8098L98.8235 33.5738L98.7616 33.4965L98.7539 33.4191L98.75 33.4114Z" fill="#E3BC5F"/>
<path d="M108.75 26.4864L108.125 26.7649L108.376 26.2351L108.75 26.4864Z" fill="#CEA649"/>
</svg>
