<?xml version="1.0" encoding="UTF-8"?>
<svg version="1.1" xmlns="http://www.w3.org/2000/svg" width="763" height="763">
<path d="M0 0 C251.79 0 503.58 0 763 0 C763 251.79 763 503.58 763 763 C511.21 763 259.42 763 0 763 C0 511.21 0 259.42 0 0 Z " fill="#FEFEFE" transform="translate(0,0)"/>
<path d="M0 0 C6.27 0 12.54 0 19 0 C19.9075 2.413125 20.815 4.82625 21.75 7.3125 C22.047854 8.10422607 22.34570801 8.89595215 22.65258789 9.71166992 C24.20069219 13.83712091 25.71162342 17.97302036 27.1875 22.125 C28.23206123 25.04452678 29.31527293 27.60802637 30.75 30.375 C32.08230828 33.17284738 32.26976392 34.94267556 32 38 C32.66 38 33.32 38 34 38 C34.32613281 38.99 34.65226562 39.98 34.98828125 41 C35.42960486 42.33336069 35.87101582 43.66669247 36.3125 45 C36.63250977 45.97259766 36.63250977 45.97259766 36.95898438 46.96484375 C39.58874428 54.89337363 42.63704015 62.57834427 45.9375 70.25 C48.69763882 76.70857381 51.19057271 83.11625395 53.2109375 89.84765625 C53.89209495 92.17243455 53.89209495 92.17243455 56 94 C58.45767179 87.64300536 60.56100191 81.23496682 62.4375 74.6875 C64.33728507 68.06728186 66.50401137 61.62069711 68.875 55.15234375 C70.16111663 51.54853778 71.25210616 47.91222111 72.31640625 44.23828125 C73.16384743 41.4635167 74.17781082 38.77530964 75.25390625 36.08203125 C76.32372644 33.09661679 77.14301147 30.05302162 78 27 C80.51313724 18.28179466 83.03672849 9.57789123 86 1 C91.94 1 97.88 1 104 1 C104.70148919 8.53511471 105.39482387 16.07092446 106.08129883 23.60742188 C106.31485217 26.15970044 106.55045703 28.71179229 106.78833008 31.26367188 C108.07944578 45.13019988 109.18237748 58.94842726 109.66610718 72.86808777 C109.94985076 80.7382586 110.63196313 88.48975705 111.5625 96.3125 C113.72371552 114.75822315 113.72371552 114.75822315 113 121 C111 123 111 123 107.3046875 123.1953125 C105.82799892 123.182009 104.35137642 123.15814835 102.875 123.125 C102.12089844 123.11597656 101.36679687 123.10695313 100.58984375 123.09765625 C98.72642746 123.0740687 96.86317407 123.03819719 95 123 C94.97494385 122.2793335 94.9498877 121.55866699 94.92407227 120.81616211 C94.80739924 117.52312536 94.68499821 114.23032499 94.5625 110.9375 C94.52318359 109.80376953 94.48386719 108.67003906 94.44335938 107.50195312 C94.23190698 101.92286296 93.83959861 96.52367509 93 91 C92.65491969 87.12888212 92.39417089 83.2520407 92.125 79.375 C91.27600164 67.51497858 90.34224915 55.66337492 89.375 43.8125 C89.30669983 42.97475037 89.23839966 42.13700073 89.16802979 41.27386475 C88.77996725 36.5158044 88.3905847 31.75785395 88 27 C83.48610726 39.70421154 79.14273651 52.46131781 74.875 65.25 C74.6217395 66.00728394 74.368479 66.76456787 74.10754395 67.5447998 C71.24781122 76.10087968 68.45541193 84.67230698 65.78483582 93.28936768 C63.83888836 99.55570746 61.77781832 105.78060887 59.6875 112 C59.32849609 113.0725 58.96949219 114.145 58.59960938 115.25 C57.7344945 117.83380975 56.8674648 120.41697825 56 123 C52.7 123 49.4 123 46 123 C39.26171875 105.03125 39.26171875 105.03125 38.09130859 101.8984375 C37.41718416 100.10801126 36.73438141 98.32079264 36.03759766 96.5390625 C34.86958217 93.53971409 34 91.25059829 34 88 C33.01 87.67 32.02 87.34 31 87 C30.34 83.37 29.68 79.74 29 76 C28.34 76 27.68 76 27 76 C26.81824219 75.35933594 26.63648438 74.71867187 26.44921875 74.05859375 C25.25812495 69.96000943 24.0682471 65.95858643 22.3125 62.0625 C21 59 21 59 21 56 C20.34 56 19.68 56 19 56 C18.69707031 54.91203125 18.39414062 53.8240625 18.08203125 52.703125 C15.57365831 43.85164722 12.80136153 35.39534738 9 27 C7.60762396 37.31439725 6.70937271 47.54925769 6.34204102 57.95385742 C6.31037842 58.79924072 6.27871582 59.64462402 6.24609375 60.515625 C6.22216553 61.26102539 6.1982373 62.00642578 6.17358398 62.77441406 C6 65 6 65 5.51367188 67.27905273 C4.84028377 70.84602536 4.69456925 74.40162374 4.53515625 78.01953125 C4.45649449 79.61654209 4.37771439 81.21354711 4.29882812 82.81054688 C4.18054859 85.29344561 4.06415276 87.77640937 3.95043945 90.25952148 C3.44014963 101.25897913 2.54433223 112.09545036 1 123 C-0.98 123 -2.96 123 -5 123 C-5 122.34 -5 121.68 -5 121 C-5.66 121 -6.32 121 -7 121 C-7.0293908 117.35418402 -7.04692874 113.70839913 -7.0625 110.0625 C-7.07087891 109.04091797 -7.07925781 108.01933594 -7.08789062 106.96679688 C-7.10484746 101.6593089 -6.92194198 96.51317898 -6.25170898 91.24926758 C-5.66902598 86.0424213 -5.59451282 80.78558547 -5.39453125 75.55273438 C-5.35714844 74.66521484 -5.31976563 73.77769531 -5.28125 72.86328125 C-5.25095703 72.07219971 -5.22066406 71.28111816 -5.18945312 70.46606445 C-5 68 -5 68 -4.51147461 65.19946289 C-3.9124013 61.45203772 -3.70367523 57.73037036 -3.53515625 53.9453125 C-3.45760648 52.35497623 -3.37996627 50.76464436 -3.30224609 49.17431641 C-3.26315125 48.34877258 -3.2240564 47.52322876 -3.18377686 46.67266846 C-2.4415474 31.08062029 -1.45818498 15.54363136 0 0 Z " fill="#A68030" transform="translate(343,274)"/>
<path d="M0 0 C2.97 0 5.94 0 9 0 C9.350625 1.03125 9.70125 2.0625 10.0625 3.125 C11.81087012 7.80665459 14.05199475 12.20445729 16.31079102 16.65722656 C19.63948985 23.22911637 22.67475183 29.90832904 25.58203125 36.67578125 C28.54333025 43.55095307 31.60291616 50.32774115 35 57 C37.91501244 62.73216374 40.59967729 68.51756089 43.14013672 74.42431641 C45.88160624 80.78114685 48.74329462 87.08063466 51.625 93.375 C52.30816284 94.87256836 52.30816284 94.87256836 53.00512695 96.40039062 C53.44945068 97.36912109 53.89377441 98.33785156 54.3515625 99.3359375 C54.78500977 100.28436523 55.21845703 101.23279297 55.66503906 102.20996094 C56.55341816 104.06665376 57.49345064 105.89951601 58.48339844 107.70410156 C58.95036133 108.55713867 59.41732422 109.41017578 59.8984375 110.2890625 C60.32560059 111.0310791 60.75276367 111.7730957 61.19287109 112.53759766 C62 115 62 115 61 122 C55.72 122 50.44 122 45 122 C44.08476563 120.02515625 43.16953125 118.0503125 42.2265625 116.015625 C41.33640577 114.0959624 40.44604473 112.17639468 39.55566406 110.25683594 C38.9385884 108.92620584 38.32172406 107.59547773 37.70507812 106.26464844 C36.81696676 104.34804682 35.92808758 102.43180292 35.0390625 100.515625 C34.50490723 99.36352539 33.97075195 98.21142578 33.42041016 97.02441406 C32.59034591 95.25699641 31.73261645 93.5012205 30.81005859 91.78027344 C30 90 30 90 30 87 C9.87 87 -10.26 87 -31 87 C-31.33 88.98 -31.66 90.96 -32 93 C-33.18951909 95.58192346 -34.41383939 98.06085622 -35.75 100.5625 C-39.37536407 107.55241058 -42.35522817 114.57429448 -45 122 C-47.875 122.125 -47.875 122.125 -51 122 C-51.66 121.34 -52.32 120.68 -53 120 C-52.61658099 116.56499566 -51.54278716 113.60305936 -50.1796875 110.4453125 C-49.81302979 109.59138916 -49.44637207 108.73746582 -49.06860352 107.85766602 C-48.67471436 106.95588623 -48.2808252 106.05410645 -47.875 105.125 C-47.46757568 104.18390381 -47.06015137 103.24280762 -46.64038086 102.27319336 C-43.82425158 95.8015594 -40.90085247 89.39171487 -37.8828125 83.01171875 C-35.51303415 77.99115555 -33.22953011 72.93139852 -30.9375 67.875 C-26.20023546 57.43252873 -21.41071755 47.01651051 -16.5625 36.625 C-16.27109131 36.00012695 -15.97968262 35.37525391 -15.67944336 34.73144531 C-14.18523011 31.52985372 -12.68534089 28.33110526 -11.17578125 25.13671875 C-7.93097867 18.25451959 -4.81789457 11.34125786 -1.9453125 4.29296875 C-1 2 -1 2 0 0 Z " fill="#765209" transform="translate(609,275)"/>
<path d="M0 0 C1.16789063 0.00644531 2.33578125 0.01289063 3.5390625 0.01953125 C6.375 0.1875 6.375 0.1875 7.375 1.1875 C7.4841316 3.71533328 7.52922481 6.21684618 7.53271484 8.74560547 C7.54033592 9.93364021 7.54033592 9.93364021 7.54811096 11.14567566 C7.55884207 12.87319697 7.56745141 14.60073243 7.57423019 16.32827377 C7.58600433 19.07025164 7.60545854 21.81207093 7.62734985 24.5539856 C7.68897838 32.35299313 7.74280942 40.15198926 7.77636719 47.95117188 C7.79743213 52.71815628 7.83284192 57.48485957 7.87712479 62.25168228 C7.89120618 64.06234527 7.8999893 65.8730581 7.90317917 67.68377304 C7.93298706 82.99966974 9.00970805 95.07007321 19.8828125 106.81640625 C26.09518734 112.50259634 33.32233578 113.68617573 41.375 113.5625 C42.13039062 113.57410156 42.88578125 113.58570313 43.6640625 113.59765625 C52.89330672 113.55008283 60.23591334 109.89876933 67.375 104.1875 C76.715893 93.83678073 75.97833978 78.55252551 75.984375 65.54296875 C75.99938617 63.6782337 76.01611938 61.8135118 76.03448486 59.94880676 C76.07784124 55.08441496 76.09808646 50.22020239 76.11322021 45.35565186 C76.13290668 40.37436461 76.17486304 35.39326775 76.21484375 30.41210938 C76.28980158 20.67063211 76.34030048 10.92919815 76.375 1.1875 C78.7010857 0.80686779 81.03555264 0.47480055 83.375 0.1875 C85.4253974 2.2378974 84.54276115 6.56776708 84.55200195 9.38818359 C84.55857315 10.24848175 84.56514435 11.10877991 84.57191467 11.99514771 C84.59171367 14.85874512 84.60333041 17.7222897 84.61328125 20.5859375 C84.61735678 21.56422138 84.6214323 22.54250526 84.62563133 23.55043411 C84.6465291 28.7372339 84.66080964 33.92400701 84.67016602 39.11083984 C84.68118414 44.45149615 84.71551989 49.79173045 84.75533772 55.13223839 C84.78159412 59.25030244 84.78986629 63.36826786 84.79344749 67.48640823 C84.79829723 69.45343471 84.80986483 71.42045726 84.82848549 73.38740158 C84.95393369 87.52815374 84.16368175 100.02962894 74.375 111.1875 C63.03065407 121.83111004 50.92728158 123.50858363 36 123.625 C34.88230225 123.6353125 33.76460449 123.645625 32.61303711 123.65625 C26.1291563 123.58635863 21.27742926 122.8805242 15.375 120.1875 C14.47652344 119.82269531 13.57804687 119.45789063 12.65234375 119.08203125 C1.96535992 114.13997028 -3.28444306 105.93810542 -7.625 95.1875 C-9.28276726 89.48377425 -9.91888454 84.42895888 -9.8996582 78.50830078 C-9.90476913 77.68129166 -9.90988007 76.85428253 -9.91514587 76.00221252 C-9.92893625 73.29567032 -9.92809457 70.58938543 -9.92578125 67.8828125 C-9.92967109 65.9933157 -9.93400635 64.10381976 -9.93876648 62.21432495 C-9.94620374 58.26883089 -9.94595342 54.32342639 -9.94067383 50.37792969 C-9.93485115 45.31352459 -9.95188932 40.24948189 -9.9750185 35.1851368 C-9.98971246 31.29047493 -9.99063403 27.39590156 -9.98750877 23.50121689 C-9.98802315 21.63283438 -9.99328253 19.76444707 -10.00332069 17.89609146 C-10.01559775 15.29392665 -10.00894904 12.69248444 -9.99731445 10.09033203 C-10.00495819 9.31527817 -10.01260193 8.5402243 -10.02047729 7.74168396 C-9.9992218 5.60110474 -9.9992218 5.60110474 -9.625 2.1875 C-6.0174497 -0.21753353 -4.27663611 -0.0521541 0 0 Z " fill="#CAB078" transform="translate(208.625,274.8125)"/>
<path d="M0 0 C1.8871875 0.00773437 1.8871875 0.00773437 3.8125 0.015625 C5.070625 0.01046875 6.32875 0.0053125 7.625 0 C10.8125 0.265625 10.8125 0.265625 12.8125 2.265625 C13.05859566 4.26086617 13.05859566 4.26086617 13.05300903 6.75808716 C13.05575836 7.70322174 13.05850769 8.64835632 13.06134033 9.62213135 C13.05414978 10.66222351 13.04695923 11.70231567 13.03955078 12.77392578 C13.03984283 13.86661774 13.04013489 14.95930969 13.04043579 16.08511353 C13.03903825 19.71046792 13.02345699 23.33561885 13.0078125 26.9609375 C13.00408388 29.46914559 13.0012362 31.97735512 12.99923706 34.48556519 C12.99237119 40.42124786 12.97659528 46.35686484 12.95653808 52.29251373 C12.93201013 59.71192318 12.9212526 67.13134165 12.91015625 74.55078125 C12.88868515 87.78909986 12.85491739 101.02735779 12.8125 114.265625 C13.62238373 114.26118378 14.43226746 114.25674255 15.26669312 114.25216675 C22.88902597 114.21213749 30.51130806 114.18166485 38.13371849 114.16200066 C42.05273284 114.15155135 45.97166053 114.13737138 49.890625 114.11474609 C53.67073039 114.09305839 57.45075228 114.08106502 61.23091507 114.07587051 C62.67505839 114.07216741 64.119197 114.0649364 65.5633049 114.05416489 C67.58170894 114.03970483 69.60019652 114.03880855 71.61865234 114.03857422 C73.34406754 114.03191238 73.34406754 114.03191238 75.1043396 114.02511597 C77.8125 114.265625 77.8125 114.265625 79.8125 116.265625 C79.9375 119.390625 79.9375 119.390625 79.8125 122.265625 C69.02520374 122.31189629 58.23793096 122.34746764 47.4505558 122.36924934 C42.44193653 122.37970167 37.43338498 122.39388721 32.42480469 122.41650391 C27.59431667 122.43818075 22.76389394 122.4501827 17.93336105 122.45537949 C16.08730415 122.45908454 14.24125094 122.46631925 12.39522171 122.47708511 C9.81629876 122.49153157 7.23764809 122.49360583 4.65869141 122.49267578 C3.88977066 122.49986633 3.12084991 122.50705688 2.32862854 122.51446533 C-2.95939568 122.49372932 -2.95939568 122.49372932 -5.1875 120.265625 C-5.43918228 118.18226624 -5.43918228 118.18226624 -5.44146729 115.55883789 C-5.44710693 114.5661087 -5.45274658 113.57337952 -5.45855713 112.55056763 C-5.45450867 111.45751312 -5.45046021 110.36445862 -5.44628906 109.23828125 C-5.4497937 108.09028046 -5.45329834 106.94227966 -5.45690918 105.75949097 C-5.46574166 101.94897488 -5.45987191 98.13864311 -5.453125 94.328125 C-5.45447121 91.69018518 -5.45641137 89.05224561 -5.45892334 86.41430664 C-5.46256456 80.87937406 -5.45775982 75.3444948 -5.44824219 69.80957031 C-5.4373573 63.40547315 -5.44088277 57.00150332 -5.451895 50.59740925 C-5.46205492 44.44324869 -5.46099181 38.2891447 -5.45513153 32.13497925 C-5.45379347 29.51301048 -5.45544818 26.89103848 -5.46009064 24.26907349 C-5.46514655 20.61028322 -5.45745863 16.95174049 -5.44628906 13.29296875 C-5.45033752 12.19991425 -5.45438599 11.10685974 -5.45855713 9.98068237 C-5.45291748 8.98795319 -5.44727783 7.995224 -5.44146729 6.97241211 C-5.44071323 6.10668076 -5.43995918 5.2409494 -5.43918228 4.34898376 C-4.99146128 0.64286879 -3.53691655 0.29474305 0 0 Z " fill="#CBB279" transform="translate(94.1875,274.734375)"/>
<path d="M0 0 C6.27 0 12.54 0 19 0 C19.9075 2.413125 20.815 4.82625 21.75 7.3125 C22.047854 8.10422607 22.34570801 8.89595215 22.65258789 9.71166992 C24.20069219 13.83712091 25.71162342 17.97302036 27.1875 22.125 C28.23206123 25.04452678 29.31527293 27.60802637 30.75 30.375 C32.08230828 33.17284738 32.26976392 34.94267556 32 38 C32.66 38 33.32 38 34 38 C34.32613281 38.99 34.65226562 39.98 34.98828125 41 C38.02416184 50.18560421 41.0162713 59.23567697 45.328125 67.921875 C46.11693437 70.36168072 45.83828626 71.61410834 45 74 C45 73.34 45 72.68 45 72 C44.01 72.66 43.02 73.32 42 74 C41.41518879 76.88595946 41.41518879 76.88595946 41.3125 80.125 C41.24675781 81.22070312 41.18101562 82.31640625 41.11328125 83.4453125 C41.07589844 84.28835938 41.03851563 85.13140625 41 86 C37.71023192 87.09658936 36.28696233 86.79953138 33 86 C32.67 86.66 32.34 87.32 32 88 C30.82923301 84.01939223 29.74250597 80.08378283 29 76 C28.34 76 27.68 76 27 76 C26.81824219 75.35933594 26.63648438 74.71867187 26.44921875 74.05859375 C25.25812495 69.96000943 24.0682471 65.95858643 22.3125 62.0625 C21 59 21 59 21 56 C20.34 56 19.68 56 19 56 C18.69707031 54.91203125 18.39414062 53.8240625 18.08203125 52.703125 C15.57365831 43.85164722 12.80136153 35.39534738 9 27 C7.60762396 37.31439725 6.70937271 47.54925769 6.34204102 57.95385742 C6.31037842 58.79924072 6.27871582 59.64462402 6.24609375 60.515625 C6.22216553 61.26102539 6.1982373 62.00642578 6.17358398 62.77441406 C6 65 6 65 5.51367188 67.27905273 C4.84028377 70.84602536 4.69456925 74.40162374 4.53515625 78.01953125 C4.45649449 79.61654209 4.37771439 81.21354711 4.29882812 82.81054688 C4.18054859 85.29344561 4.06415276 87.77640937 3.95043945 90.25952148 C3.44014963 101.25897913 2.54433223 112.09545036 1 123 C-0.98 123 -2.96 123 -5 123 C-5 122.34 -5 121.68 -5 121 C-5.66 121 -6.32 121 -7 121 C-7.0293908 117.35418402 -7.04692874 113.70839913 -7.0625 110.0625 C-7.07087891 109.04091797 -7.07925781 108.01933594 -7.08789062 106.96679688 C-7.10484746 101.6593089 -6.92194198 96.51317898 -6.25170898 91.24926758 C-5.66902598 86.0424213 -5.59451282 80.78558547 -5.39453125 75.55273438 C-5.35714844 74.66521484 -5.31976563 73.77769531 -5.28125 72.86328125 C-5.25095703 72.07219971 -5.22066406 71.28111816 -5.18945312 70.46606445 C-5 68 -5 68 -4.51147461 65.19946289 C-3.9124013 61.45203772 -3.70367523 57.73037036 -3.53515625 53.9453125 C-3.45760648 52.35497623 -3.37996627 50.76464436 -3.30224609 49.17431641 C-3.26315125 48.34877258 -3.2240564 47.52322876 -3.18377686 46.67266846 C-2.4415474 31.08062029 -1.45818498 15.54363136 0 0 Z " fill="#E4C781" transform="translate(343,274)"/>
<path d="M0 0 C1.1653125 0.00515625 2.330625 0.0103125 3.53125 0.015625 C4.6965625 0.01046875 5.861875 0.0053125 7.0625 0 C10.03125 0.265625 10.03125 0.265625 12.03125 2.265625 C12.28293228 4.34898376 12.28293228 4.34898376 12.28521729 6.97241211 C12.29085693 7.9651413 12.29649658 8.95787048 12.30230713 9.98068237 C12.29825867 11.07373688 12.29421021 12.16679138 12.29003906 13.29296875 C12.2935437 14.44096954 12.29704834 15.58897034 12.30065918 16.77175903 C12.30949166 20.58227512 12.30362191 24.39260689 12.296875 28.203125 C12.29822121 30.84106482 12.30016137 33.47900439 12.30267334 36.11694336 C12.30631456 41.65187594 12.30150982 47.1867552 12.29199219 52.72167969 C12.2811073 59.12577685 12.28463277 65.52974668 12.295645 71.93384075 C12.30580492 78.08800131 12.30474181 84.2421053 12.29888153 90.39627075 C12.29754347 93.01823952 12.29919818 95.64021152 12.30384064 98.26217651 C12.30889655 101.92096678 12.30120863 105.57950951 12.29003906 109.23828125 C12.29408752 110.33133575 12.29813599 111.42439026 12.30230713 112.55056763 C12.29666748 113.54329681 12.29102783 114.536026 12.28521729 115.55883789 C12.28446323 116.42456924 12.28370918 117.2903006 12.28293228 118.18226624 C12.03125 120.265625 12.03125 120.265625 10.03125 122.265625 C7.0625 122.53125 7.0625 122.53125 3.53125 122.515625 C2.3659375 122.52078125 1.200625 122.5259375 0 122.53125 C-2.96875 122.265625 -2.96875 122.265625 -4.96875 120.265625 C-5.22043228 118.18226624 -5.22043228 118.18226624 -5.22271729 115.55883789 C-5.22835693 114.5661087 -5.23399658 113.57337952 -5.23980713 112.55056763 C-5.23575867 111.45751312 -5.23171021 110.36445862 -5.22753906 109.23828125 C-5.2310437 108.09028046 -5.23454834 106.94227966 -5.23815918 105.75949097 C-5.24699166 101.94897488 -5.24112191 98.13864311 -5.234375 94.328125 C-5.23572121 91.69018518 -5.23766137 89.05224561 -5.24017334 86.41430664 C-5.24381456 80.87937406 -5.23900982 75.3444948 -5.22949219 69.80957031 C-5.2186073 63.40547315 -5.22213277 57.00150332 -5.233145 50.59740925 C-5.24330492 44.44324869 -5.24224181 38.2891447 -5.23638153 32.13497925 C-5.23504347 29.51301048 -5.23669818 26.89103848 -5.24134064 24.26907349 C-5.24639655 20.61028322 -5.23870863 16.95174049 -5.22753906 13.29296875 C-5.23158752 12.19991425 -5.23563599 11.10685974 -5.23980713 9.98068237 C-5.23416748 8.98795319 -5.22852783 7.995224 -5.22271729 6.97241211 C-5.22196323 6.10668076 -5.22120918 5.2409494 -5.22043228 4.34898376 C-4.78900599 0.77775205 -3.426695 0.30659903 0 0 Z " fill="#755108" transform="translate(501.96875,274.734375)"/>
<path d="M0 0 C5.94 0 11.88 0 18 0 C18.93854006 7.03905044 19.10808032 13.90272572 19 21 C18.34 21 17.68 21 17 21 C16.77213542 19.01432292 16.54427083 17.02864583 16.31640625 15.04296875 C16.02829265 12.80603607 16.02829265 12.80603607 15 10 C15.9375 7.3125 15.9375 7.3125 17 5 C16.01 4.505 16.01 4.505 15 4 C14.01 4.33 13.02 4.66 12 5 C11.505 3.02 11.505 3.02 11 1 C5.97757619 2.04491454 5.97757619 2.04491454 2.0625 5.125 C1.5365625 6.053125 1.5365625 6.053125 1 7 C1.33 7 1.66 7 2 7 C2 8.65 2 10.3 2 12 C1.34 11.34 0.68 10.68 0 10 C-0.99 12.97 -1.98 15.94 -3 19 C-2.34 19 -1.68 19 -1 19 C-1 19.66 -1 20.32 -1 21 C0.32 20.67 1.64 20.34 3 20 C3.25 25.625 3.25 25.625 1 29 C0.03719797 31.51112859 -0.87276338 34.01666189 -1.74609375 36.55859375 C-2.00756699 37.3099913 -2.26904022 38.06138885 -2.53843689 38.83555603 C-5.18373222 46.46604642 -7.75751228 54.1207796 -10.30493164 61.78442383 C-11.0636714 64.0660225 -11.82563341 66.34652751 -12.58789062 68.62695312 C-15.21126922 76.4938668 -17.76362396 84.37767249 -20.21832275 92.29884338 C-22.16309054 98.56206464 -24.2232421 104.78376398 -26.3125 111 C-26.67150391 112.0725 -27.03050781 113.145 -27.40039062 114.25 C-28.2655055 116.83380975 -29.1325352 119.41697825 -30 122 C-33.3 122 -36.6 122 -40 122 C-41.41761591 118.22952286 -42.83391346 114.45855176 -44.25 110.6875 C-44.64574219 109.63498047 -45.04148437 108.58246094 -45.44921875 107.49804688 C-46.63709817 104.33361398 -47.81970068 101.16726743 -49 98 C-49.39251953 96.95150879 -49.78503906 95.90301758 -50.18945312 94.82275391 C-50.55490234 93.83581543 -50.92035156 92.84887695 -51.296875 91.83203125 C-51.62526367 90.94878174 -51.95365234 90.06553223 -52.29199219 89.15551758 C-53 87 -53 87 -53 85 C-50.69 85 -48.38 85 -46 85 C-45.97421875 84.15695312 -45.9484375 83.31390625 -45.921875 82.4453125 C-45.86515625 81.34960938 -45.8084375 80.25390625 -45.75 79.125 C-45.70359375 78.03445313 -45.6571875 76.94390625 -45.609375 75.8203125 C-45 73 -45 73 -42.953125 71.6171875 C-41.98632812 71.31167969 -41.98632812 71.31167969 -41 71 C-41 71.66 -41 72.32 -41 73 C-40.34 73 -39.68 73 -39 73 C-36.33333333 79.66666667 -33.66666667 86.33333333 -31 93 C-28.15138455 90.15138455 -27.61010347 86.72180685 -26.5625 82.9375 C-26.11695905 81.37729717 -25.67035576 79.8173973 -25.22265625 78.2578125 C-25.01012207 77.51305664 -24.79758789 76.76830078 -24.57861328 76.00097656 C-22.82231959 69.92731281 -20.64335891 64.00776936 -18.5 58.0625 C-16.73611648 53.15636888 -15.13385439 48.24454822 -13.68359375 43.23828125 C-12.83615257 40.4635167 -11.82218918 37.77530964 -10.74609375 35.08203125 C-9.67627356 32.09661679 -8.85698853 29.05302162 -8 26 C-5.48686276 17.28179466 -2.96327151 8.57789123 0 0 Z " fill="#C79F45" transform="translate(429,275)"/>
<path d="M0 0 C0.66 0 1.32 0 2 0 C4.00263383 4.29044125 6.00247436 8.58217839 8 12.875 C8.2962326 13.51159546 8.59246521 14.14819092 8.89767456 14.80407715 C12.83520578 23.27183448 16.73165613 31.75471779 20.46289062 40.31591797 C22.25083954 44.40017426 24.17630092 48.37721653 26.24584961 52.32714844 C27 54 27 54 27 56 C10.17 56 -6.66 56 -24 56 C-23.11022744 51.55113722 -21.79032815 47.97960339 -19.90234375 43.92578125 C-19.43684616 42.90926987 -19.43684616 42.90926987 -18.96194458 41.8722229 C-17.95853148 39.68343836 -16.94800988 37.49801581 -15.9375 35.3125 C-14.90831786 33.07143506 -13.88098347 30.82952892 -12.85368347 28.58760071 C-12.17723663 27.11179874 -11.50016715 25.636282 -10.82246399 24.16105652 C-8.19429642 18.43815129 -5.60919217 12.69716656 -3.0625 6.9375 C-2.73950928 6.20764893 -2.41651855 5.47779785 -2.08374023 4.72583008 C-1.38784359 3.15113455 -0.69365555 1.57568402 0 0 Z " fill="#FBFAF5" transform="translate(607,298)"/>
<path d="M0 0 C0.99 0.66 1.98 1.32 3 2 C2.75 3.875 2.75 3.875 2 6 C-0.0625 7.25 -0.0625 7.25 -2 8 C-2.5775 7.21625 -3.155 6.4325 -3.75 5.625 C-6.46386081 2.45882905 -8.29751225 1.15868369 -12.47265625 0.76953125 C-13.32730469 0.78371094 -14.18195313 0.79789062 -15.0625 0.8125 C-15.91972656 0.81894531 -16.77695313 0.82539063 -17.66015625 0.83203125 C-20.15477968 0.91409966 -20.15477968 0.91409966 -23 2 C-23.41831404 5.28999282 -23.41831404 5.28999282 -23 9 C-18.84481065 14.05360866 -13.66450763 16.57763985 -7.97070312 19.51757812 C-2.80735492 22.28278356 2.85158539 25.46641657 4.76171875 31.34375 C4.62386493 35.34876638 4.30135192 38.19565148 1.8125 41.4375 C-3.90437317 46.64620667 -9.68785909 46.54117225 -17.171875 46.453125 C-22.58929638 45.8118792 -27.14837065 43.95131858 -31 40 C-31 36 -31 36 -29 34 C-26 34 -26 34 -24.46484375 35.49609375 C-23.96082031 36.13675781 -23.45679688 36.77742188 -22.9375 37.4375 C-20.8328667 40.15875193 -20.8328667 40.15875193 -18 42 C-10.83274483 42.70320516 -10.83274483 42.70320516 -4.25 40.375 C-2.7763932 38.00465847 -2.7763932 38.00465847 -2.9375 35 C-5.06228885 29.00059619 -11.0644565 26.84367876 -16.4375 24.1875 C-27.36371933 18.53618941 -27.36371933 18.53618941 -30 13 C-30.6086074 9.07786345 -30.4094205 6.92658323 -28.8125 3.3125 C-20.69819577 -7.04023299 -10.71337691 -4.74227023 0 0 Z " fill="#353535" transform="translate(256,423)"/>
<path d="M0 0 C0.474375 0.433125 0.94875 0.86625 1.4375 1.3125 C1.1875 3.1875 1.1875 3.1875 0.4375 5.3125 C-1.625 6.5625 -1.625 6.5625 -3.5625 7.3125 C-4.76692708 5.78255208 -5.97135417 4.25260417 -7.17578125 2.72265625 C-9.83159287 0.02195767 -12.98490149 0.12638569 -16.5625 0.0625 C-17.42875 0.03671875 -18.295 0.0109375 -19.1875 -0.015625 C-21.61581643 0.12280946 -21.61581643 0.12280946 -23.359375 1.671875 C-25.04253742 3.96709649 -24.84097803 5.52771967 -24.5625 8.3125 C-23.91777398 11.33814475 -23.91777398 11.33814475 -21.9609375 12.26171875 C-21.16945313 12.60847656 -20.37796875 12.95523437 -19.5625 13.3125 C-17.09791049 14.57261179 -14.64057294 15.84293137 -12.1875 17.125 C-11.54039062 17.45564453 -10.89328125 17.78628906 -10.2265625 18.12695312 C0.0409956 23.5194912 0.0409956 23.5194912 2.4375 28.3125 C3.07457113 33.45457416 3.36372985 37.11090452 0.125 41.3125 C-6.58045797 46.30260826 -12.48721709 45.99782565 -20.5625 45.3125 C-25.28224642 44.01424997 -29.41638456 42.16746244 -32.5625 38.3125 C-32.5625 37.3225 -32.5625 36.3325 -32.5625 35.3125 C-31.9025 35.3125 -31.2425 35.3125 -30.5625 35.3125 C-30.5625 34.6525 -30.5625 33.9925 -30.5625 33.3125 C-27.40237387 33.65108494 -26.60817887 34.25851588 -24.5 36.75 C-23.5409375 38.0184375 -23.5409375 38.0184375 -22.5625 39.3125 C-19.11574591 41.61033606 -17.62921888 41.61004883 -13.5625 41.625 C-12.510625 41.64175781 -11.45875 41.65851563 -10.375 41.67578125 C-7.56835982 41.54214334 -7.56835982 41.54214334 -5.72265625 39.97265625 C-4.34763752 38.24356635 -4.34763752 38.24356635 -4 35.4375 C-4.76542567 31.18513518 -7.19226261 29.68496677 -10.5625 27.3125 C-13.90215713 25.29745938 -17.35586019 23.50397535 -20.81640625 21.70703125 C-24.98961725 19.45870396 -28.03188053 17.47453406 -30.5625 13.3125 C-31.57857872 8.53095309 -31.27956852 4.49937204 -28.75 0.3125 C-20.51495422 -7.21668471 -8.92202823 -5.875482 0 0 Z " fill="#333333" transform="translate(457.5625,423.6875)"/>
<path d="M0 0 C0.99 0.66 1.98 1.32 3 2 C1.57070062 6.50779034 -0.11969005 10.61261012 -2 15 C15.16 14.67 32.32 14.34 50 14 C50 14.66 50 15.32 50 16 C32.51 16.33 15.02 16.66 -3 17 C-2.34 18.32 -1.68 19.64 -1 21 C16.82 21.33 34.64 21.66 53 22 C53 22.33 53 22.66 53 23 C33.2 23 13.4 23 -7 23 C-7.33 24.98 -7.66 26.96 -8 29 C-9.18951909 31.58192346 -10.41383939 34.06085622 -11.75 36.5625 C-15.37536407 43.55241058 -18.35522817 50.57429448 -21 58 C-23.875 58.125 -23.875 58.125 -27 58 C-27.66 57.34 -28.32 56.68 -29 56 C-28.61658099 52.56499566 -27.54278716 49.60305936 -26.1796875 46.4453125 C-25.81270752 45.59074463 -25.44572754 44.73617676 -25.06762695 43.85571289 C-24.67406006 42.95457764 -24.28049316 42.05344238 -23.875 41.125 C-23.47047607 40.18970459 -23.06595215 39.25440918 -22.64916992 38.29077148 C-19.76059743 31.64790852 -16.74005722 25.07771432 -13.640625 18.53125 C-10.95338175 12.74727881 -8.47275939 6.87846464 -6 1 C-5.38125 1.20625 -4.7625 1.4125 -4.125 1.625 C-3.073125 1.810625 -3.073125 1.810625 -2 2 C-1.34 1.34 -0.68 0.68 0 0 Z " fill="#83621C" transform="translate(585,339)"/>
<path d="M0 0 C6.47112822 0.05918715 11.37755992 0.11234917 16.8125 3.875 C19.03727681 7.16766968 18.93046296 9.29925931 18.375 13.1875 C16.5625 15.625 16.5625 15.625 14.375 17.1875 C13.385 17.1875 12.395 17.1875 11.375 17.1875 C12.66018553 19.50382275 13.95271266 21.81546942 15.25 24.125 C15.61480469 24.78435547 15.97960937 25.44371094 16.35546875 26.12304688 C18.22917898 29.76686369 18.22917898 29.76686369 21.375 32.1875 C21.375 32.8475 21.375 33.5075 21.375 34.1875 C17.03179549 34.54204731 17.03179549 34.54204731 14.375 33.1875 C12.703125 30.51953125 12.703125 30.51953125 11.0625 27.25 C8.7927009 22.68280885 8.7927009 22.68280885 4.7109375 19.94921875 C1.65792124 19.32503678 1.65792124 19.32503678 -2.625 19.1875 C-2.625 24.1375 -2.625 29.0875 -2.625 34.1875 C-4.275 34.1875 -5.925 34.1875 -7.625 34.1875 C-7.64965288 29.50610746 -7.66783739 24.82475241 -7.67993164 20.14331055 C-7.68497157 18.54955386 -7.6918035 16.95580181 -7.70043945 15.36206055 C-7.71251999 13.07599747 -7.71823155 10.78999533 -7.72265625 8.50390625 C-7.72781754 7.78723282 -7.73297882 7.07055939 -7.73829651 6.33216858 C-7.73849263 4.61686328 -7.68692007 2.90168734 -7.625 1.1875 C-5.73007035 -0.70742965 -2.52265247 0.01327712 0 0 Z " fill="#454545" transform="translate(350.625,433.8125)"/>
<path d="M0 0 C5.8194162 0.04156726 11.3411096 0.32100381 16.5 3.25 C18.98038907 6.9705836 18.96337203 8.84796571 18.5 13.25 C16.6875 15.6875 16.6875 15.6875 14.5 17.25 C13.51 17.25 12.52 17.25 11.5 17.25 C12.0775 18.16523438 12.655 19.08046875 13.25 20.0234375 C14.0002341 21.22381205 14.75022133 22.42434092 15.5 23.625 C15.8815625 24.22828125 16.263125 24.8315625 16.65625 25.453125 C19.5 30.0234375 19.5 30.0234375 19.5 32.25 C20.16 32.25 20.82 32.25 21.5 32.25 C21.5 32.91 21.5 33.57 21.5 34.25 C18.2734375 34.15625 18.2734375 34.15625 14.5 33.25 C12.6533675 31.01238667 11.44082298 29.25911994 10.125 26.75 C9.45089457 25.55187298 8.7764335 24.35394596 8.1015625 23.15625 C7.57304688 22.1971875 7.04453125 21.238125 6.5 20.25 C5.00256881 18.75256881 3.51175761 18.91797307 1.4375 18.6875 C0.138125 18.543125 -1.16125 18.39875 -2.5 18.25 C-2.5 23.53 -2.5 28.81 -2.5 34.25 C-4.15 34.25 -5.8 34.25 -7.5 34.25 C-7.52465288 29.56860746 -7.54283739 24.88725241 -7.55493164 20.20581055 C-7.55997157 18.61205386 -7.5668035 17.01830181 -7.57543945 15.42456055 C-7.58751999 13.13849747 -7.59323155 10.85249533 -7.59765625 8.56640625 C-7.60281754 7.84973282 -7.60797882 7.13305939 -7.61329651 6.39466858 C-7.61349263 4.67936328 -7.56192007 2.96418734 -7.5 1.25 C-5.61520858 -0.63479142 -2.51579362 0.03225376 0 0 Z " fill="#424242" transform="translate(622.5,433.75)"/>
<path d="M0 0 C5.94 0 11.88 0 18 0 C18.93854006 7.03905044 19.10808032 13.90272572 19 21 C18.34 21 17.68 21 17 21 C16.77213542 19.01432292 16.54427083 17.02864583 16.31640625 15.04296875 C16.02829265 12.80603607 16.02829265 12.80603607 15 10 C15.9375 7.3125 15.9375 7.3125 17 5 C16.34 4.67 15.68 4.34 15 4 C14.01 4.33 13.02 4.66 12 5 C11.505 3.02 11.505 3.02 11 1 C5.97757619 2.04491454 5.97757619 2.04491454 2.0625 5.125 C1.5365625 6.053125 1.5365625 6.053125 1 7 C1.33 7 1.66 7 2 7 C2 8.65 2 10.3 2 12 C1.34 11.34 0.68 10.68 0 10 C-0.99 12.97 -1.98 15.94 -3 19 C-2.34 19 -1.68 19 -1 19 C-1 19.66 -1 20.32 -1 21 C0.32 20.67 1.64 20.34 3 20 C3.25 25.625 3.25 25.625 1 29 C0.01565942 31.57487332 -0.91620189 34.14487184 -1.8125 36.75 C-2.07603271 37.49918701 -2.33956543 38.24837402 -2.61108398 39.02026367 C-3.92046183 42.76624346 -5.17537641 46.5191683 -6.328125 50.31640625 C-6.53719482 50.99026367 -6.74626465 51.66412109 -6.96166992 52.35839844 C-7.5310053 54.21006866 -8.08054798 56.06779078 -8.62890625 57.92578125 C-10.20551177 61.46079134 -11.88955683 62.77966775 -15 65 C-16.04349839 66.63978318 -17.05607981 68.30094366 -18 70 C-18.33 70 -18.66 70 -19 70 C-19.33 71.65 -19.66 73.3 -20 75 C-20.66 75 -21.32 75 -22 75 C-22.66 77.97 -23.32 80.94 -24 84 C-24.66 84 -25.32 84 -26 84 C-24.83540683 77.43717494 -23.26167342 71.26531659 -21 65 C-18.39712951 57.78487692 -15.81827259 50.60714437 -13.68359375 43.23828125 C-12.83615257 40.4635167 -11.82218918 37.77530964 -10.74609375 35.08203125 C-9.67627356 32.09661679 -8.85698853 29.05302162 -8 26 C-5.48686276 17.28179466 -2.96327151 8.57789123 0 0 Z " fill="#CFA748" transform="translate(429,275)"/>
<path d="M0 0 C0.33 0 0.66 0 1 0 C1.02725341 1.7290774 1.04650987 3.45828176 1.0625 5.1875 C1.07410156 6.15042969 1.08570313 7.11335938 1.09765625 8.10546875 C1 11 1 11 0.52294922 13.1796875 C-0.14507649 16.78241067 -0.30392041 20.36734629 -0.46484375 24.01953125 C-0.54350551 25.61654209 -0.62228561 27.21354711 -0.70117188 28.81054688 C-0.81945141 31.29344561 -0.93584724 33.77640937 -1.04956055 36.25952148 C-1.55985037 47.25897913 -2.45566777 58.09545036 -4 69 C-5.98 69 -7.96 69 -10 69 C-10 68.34 -10 67.68 -10 67 C-10.66 67 -11.32 67 -12 67 C-12.0293908 63.35418402 -12.04692874 59.70839913 -12.0625 56.0625 C-12.07087891 55.04091797 -12.07925781 54.01933594 -12.08789062 52.96679688 C-12.10484746 47.6593089 -11.92194198 42.51317898 -11.25170898 37.24926758 C-10.66902598 32.0424213 -10.59451282 26.78558547 -10.39453125 21.55273438 C-10.20090573 16.95579752 -9.90077049 12.52637172 -9 8 C-8.34 8 -7.68 8 -7 8 C-6.67 8.66 -6.34 9.32 -6 10 C-5.34 8.35 -4.68 6.7 -4 5 C-3.67 5.99 -3.34 6.98 -3 8 C-2.01 8 -1.02 8 0 8 C0 5.36 0 2.72 0 0 Z " fill="#EDD188" transform="translate(348,328)"/>
<path d="M0 0 C2.3125 -0.3125 2.3125 -0.3125 5 0 C8.5714647 4.18875489 9.94338888 10.16027196 11.6875 15.3125 C12.00783203 16.24384766 12.32816406 17.17519531 12.65820312 18.13476562 C13.44389722 20.42148724 14.2243152 22.70986781 15 25 C17.88542198 22.11457802 18.43672243 18.58424336 19.5 14.75 C19.92608262 13.24450809 20.35314907 11.73929423 20.78125 10.234375 C20.98492187 9.51572266 21.18859375 8.79707031 21.3984375 8.05664062 C22.19147505 5.34537913 23.08131572 2.67098948 24 0 C25.66611905 -0.042721 27.33382885 -0.04063832 29 0 C30.95617995 1.95617995 30.39074595 5.63423409 30.53515625 8.31640625 C30.57813339 9.04746078 30.62111053 9.77851532 30.66539001 10.53172302 C30.80213845 12.87508604 30.93238542 15.21876017 31.0625 17.5625 C31.15387007 19.14781112 31.24566141 20.73309801 31.33789062 22.31835938 C31.56348956 26.21197499 31.78325697 30.10588177 32 34 C30.35 34 28.7 34 27 34 C26.16035183 28.68693215 25.71817391 23.4321139 25.4375 18.0625 C25.39431641 17.28326172 25.35113281 16.50402344 25.30664062 15.70117188 C25.20171923 13.80092883 25.1004755 11.90048331 25 10 C22.8399503 14.86958574 21.00887844 19.74445114 19.375 24.8125 C17.11880165 31.76239669 17.11880165 31.76239669 16 34 C15.01 34 14.02 34 13 34 C12.0810063 31.73008557 11.16479923 29.45910481 10.25 27.1875 C9.99734375 26.56423828 9.7446875 25.94097656 9.484375 25.29882812 C7.18219644 19.57215896 5.11344832 13.81198288 3 8 C2.34 16.58 1.68 25.16 1 34 C0.01 34 -0.98 34 -2 34 C-2.02763357 32.64595503 -2.04667422 31.29173445 -2.0625 29.9375 C-2.07410156 29.18339844 -2.08570313 28.42929687 -2.09765625 27.65234375 C-2 25 -2 25 -1.53125 21.78125 C-0.91203728 17.3739124 -0.65584075 13.00448151 -0.4375 8.5625 C-0.39431641 7.73556641 -0.35113281 6.90863281 -0.30664062 6.05664062 C-0.20161967 4.03790451 -0.10041441 2.01897049 0 0 Z " fill="#383838" transform="translate(269,434)"/>
<path d="M0 0 C0.99 0 1.98 0 3 0 C3.31227539 0.68513672 3.62455078 1.37027344 3.94628906 2.07617188 C5.37936979 5.21812977 6.81466801 8.35906995 8.25 11.5 C8.74113281 12.57765625 9.23226562 13.6553125 9.73828125 14.765625 C11.87401584 19.43576463 14.01638468 24.08597259 16.359375 28.65625 C18 32 18 32 18 34 C16.35 34 14.7 34 13 34 C12.67 32.68 12.34 31.36 12 30 C11.34 30 10.68 30 10 30 C9.505 27.525 9.505 27.525 9 25 C0.585 25.495 0.585 25.495 -8 26 C-9.32 28.64 -10.64 31.28 -12 34 C-12.66 34 -13.32 34 -14 34 C-13.4336295 29.182173 -11.93266886 25.24973664 -9.8125 20.9375 C-9.18193166 19.62256841 -8.55173086 18.30746052 -7.921875 16.9921875 C-7.60283203 16.33186523 -7.28378906 15.67154297 -6.95507812 14.99121094 C-5.45532293 11.8644207 -4.01048846 8.71359869 -2.5625 5.5625 C-2.06878906 4.49128906 -1.57507813 3.42007812 -1.06640625 2.31640625 C-0.53853516 1.16978516 -0.53853516 1.16978516 0 0 Z " fill="#4D4D4D" transform="translate(592,434)"/>
<path d="M0 0 C1.79296875 0.05078125 1.79296875 0.05078125 4 1 C5.29998495 3.40906303 6.32453301 5.65351789 7.3125 8.1875 C7.91066955 9.6433258 8.51231218 11.0977288 9.1171875 12.55078125 C9.42366211 13.29021973 9.73013672 14.0296582 10.04589844 14.79150391 C12.04013537 19.4076419 14.40231069 23.84226107 16.71484375 28.3046875 C18 31 18 31 18 33 C16.35 33 14.7 33 13 33 C9 26.25 9 26.25 9 24 C3.06 24 -2.88 24 -9 24 C-9.33 25.98 -9.66 27.96 -10 30 C-10.66 30.99 -11.32 31.98 -12 33 C-12.66 33 -13.32 33 -14 33 C-13.43131968 28.16990998 -11.92805869 24.20497526 -9.8125 19.875 C-9.50368896 19.22845459 -9.19487793 18.58190918 -8.87670898 17.91577148 C-5.9934946 11.90680179 -3.02032949 5.94108768 0 0 Z " fill="#373737" transform="translate(320,435)"/>
<path d="M0 0 C1.32 0 2.64 0 4 0 C4.33 4.62 4.66 9.24 5 14 C6.20398438 12.989375 7.40796875 11.97875 8.6484375 10.9375 C10.2237449 9.62474384 11.79927738 8.31225774 13.375 7 C14.1690625 6.33226562 14.963125 5.66453125 15.78125 4.9765625 C16.54179687 4.34492188 17.30234375 3.71328125 18.0859375 3.0625 C19.1385376 2.18271484 19.1385376 2.18271484 20.21240234 1.28515625 C22 0 22 0 24 0 C22.4597181 3.98661198 19.94499598 5.9009683 16.625 8.5 C13.21365673 11.18493864 10.00672197 13.86502923 7 17 C7.5465625 17.22816406 8.093125 17.45632813 8.65625 17.69140625 C11.69505068 19.38806996 13.96006164 21.56154118 16.5 23.9375 C20.28256641 27.48345739 20.28256641 27.48345739 24.34375 30.69140625 C25.16359375 31.33916016 25.16359375 31.33916016 26 32 C26 32.66 26 33.32 26 34 C22.9071356 34.50102476 20.78067099 34.50039928 18.09863281 32.78125 C16.04258141 31.08166255 14.07624539 29.31889347 12.125 27.5 C11.43664062 26.87996094 10.74828125 26.25992187 10.0390625 25.62109375 C8.34739583 24.09389467 6.67204226 22.54866001 5 21 C4.67 25.29 4.34 29.58 4 34 C2.35 34 0.7 34 -1 34 C-1.02465288 29.31860746 -1.04283739 24.63725241 -1.05493164 19.95581055 C-1.05997157 18.36205386 -1.0668035 16.76830181 -1.07543945 15.17456055 C-1.08751999 12.88849747 -1.09323155 10.60249533 -1.09765625 8.31640625 C-1.10281754 7.59973282 -1.10797882 6.88305939 -1.11329651 6.14466858 C-1.11349263 4.42936328 -1.06192007 2.71418734 -1 1 C-0.67 0.67 -0.34 0.34 0 0 Z " fill="#383838" transform="translate(469,434)"/>
<path d="M0 0 C2.2578125 -0.24609375 2.2578125 -0.24609375 5 0 C6.9921875 1.65234375 6.9921875 1.65234375 8.875 3.9375 C9.55820312 4.75605469 10.24140625 5.57460938 10.9453125 6.41796875 C16.0617973 12.84761981 16.0617973 12.84761981 18.45703125 15.98828125 C19.74548222 17.66816036 21.08558013 19.30826324 22.4375 20.9375 C24 23 24 23 24 25 C24.66 25 25.32 25 26 25 C26 17.08 26 9.16 26 1 C26.66 1 27.32 1 28 1 C28 11.89 28 22.78 28 34 C23.75493662 31.87746831 22.19437516 30.13827249 19.25 26.5 C18.81896973 25.96971191 18.38793945 25.43942383 17.94384766 24.89306641 C17.05812389 23.80131488 16.17547612 22.70706077 15.29589844 21.61035156 C14.06603724 20.08206135 12.81863917 18.56793237 11.5703125 17.0546875 C6 10.25533808 6 10.25533808 6 8 C5.34 8 4.68 8 4 8 C4 16.58 4 25.16 4 34 C3.34 34 2.68 34 2 34 C1.97494385 33.07662842 1.9498877 32.15325684 1.92407227 31.2019043 C1.82890955 27.77453584 1.72967786 24.34733539 1.62768555 20.92016602 C1.5843867 19.43713985 1.54270801 17.95406546 1.50268555 16.47094727 C1.44486042 14.33855661 1.38120168 12.20640758 1.31640625 10.07421875 C1.26141968 8.14968872 1.26141968 8.14968872 1.20532227 6.1862793 C1.13438766 2.97888449 1.13438766 2.97888449 0 0 Z " fill="#333333" transform="translate(512,434)"/>
<path d="M0 0 C2.53905844 1.77734091 3.50147198 2.85426876 4.5 5.75 C2.52 6.74 2.52 6.74 0.5 7.75 C-0.11875 6.945625 -0.7375 6.14125 -1.375 5.3125 C-3.24164041 2.71125481 -3.24164041 2.71125481 -5.5 1.75 C-7.5799815 1.65898926 -7.5799815 1.65898926 -9.875 1.875 C-11.03128906 1.94074219 -11.03128906 1.94074219 -12.2109375 2.0078125 C-15.60106026 3.10699906 -16.68115645 4.72678708 -18.5 7.75 C-19.05617017 11.15621557 -19.05617017 11.15621557 -18.875 14.75 C-18.86210938 15.94625 -18.84921875 17.1425 -18.8359375 18.375 C-18.51480965 21.60121466 -17.9747703 23.87890462 -16.5 26.75 C-12.27287328 29.52405191 -6.39395104 29.5214194 -1.5 28.75 C0.17360258 27.2904093 0.17360258 27.2904093 1.5 25.75 C2.16 25.75 2.82 25.75 3.5 25.75 C3.27069943 28.96020798 2.43806165 29.80574452 0 32 C-4.41200989 34.20600494 -7.66248435 34.44729955 -12.5 33.75 C-16.94224746 32.26925085 -20.41156659 29.79848264 -23.359375 26.17578125 C-25.87789877 20.81960569 -25.45090521 14.47395537 -24.5 8.75 C-19.01950932 -1.10791649 -10.43757205 -3.7277043 0 0 Z " fill="#3E3E3E" transform="translate(571.5,435.25)"/>
<path d="M0 0 C0.66 0.33 1.32 0.66 2 1 C2.11678548 16.3160984 2.20496463 31.63217626 2.25906086 46.94861984 C2.28484609 54.06029898 2.32000206 61.17170152 2.37719727 68.28320312 C2.43234316 75.1431669 2.46140244 82.00284279 2.47438622 88.86301422 C2.48364176 91.48337586 2.50171516 94.10372133 2.52865028 96.72396088 C2.56482156 100.38761205 2.56995005 104.05006688 2.56762695 107.71386719 C2.58560333 108.80287323 2.60357971 109.89187927 2.62210083 111.0138855 C2.57161118 118.34764601 2.57161118 118.34764601 -0.34529114 121.67657471 C-3.51418565 123.2563318 -5.65837431 123.47144816 -9.1875 123.375 C-10.23292969 123.36210937 -11.27835937 123.34921875 -12.35546875 123.3359375 C-15 123 -15 123 -17 121 C-16.67 120.01 -16.34 119.02 -16 118 C-15.67 118.33 -15.34 118.66 -15 119 C-12.83519203 119.0989294 -10.66706215 119.129711 -8.5 119.125 C-7.3140625 119.12757813 -6.128125 119.13015625 -4.90625 119.1328125 C-2.10740578 119.33210219 -2.10740578 119.33210219 -1 118 C-0.89205032 116.4695654 -0.85317012 114.9342039 -0.84178162 113.40000916 C-0.82709839 111.90864189 -0.82709839 111.90864189 -0.81211853 110.387146 C-0.80636307 109.28735413 -0.8006076 108.18756226 -0.79467773 107.05444336 C-0.78477814 105.90337601 -0.77487854 104.75230865 -0.76467896 103.56636047 C-0.73295338 99.74087621 -0.70826297 95.9153795 -0.68359375 92.08984375 C-0.66303376 89.44568041 -0.64203756 86.80152043 -0.62062073 84.15736389 C-0.57064394 77.89587961 -0.52572369 71.63436955 -0.48259836 65.37283474 C-0.4332685 58.24595156 -0.37833466 51.11911508 -0.32291877 43.99227703 C-0.20902223 29.32822888 -0.10219997 14.66413427 0 0 Z " fill="#F5EDD2" transform="translate(514,277)"/>
<path d="M0 0 C7.26 0 14.52 0 22 0 C22 0.99 22 1.98 22 3 C16.39 3 10.78 3 5 3 C5 7.29 5 11.58 5 16 C10.28 16 15.56 16 21 16 C21 16.66 21 17.32 21 18 C15.39 18 9.78 18 4 18 C4 22.62 4 27.24 4 32 C10.27 32 16.54 32 23 32 C23 32.66 23 33.32 23 34 C15.41 34 7.82 34 0 34 C0 22.78 0 11.56 0 0 Z " fill="#242424" transform="translate(650,434)"/>
<path d="M0 0 C0.33 0 0.66 0 1 0 C0.4190695 6.47322558 -1.14775775 12.21765739 -3.1875 18.375 C-3.49703613 19.32729492 -3.80657227 20.27958984 -4.12548828 21.26074219 C-5.07588165 24.1764462 -6.0369093 27.08846849 -7 30 C-7.58731663 31.78903721 -8.1745596 33.5780986 -8.76171875 35.3671875 C-12.79046911 47.58093822 -12.79046911 47.58093822 -14 50 C-14.99 49.67 -15.98 49.34 -17 49 C-16.34 49 -15.68 49 -15 49 C-15.56371414 45.73045798 -16.49962266 44.17424117 -19 42 C-18.01923848 39.81214737 -17.29151474 38.24487239 -15.4375 36.6875 C-13.45230419 34.35705275 -13.69516169 32.82418334 -13.8125 29.8125 C-13.83957031 28.91144531 -13.86664063 28.01039063 -13.89453125 27.08203125 C-13.92933594 26.39496094 -13.96414063 25.70789063 -14 25 C-13.34 25 -12.68 25 -12 25 C-12.04125 24.071875 -12.0825 23.14375 -12.125 22.1875 C-12 19 -12 19 -10 16 C-9.34 16 -8.68 16 -8 16 C-8 14.02 -8 12.04 -8 10 C-7.34 10 -6.68 10 -6 10 C-5.62875 8.9171875 -5.62875 8.9171875 -5.25 7.8125 C-3.88449106 4.74010488 -2.22300052 2.50983929 0 0 Z " fill="#C09841" transform="translate(417,334)"/>
<path d="M0 0 C9.57 0 19.14 0 29 0 C29 0.99 29 1.98 29 3 C25.04 3 21.08 3 17 3 C17 13.23 17 23.46 17 34 C15.35 34 13.7 34 12 34 C12 23.77 12 13.54 12 3 C7.71 3 3.42 3 -1 3 C-0.67 2.01 -0.34 1.02 0 0 Z " fill="#5E5E5E" transform="translate(371,434)"/>
<path d="M0 0 C1.32 0.66 2.64 1.32 4 2 C3.48098944 7.51004366 2.03628225 11.64012677 -0.4375 16.5625 C-2.60885017 20.96340148 -4.55766766 25.29611213 -6 30 C-8.875 30.125 -8.875 30.125 -12 30 C-12.66 29.34 -13.32 28.68 -14 28 C-13.66325288 23.06104222 -11.22491577 18.47260335 -9.25 14 C-8.91484375 13.2059375 -8.5796875 12.411875 -8.234375 11.59375 C-6.10894055 6.76321717 -3.99565635 3.46476494 0 0 Z " fill="#77530B" transform="translate(570,367)"/>
<path d="M0 0 C0.75 1.625 0.75 1.625 1 4 C-1.21988204 8.11089267 -2.92645068 9.96322534 -7 12 C-7.33 12.825 -7.66 13.65 -8 14.5 C-9 17 -9 17 -10.9375 18.3125 C-13 19 -13 19 -16 19 C-16 19.66 -16 20.32 -16 21 C-48.46401832 26.34122122 -48.46401832 26.34122122 -62 22 C-62.72960937 21.78214844 -63.45921875 21.56429688 -64.2109375 21.33984375 C-68.39324047 19.9583249 -70.64901736 18.71207785 -73 15 C-73.99 14.67 -74.98 14.34 -76 14 C-77.38576923 12.37667033 -78.72641268 10.71275535 -80 9 C-79.67 8.34 -79.34 7.68 -79 7 C-78.5153125 7.45890625 -78.030625 7.9178125 -77.53125 8.390625 C-64.25479819 20.54368473 -50.54670507 20.93661001 -33.16601562 20.24267578 C-23.02583951 19.46542909 -14.197153 16.36851378 -7 9 C-6.34 9 -5.68 9 -5 9 C-4.5978125 7.88625 -4.5978125 7.88625 -4.1875 6.75 C-3.05770579 4.13363446 -1.79106798 2.19812889 0 0 Z " fill="#F3F0E8" transform="translate(288,377)"/>
<path d="M0 0 C20.13 0 40.26 0 61 0 C60.67 0.66 60.34 1.32 60 2 C59.01 1.67 58.02 1.34 57 1 C57 1.66 57 2.32 57 3 C28.785 3.495 28.785 3.495 0 4 C0 5.32 0 6.64 0 8 C-0.66 8 -1.32 8 -2 8 C-1.938125 9.11375 -1.938125 9.11375 -1.875 10.25 C-2.00853499 13.18776979 -2.38177481 14.57266222 -4 17 C-6.125 18.75 -6.125 18.75 -8 20 C-6.36613835 14.65281642 -4.4912584 9.66957978 -1.8671875 4.7265625 C-0.86527659 2.8345152 -0.86527659 2.8345152 0 0 Z " fill="#EEE9DA" transform="translate(578,362)"/>
<path d="M0 0 C5.94 0 11.88 0 18 0 C18.93854006 7.03905044 19.10808032 13.90272572 19 21 C18.34 21 17.68 21 17 21 C16.65820312 18.02148438 16.65820312 18.02148438 16.31640625 15.04296875 C16.02829265 12.80603607 16.02829265 12.80603607 15 10 C15.9375 7.3125 15.9375 7.3125 17 5 C16.34 4.67 15.68 4.34 15 4 C14.01 4.33 13.02 4.66 12 5 C11.67 3.68 11.34 2.36 11 1 C5.97757619 2.04491454 5.97757619 2.04491454 2.0625 5.125 C1.711875 5.74375 1.36125 6.3625 1 7 C1.33 7 1.66 7 2 7 C2 8.65 2 10.3 2 12 C1.34 11.34 0.68 10.68 0 10 C-0.99 12.97 -1.98 15.94 -3 19 C-2.34 19 -1.68 19 -1 19 C-1 19.66 -1 20.32 -1 21 C0.32 20.67 1.64 20.34 3 20 C3.25 25.625 3.25 25.625 1 29 C-1.97 28.67 -4.94 28.34 -8 28 C-8.33 28.99 -8.66 29.98 -9 31 C-8.19922597 26.4800755 -6.93244583 22.14276684 -5.625 17.75 C-5.29109253 16.6209021 -5.29109253 16.6209021 -4.95043945 15.46899414 C-3.40481347 10.27486113 -1.769669 5.12272604 0 0 Z " fill="#D7AE50" transform="translate(429,275)"/>
<path d="M0 0 C10.04995766 -0.48433531 10.04995766 -0.48433531 14.1875 1.625 C16 4 16 4 16.5 7 C15.93828472 10.37029165 15.44024496 11.63553904 13 14 C8.61723375 14.54579904 4.43192924 14.17552195 0 14 C0 9.38 0 4.76 0 0 Z " fill="#F2F2F2" transform="translate(620,436)"/>
<path d="M0 0 C9.86328125 -0.390625 9.86328125 -0.390625 13 0 C15.24337542 2.20174577 15.90915912 3.39439414 16.375 6.5 C15.90915912 9.60560586 15.24337542 10.79825423 13 13 C8.61723375 13.54579904 4.43192924 13.17552195 0 13 C0 8.71 0 4.42 0 0 Z " fill="#F9F9F9" transform="translate(348,437)"/>
<path d="M0 0 C0.33 0 0.66 0 1 0 C1 2.97 1 5.94 1 9 C-9.47471585 9.04635039 -19.94940729 9.08188299 -30.42420483 9.10362434 C-35.28812979 9.11405935 -40.15198457 9.12821345 -45.01586914 9.15087891 C-49.71021019 9.17261728 -54.40448373 9.18457076 -59.09887123 9.18975449 C-60.88941828 9.19344844 -62.67996166 9.2006618 -64.47047997 9.21146011 C-66.97934311 9.22598822 -69.4879277 9.22797739 -71.99682617 9.22705078 C-73.10597633 9.23783661 -73.10597633 9.23783661 -74.23753357 9.24884033 C-78.26998918 9.23273599 -81.36980169 8.78951916 -85 7 C-84.67 6.01 -84.34 5.02 -84 4 C-83.67 4.33 -83.34 4.66 -83 5 C-80.41450228 5.12505085 -77.85438589 5.186048 -75.26733398 5.20532227 C-74.4576416 5.21522186 -73.64794922 5.22512146 -72.8137207 5.23532104 C-70.12454195 5.26702987 -67.4353455 5.29173035 -64.74609375 5.31640625 C-62.88663766 5.33696769 -61.02718632 5.35796394 -59.16773987 5.37937927 C-54.26376185 5.43468366 -49.35974107 5.4840559 -44.45568848 5.53222656 C-39.45544612 5.58238066 -34.45526618 5.63809845 -29.45507812 5.69335938 C-19.63677201 5.80104321 -9.81841181 5.90246532 0 6 C0 4.02 0 2.04 0 0 Z " fill="#EFEADA" transform="translate(174,391)"/>
<path d="M0 0 C1.32 0 2.64 0 4 0 C4 11.22 4 22.44 4 34 C2.35 34 0.7 34 -1 34 C-1.02465288 29.31860746 -1.04283739 24.63725241 -1.05493164 19.95581055 C-1.05997157 18.36205386 -1.0668035 16.76830181 -1.07543945 15.17456055 C-1.08751999 12.88849747 -1.09323155 10.60249533 -1.09765625 8.31640625 C-1.10281754 7.59973282 -1.10797882 6.88305939 -1.11329651 6.14466858 C-1.11349263 4.42936328 -1.06192007 2.71418734 -1 1 C-0.67 0.67 -0.34 0.34 0 0 Z " fill="#3B3B3B" transform="translate(502,434)"/>
<path d="M0 0 C1.77503906 0.03480469 1.77503906 0.03480469 3.5859375 0.0703125 C5.36871094 0.09738281 5.36871094 0.09738281 7.1875 0.125 C8.10273438 0.14820313 9.01796875 0.17140625 9.9609375 0.1953125 C9.9609375 0.5253125 9.9609375 0.8553125 9.9609375 1.1953125 C7.6509375 1.5253125 5.3409375 1.8553125 2.9609375 2.1953125 C2.6309375 3.1853125 2.3009375 4.1753125 1.9609375 5.1953125 C0.3109375 5.1953125 -1.3390625 5.1953125 -3.0390625 5.1953125 C-3.3690625 43.1453125 -3.6990625 81.0953125 -4.0390625 120.1953125 C-4.3690625 120.1953125 -4.6990625 120.1953125 -5.0390625 120.1953125 C-5.08573995 104.84458167 -5.12103043 89.49385412 -5.14268684 74.14306831 C-5.15300862 67.01576493 -5.16708611 59.88850559 -5.18994141 52.76123047 C-5.21197053 45.88833064 -5.22361775 39.01547669 -5.22881699 32.14254379 C-5.23252413 29.51498569 -5.23976279 26.8874302 -5.25052261 24.25989151 C-5.2649535 20.59133653 -5.26704397 16.92297314 -5.26611328 13.25439453 C-5.27330383 12.15819794 -5.28049438 11.06200134 -5.28790283 9.93258667 C-5.2851535 8.93696716 -5.28240417 7.94134766 -5.27957153 6.91555786 C-5.28141512 6.04722887 -5.28325871 5.17889988 -5.28515816 4.28425789 C-4.85740155 0.65331126 -3.48279018 0.2238297 0 0 Z " fill="#85621A" transform="translate(502.0390625,274.8046875)"/>
<path d="M0 0 C3.35319618 1.05709264 5.48225793 2.21068157 7.43261719 5.18408203 C8.83802324 7.94320222 10.12549919 10.72941734 11.375 13.5625 C12.04982422 15.01946289 12.04982422 15.01946289 12.73828125 16.50585938 C16 23.63901026 16 23.63901026 16 26 C14.35 26 12.7 26 11 26 C10.67 24.68 10.34 23.36 10 22 C9.34 22 8.68 22 8 22 C7.34 20.35 6.68 18.7 6 17 C-0.93 16.505 -0.93 16.505 -8 16 C-8 15.67 -8 15.34 -8 15 C-3.71 15 0.58 15 5 15 C4.175 13.2675 3.35 11.535 2.5 9.75 C0.7289811 6.03086031 0 4.19565574 0 0 Z " fill="#313131" transform="translate(594,442)"/>
<path d="M0 0 C6.18364505 0.02529098 10.81184465 0.89628054 16.5 3.25 C14.75 4.375 14.75 4.375 12.5 5.25 C11.18 4.59 9.86 3.93 8.5 3.25 C1.57 2.755 1.57 2.755 -5.5 2.25 C-5.5 12.48 -5.5 22.71 -5.5 33.25 C-4.84 33.25 -4.18 33.25 -3.5 33.25 C-3.5 28.3 -3.5 23.35 -3.5 18.25 C-3.17 18.25 -2.84 18.25 -2.5 18.25 C-2.5 23.53 -2.5 28.81 -2.5 34.25 C-4.15 34.25 -5.8 34.25 -7.5 34.25 C-7.52465288 29.56860746 -7.54283739 24.88725241 -7.55493164 20.20581055 C-7.55997157 18.61205386 -7.5668035 17.01830181 -7.57543945 15.42456055 C-7.58751999 13.13849747 -7.59323155 10.85249533 -7.59765625 8.56640625 C-7.60281754 7.84973282 -7.60797882 7.13305939 -7.61329651 6.39466858 C-7.61349263 4.67936328 -7.56192007 2.96418734 -7.5 1.25 C-5.61520858 -0.63479142 -2.51579362 0.03225376 0 0 Z " fill="#434343" transform="translate(622.5,433.75)"/>
<path d="M0 0 C3 1 3 1 4.38671875 3.3984375 C4.81597656 4.38070313 5.24523437 5.36296875 5.6875 6.375 C6.34298828 7.84066406 6.34298828 7.84066406 7.01171875 9.3359375 C8 12 8 12 8 15 C3.38 15 -1.24 15 -6 15 C-4.72936448 11.18809343 -3.51749676 7.73849288 -1.875 4.125 C-1.52179687 3.34382813 -1.16859375 2.56265625 -0.8046875 1.7578125 C-0.53914062 1.17773438 -0.27359375 0.59765625 0 0 Z " fill="#E8E8E8" transform="translate(591,442)"/>
<path d="M0 0 C0.33 0 0.66 0 1 0 C1.50469616 4.22862004 2.00293584 8.45797659 2.5 12.6875 C2.64308594 13.88568359 2.78617187 15.08386719 2.93359375 16.31835938 C3.06894531 17.47529297 3.20429688 18.63222656 3.34375 19.82421875 C3.53227539 21.41882935 3.53227539 21.41882935 3.72460938 23.0456543 C3.97394201 25.72045416 4.05207267 28.31608769 4 31 C2.35 31 0.7 31 -1 31 C-1.9802248 25.31160882 -2.11948801 19.82705667 -2.0625 14.0625 C-2.05573242 12.75055664 -2.05573242 12.75055664 -2.04882812 11.41210938 C-2.03714834 9.27470953 -2.01921689 7.13734537 -2 5 C-1.67 5 -1.34 5 -1 5 C-0.67 3.35 -0.34 1.7 0 0 Z " fill="#2E2E2E" transform="translate(297,437)"/>
<path d="M0 0 C2.26171875 -0.25 2.26171875 -0.25 5 0 C7.01953125 1.75 7.01953125 1.75 8.8125 4 C9.41707031 4.7425 10.02164063 5.485 10.64453125 6.25 C11.09183594 6.8275 11.53914062 7.405 12 8 C10 10 10 10 7 11 C6.67 10.01 6.34 9.02 6 8 C5.34 8 4.68 8 4 8 C4 16.58 4 25.16 4 34 C3.34 34 2.68 34 2 34 C1.97494385 33.07662842 1.9498877 32.15325684 1.92407227 31.2019043 C1.82890955 27.77453584 1.72967786 24.34733539 1.62768555 20.92016602 C1.5843867 19.43713985 1.54270801 17.95406546 1.50268555 16.47094727 C1.44486042 14.33855661 1.38120168 12.20640758 1.31640625 10.07421875 C1.26141968 8.14968872 1.26141968 8.14968872 1.20532227 6.1862793 C1.13438766 2.97888449 1.13438766 2.97888449 0 0 Z " fill="#393939" transform="translate(512,434)"/>
<path d="M0 0 C0.474375 0.433125 0.94875 0.86625 1.4375 1.3125 C1.1875 3.1875 1.1875 3.1875 0.4375 5.3125 C-1.625 6.5625 -1.625 6.5625 -3.5625 7.3125 C-4.76692708 5.78255208 -5.97135417 4.25260417 -7.17578125 2.72265625 C-9.92876768 -0.07685953 -13.53611247 0.05584956 -17.25 -0.25 C-18.24386719 -0.33378906 -19.23773438 -0.41757812 -20.26171875 -0.50390625 C-21.40060547 -0.59478516 -21.40060547 -0.59478516 -22.5625 -0.6875 C-22.8925 -1.6775 -23.2225 -2.6675 -23.5625 -3.6875 C-15.13049741 -5.73162184 -7.28351651 -4.79646209 0 0 Z " fill="#343434" transform="translate(457.5625,423.6875)"/>
<path d="M0 0 C0.99 0.66 1.98 1.32 3 2 C2.75 3.875 2.75 3.875 2 6 C-0.0625 7.25 -0.0625 7.25 -2 8 C-2.5775 7.21625 -3.155 6.4325 -3.75 5.625 C-6.58828036 2.31367291 -8.48617373 1.22411395 -12.796875 0.5859375 C-13.77140625 0.51632812 -14.7459375 0.44671875 -15.75 0.375 C-16.73484375 0.30023438 -17.7196875 0.22546875 -18.734375 0.1484375 C-19.48203125 0.09945313 -20.2296875 0.05046875 -21 0 C-21.33 -0.99 -21.66 -1.98 -22 -3 C-14.06217686 -5.64594105 -7.37555325 -3.26478447 0 0 Z " fill="#343434" transform="translate(256,423)"/>
<path d="M0 0 C7.26 0 14.52 0 22 0 C22 0.99 22 1.98 22 3 C16.39 3 10.78 3 5 3 C5 7.29 5 11.58 5 16 C10.28 16 15.56 16 21 16 C21 16.33 21 16.66 21 17 C15.39 17 9.78 17 4 17 C3.54427083 13.90755208 3.08854167 10.81510417 2.6328125 7.72265625 C2.42398438 6.82417969 2.21515625 5.92570312 2 5 C1.34 4.67 0.68 4.34 0 4 C0 2.68 0 1.36 0 0 Z " fill="#676767" transform="translate(650,434)"/>
<path d="M0 0 C0.47308594 0.37511719 0.94617188 0.75023437 1.43359375 1.13671875 C15.91022553 12.33988214 29.08749104 14.46169662 47 15 C43.28022236 17.40972742 39.59619281 17.30717557 35.3125 17.25 C34.23838867 17.24093628 34.23838867 17.24093628 33.14257812 17.23168945 C27.84327315 17.13259773 23.03894257 16.61607521 18 15 C16.90558594 14.67322266 16.90558594 14.67322266 15.7890625 14.33984375 C11.60675953 12.9583249 9.35098264 11.71207785 7 8 C6.01 7.67 5.02 7.34 4 7 C0 2.54285714 0 2.54285714 0 0 Z " fill="#F0ECDC" transform="translate(208,384)"/>
<path d="M0 0 C0.99 0 1.98 0 3 0 C3 4.95 3 9.9 3 15 C6.63 15 10.26 15 14 15 C14 15.33 14 15.66 14 16 C10.37 16 6.74 16 3 16 C3 21.28 3 26.56 3 32 C2.01 32 1.02 32 0 32 C0 21.44 0 10.88 0 0 Z " fill="#282828" transform="translate(344,436)"/>
<path d="M0 0 C0.66 0 1.32 0 2 0 C2.84324672 1.578076 3.67423918 3.1627042 4.5 4.75 C4.9640625 5.63171875 5.428125 6.5134375 5.90625 7.421875 C7 10 7 10 7 14 C3.04 14 -0.92 14 -5 14 C-4.23539233 10.17696167 -3.52385218 7.61606762 -1.9375 4.1875 C-1.39416016 3.00220703 -1.39416016 3.00220703 -0.83984375 1.79296875 C-0.56269531 1.20128906 -0.28554688 0.60960937 0 0 Z " fill="#F4F4F4" transform="translate(319,442)"/>
<path d="M0 0 C3.32287327 1.05861449 4.07902495 2.13106576 5.921875 5.1875 C6.54368796 6.45229401 7.1527305 7.72343257 7.75 9 C8.06582031 9.64195312 8.38164062 10.28390625 8.70703125 10.9453125 C11 15.69007035 11 15.69007035 11 18 C9.35 18 7.7 18 6 18 C5.73703125 17.04287109 5.73703125 17.04287109 5.46875 16.06640625 C4.29741303 13.03887802 3.37000847 11.25512476 1 9 C-4.37385107 7.86809556 -9.52689786 7.83921557 -15 8 C-15 7.67 -15 7.34 -15 7 C-10.05 7 -5.1 7 0 7 C-0.33 5.35 -0.66 3.7 -1 2 C-0.67 1.34 -0.34 0.68 0 0 Z " fill="#303030" transform="translate(327,450)"/>
<path d="M0 0 C3.16012613 0.33858494 3.95432113 0.94601588 6.0625 3.4375 C6.701875 4.283125 7.34125 5.12875 8 6 C11.16126756 8.10751171 13.22074339 8.33817631 16.92578125 8.71484375 C19.75732059 9.10411375 22.3315947 9.99934801 25 11 C25 11.33 25 11.66 25 12 C6.81907633 12.8623363 6.81907633 12.8623363 -0.734375 6.55078125 C-2 5 -2 5 -2 2 C-1.34 2 -0.68 2 0 2 C0 1.34 0 0.68 0 0 Z " fill="#343434" transform="translate(427,457)"/>
<path d="M0 0 C1.26714844 -0.01417969 2.53429687 -0.02835937 3.83984375 -0.04296875 C7.0625 0.1875 7.0625 0.1875 9.0625 2.1875 C8.0625 3.1875 8.0625 3.1875 5.55859375 3.28515625 C2.7265625 3.25260417 -0.10546875 3.22005208 -2.9375 3.1875 C-2.9375 7.4775 -2.9375 11.7675 -2.9375 16.1875 C0.3625 16.1875 3.6625 16.1875 7.0625 16.1875 C7.0625 16.5175 7.0625 16.8475 7.0625 17.1875 C3.4325 17.1875 -0.1975 17.1875 -3.9375 17.1875 C-3.9375 12.2375 -3.9375 7.2875 -3.9375 2.1875 C-4.9275 2.1875 -5.9175 2.1875 -6.9375 2.1875 C-6.9375 12.7475 -6.9375 23.3075 -6.9375 34.1875 C-7.2675 34.1875 -7.5975 34.1875 -7.9375 34.1875 C-7.96215288 29.50610746 -7.98033739 24.82475241 -7.99243164 20.14331055 C-7.99747157 18.54955386 -8.0043035 16.95580181 -8.01293945 15.36206055 C-8.02501999 13.07599747 -8.03073155 10.78999533 -8.03515625 8.50390625 C-8.04031754 7.78723282 -8.04547882 7.07055939 -8.05079651 6.33216858 C-8.05099263 4.61686328 -7.99942007 2.90168734 -7.9375 1.1875 C-6.00408053 -0.74591947 -2.56270879 0.01300867 0 0 Z " fill="#585858" transform="translate(350.9375,433.8125)"/>
<path d="M0 0 C1.66611905 -0.042721 3.33382885 -0.04063832 5 0 C6 1 6 1 6.09765625 2.84765625 C6.04882812 5.92382812 6.04882812 5.92382812 6 9 C5.236875 9.020625 4.47375 9.04125 3.6875 9.0625 C0.68903336 9.77016894 0.68903336 9.77016894 -0.625 13 C-1.10704825 14.32494404 -1.56304427 15.6595087 -2 17 C-2.27972656 17.81339844 -2.55945313 18.62679688 -2.84765625 19.46484375 C-3.5855155 21.63723866 -4.3013138 23.81474741 -5 26 C-5.66 25.67 -6.32 25.34 -7 25 C-5.83627389 18.4420611 -4.23351443 12.2705619 -2 6 C-1.608125 4.824375 -1.21625 3.64875 -0.8125 2.4375 C-0.4103125 1.2309375 -0.4103125 1.2309375 0 0 Z " fill="#464646" transform="translate(293,434)"/>
<path d="M0 0 C5.61 0 11.22 0 17 0 C17.93854006 7.03905044 18.10808032 13.90272572 18 21 C17.34 21 16.68 21 16 21 C15.65820312 18.02148438 15.65820312 18.02148438 15.31640625 15.04296875 C15.02829265 12.80603607 15.02829265 12.80603607 14 10 C14.9375 7.3125 14.9375 7.3125 16 5 C15.34 4.67 14.68 4.34 14 4 C13.01 4.33 12.02 4.66 11 5 C10.67 3.68 10.34 2.36 10 1 C5.69159287 2.07710178 2.36423277 3.03947516 -1 6 C-0.67 4.02 -0.34 2.04 0 0 Z " fill="#DDB75C" transform="translate(430,275)"/>
<path d="M0 0 C0.99 0 1.98 0 3 0 C3 4.95 3 9.9 3 15 C6.3 15 9.6 15 13 15 C13 15.33 13 15.66 13 16 C9.37 16 5.74 16 2 16 C2 20.95 2 25.9 2 31 C1.34 31 0.68 31 0 31 C0 20.77 0 10.54 0 0 Z " fill="#2B2B2B" transform="translate(617,436)"/>
<path d="M0 0 C0.66 0 1.32 0 2 0 C2.83930594 9.02253886 3.12224626 17.9401941 3 27 C0.525 26.01 0.525 26.01 -2 25 C-2 21.7 -2 18.4 -2 15 C-1.34 15 -0.68 15 0 15 C-0.08378906 14.25234375 -0.16757812 13.5046875 -0.25390625 12.734375 C-0.35574219 11.74953125 -0.45757812 10.7646875 -0.5625 9.75 C-0.66691406 8.77546875 -0.77132813 7.8009375 -0.87890625 6.796875 C-0.98974468 4.2368648 -0.77738092 2.41851841 0 0 Z " fill="#734F04" transform="translate(450,342)"/>
<path d="M0 0 C0.99 0.33 1.98 0.66 3 1 C3 9.91 3 18.82 3 28 C2.01 28 1.02 28 0 28 C0 18.76 0 9.52 0 0 Z " fill="#282828" transform="translate(384,440)"/>
<path d="M0 0 C3.05806198 0.24795097 4.79080517 0.85299823 7.3125 2.625 C9.67149179 5.94506252 9.56921855 8.01547016 9 12 C7 14.4375 7 14.4375 5 16 C3.68 15.34 2.36 14.68 1 14 C1.66 13.01 2.32 12.02 3 11 C2.76957241 6.15877396 2.76957241 6.15877396 0.4375 2.0625 C-0.036875 1.711875 -0.51125 1.36125 -1 1 C-0.67 0.67 -0.34 0.34 0 0 Z " fill="#373737" transform="translate(360,435)"/>
<path d="M0 0 C1.65 0 3.3 0 5 0 C3.68 0.33 2.36 0.66 1 1 C1.08378906 1.95777344 1.16757812 2.91554688 1.25390625 3.90234375 C2.05739144 14.04296963 1.81516619 23.86685722 1 34 C0.01 34 -0.98 34 -2 34 C-2.02763357 32.64595503 -2.04667422 31.29173445 -2.0625 29.9375 C-2.07410156 29.18339844 -2.08570313 28.42929687 -2.09765625 27.65234375 C-2 25 -2 25 -1.53125 21.78125 C-0.91203728 17.3739124 -0.65584075 13.00448151 -0.4375 8.5625 C-0.39431641 7.73556641 -0.35113281 6.90863281 -0.30664062 6.05664062 C-0.20161967 4.03790451 -0.10041441 2.01897049 0 0 Z " fill="#4E4E4E" transform="translate(269,434)"/>
<path d="M0 0 C0.66 0.66 1.32 1.32 2 2 C4.89223503 2.46396693 4.89223503 2.46396693 8.125 2.625 C9.76855469 2.73714844 9.76855469 2.73714844 11.4453125 2.8515625 C12.70988281 2.92503906 12.70988281 2.92503906 14 3 C14.33 2.34 14.66 1.68 15 1 C15.33 2.65 15.66 4.3 16 6 C10.39 6 4.78 6 -1 6 C-1.33 7.98 -1.66 9.96 -2 12 C-2.99 13.485 -2.99 13.485 -4 15 C-4.66 15 -5.32 15 -6 15 C-5.54979057 9.14727744 -2.96160773 4.91779881 0 0 Z " fill="#5F5F5F" transform="translate(312,453)"/>
<path d="M0 0 C0.66 0.99 1.32 1.98 2 3 C1.67 3.99 1.34 4.98 1 6 C1.66 6.33 2.32 6.66 3 7 C2.01 8.98 1.02 10.96 0 13 C-0.33 13 -0.66 13 -1 13 C-1.33 14.65 -1.66 16.3 -2 18 C-2.66 18 -3.32 18 -4 18 C-4.66 20.97 -5.32 23.94 -6 27 C-6.66 27 -7.32 27 -8 27 C-6.32571967 17.56493792 -3.40943159 8.9294637 0 0 Z " fill="#D0AC53" transform="translate(411,332)"/>
<path d="M0 0 C1.65 0 3.3 0 5 0 C6.54586876 3.09173752 6.29359521 5.59429552 6 9 C4.3125 11.4375 4.3125 11.4375 2 13 C-0.75 13.25 -0.75 13.25 -3 13 C-2.505 12.34 -2.01 11.68 -1.5 11 C0.48316621 7.03366759 0.22357461 4.39696738 0 0 Z " fill="#333333" transform="translate(635,438)"/>
<path d="M0 0 C1.32 0.66 2.64 1.32 4 2 C3.38461538 8.52307692 3.38461538 8.52307692 1.4375 10.9375 C0.963125 11.288125 0.48875 11.63875 0 12 C0 11.01 0 10.02 0 9 C-1.98 9.99 -1.98 9.99 -4 11 C-4.49230769 4.6 -4.49230769 4.6 -2 1.5625 C-1.34 1.046875 -0.68 0.53125 0 0 Z " fill="#734F06" transform="translate(570,367)"/>
<path d="M0 0 C0.66 0 1.32 0 2 0 C2 4.62 2 9.24 2 14 C8.27 14 14.54 14 21 14 C21 14.33 21 14.66 21 15 C13.74 15 6.48 15 -1 15 C-1.125 2.25 -1.125 2.25 0 0 Z " fill="#3C3C3C" transform="translate(652,452)"/>
<path d="M0 0 C0.66 0 1.32 0 2 0 C1.77069943 3.21020798 0.93806165 4.05574452 -1.5 6.25 C-5.87988115 8.43994058 -9.20584946 8.38353204 -14 8 C-14 5 -14 5 -13 4 C-10.48393551 3.75650989 -7.96913976 3.61636634 -5.4453125 3.4765625 C-2.62847509 2.92759419 -1.86554407 2.08896252 0 0 Z " fill="#4C4C4C" transform="translate(573,461)"/>
<path d="M0 0 C1.1875 1.5625 1.1875 1.5625 2 4 C0.625 7.75 0.625 7.75 -1 11 C-1.99 9.68 -2.98 8.36 -4 7 C-4.928125 7.4640625 -4.928125 7.4640625 -5.875 7.9375 C-7.25 8.625 -8.625 9.3125 -10 10 C-8.125 4.25 -8.125 4.25 -7 2 C-4.69 2 -2.38 2 0 2 C0 1.34 0 0.68 0 0 Z " fill="#7D5C17" transform="translate(576,361)"/>
<path d="M0 0 C1.60461448 4.01153621 0.45438973 7.07314774 -1 11 C-4.8503105 13.56687367 -6.58569763 12.83288724 -11 12 C-13.125 6.375 -13.125 6.375 -12 3 C-11.34 3.33 -10.68 3.66 -10 4 C-9.375 6.5625 -9.375 6.5625 -9 9 C-6.03 9.495 -6.03 9.495 -3 10 C-2.87625 9.0925 -2.7525 8.185 -2.625 7.25 C-2.07890323 4.41029677 -1.42736197 2.47409409 0 0 Z " fill="#F3EFE3" transform="translate(567,387)"/>
<path d="M0 0 C0.66 0 1.32 0 2 0 C1.34 2.97 0.68 5.94 0 9 C-2.875 9.125 -2.875 9.125 -6 9 C-6.66 8.34 -7.32 7.68 -8 7 C-8 5.68 -8 4.36 -8 3 C-6.68 3.33 -5.36 3.66 -4 4 C-3.67 3.34 -3.34 2.68 -3 2 C-2.67 2.33 -2.34 2.66 -2 3 C-1.34 2.01 -0.68 1.02 0 0 Z " fill="#82601B" transform="translate(564,388)"/>
<path d="M0 0 C0.99 0 1.98 0 3 0 C3.67154933 1.28913487 4.33708859 2.58140204 5 3.875 C5.37125 4.59429687 5.7425 5.31359375 6.125 6.0546875 C7 8 7 8 7 10 C2.545 9.01 2.545 9.01 -2 8 C-1.125 2.25 -1.125 2.25 0 0 Z " fill="#414141" transform="translate(592,434)"/>
<path d="M0 0 C9.57 0.33 19.14 0.66 29 1 C24.79139449 3.10430276 21.86269886 3.30920333 17.3125 3.25 C16.60222656 3.24613281 15.89195312 3.24226563 15.16015625 3.23828125 C9.87310012 3.15145004 5.10049031 2.45728295 0 1 C0 0.67 0 0.34 0 0 Z " fill="#F1EFEC" transform="translate(226,398)"/>
<path d="M0 0 C-1.98 0.66 -3.96 1.32 -6 2 C-6 2.66 -6 3.32 -6 4 C-15.9 4 -25.8 4 -36 4 C-36 3.67 -36 3.34 -36 3 C-35.38592285 2.98541748 -34.7718457 2.97083496 -34.13916016 2.95581055 C-31.30054015 2.88038055 -28.46297742 2.78404224 -25.625 2.6875 C-24.65949219 2.66494141 -23.69398438 2.64238281 -22.69921875 2.61914062 C-16.78060075 2.40066815 -11.74289984 1.57086042 -6.16943359 -0.46557617 C-3.72486104 -1.06777844 -2.35576414 -0.80546101 0 0 Z " fill="#EBDFBB" transform="translate(272,395)"/>
<path d="M0 0 C2.70058773 2.52054855 4.40337783 4.69271121 6 8 C6.66 8.33 7.32 8.66 8 9 C8 9.66 8 10.32 8 11 C1.58374793 10.63681592 1.58374793 10.63681592 -1.0625 7.75 C-2 5 -2 5 -1.1875 2.1875 C-0.795625 1.465625 -0.40375 0.74375 0 0 Z " fill="#343434" transform="translate(364,457)"/>
<path d="M0 0 C0.66 0 1.32 0 2 0 C2 0.66 2 1.32 2 2 C2.66 2 3.32 2 4 2 C4.75 3.6875 4.75 3.6875 5 6 C3.1875 8.75 3.1875 8.75 1 11 C0.34 11 -0.32 11 -1 11 C-1.33 11.66 -1.66 12.32 -2 13 C-2.05391993 11.20866022 -2.09275571 9.41686101 -2.125 7.625 C-2.14820313 6.62726563 -2.17140625 5.62953125 -2.1953125 4.6015625 C-2 2 -2 2 0 0 Z " fill="#E0B859" transform="translate(386,346)"/>
<path d="M0 0 C0.33 0 0.66 0 1 0 C1.33 4.95 1.66 9.9 2 15 C0.35 15 -1.3 15 -3 15 C-2.88623383 12.87436897 -2.75864369 10.7494739 -2.625 8.625 C-2.55539062 7.44164062 -2.48578125 6.25828125 -2.4140625 5.0390625 C-2 2 -2 2 0 0 Z " fill="#373737" transform="translate(299,453)"/>
<path d="M0 0 C0.33 0 0.66 0 1 0 C1.66 4.62 2.32 9.24 3 14 C2.01 13.34 1.02 12.68 0 12 C-0.99 12.33 -1.98 12.66 -3 13 C-3 9.7 -3 6.4 -3 3 C-2.01 2.67 -1.02 2.34 0 2 C0 1.34 0 0.68 0 0 Z " fill="#2F2F2F" transform="translate(550,446)"/>
<path d="M0 0 C2.375 0.6875 2.375 0.6875 5 2 C6.3125 4.625 6.3125 4.625 7 7 C7.66 7 8.32 7 9 7 C9 7.66 9 8.32 9 9 C5.6875 8.8125 5.6875 8.8125 2 8 C0 5.625 0 5.625 -1 3 C-0.67 2.01 -0.34 1.02 0 0 Z " fill="#383838" transform="translate(635,459)"/>
<path d="M0 0 C-0.639375 0.309375 -1.27875 0.61875 -1.9375 0.9375 C-3.93610821 1.8345163 -3.93610821 1.8345163 -5 3 C-6.85287502 3.07226502 -8.70833878 3.0838122 -10.5625 3.0625 C-11.57441406 3.05347656 -12.58632813 3.04445313 -13.62890625 3.03515625 C-14.41136719 3.02355469 -15.19382812 3.01195312 -16 3 C-16.33 2.01 -16.66 1.02 -17 0 C-11.24153561 -1.39599137 -5.75846439 -1.39599137 0 0 Z " fill="#535353" transform="translate(451,420)"/>
<path d="M0 0 C5.61 0 11.22 0 17 0 C17.66 1.98 18.32 3.96 19 6 C18.67 6.66 18.34 7.32 18 8 C16 4.125 16 4.125 16 3 C13.89807303 2.75112705 11.79326036 2.5265281 9.6875 2.3125 C7.92986328 2.12107422 7.92986328 2.12107422 6.13671875 1.92578125 C3.01025381 1.69002215 3.01025381 1.69002215 1.08203125 3.48046875 C0.72496094 3.98191406 0.36789062 4.48335938 0 5 C0 3.35 0 1.7 0 0 Z " fill="#D3BA7D" transform="translate(344,275)"/>
<path d="M0 0 C0.495 0.33 0.99 0.66 1.5 1 C-1.92094242 3.28062828 -3.18187222 3.21925007 -7.1875 3.125 C-8.67830078 3.09792969 -8.67830078 3.09792969 -10.19921875 3.0703125 C-10.95847656 3.04710937 -11.71773437 3.02390625 -12.5 3 C-12.83 2.01 -13.16 1.02 -13.5 0 C-8.97258828 -1.50913724 -4.43573202 -1.77429281 0 0 Z " fill="#525252" transform="translate(247.5,420)"/>
<path d="M0 0 C0.99 0.495 0.99 0.495 2 1 C4.37402501 1.07116382 6.75000677 1.08409085 9.125 1.0625 C10.40632813 1.05347656 11.68765625 1.04445313 13.0078125 1.03515625 C13.99523437 1.02355469 14.98265625 1.01195312 16 1 C16 1.99 16 2.98 16 4 C13.27457733 5.36271133 11.03912726 5.16923601 8 5.1875 C6.9275 5.20167969 5.855 5.21585937 4.75 5.23046875 C2 5 2 5 0 3 C0 2.01 0 1.02 0 0 Z " fill="#F3F0F2" transform="translate(497,395)"/>
<path d="M0 0 C2.375 -0.125 2.375 -0.125 5 0 C7 2 7 2 8 4 C7.03523618 6.01723344 6.03161608 8.01612292 5 10 C4.63678342 11.32550466 4.29629667 12.65795038 4 14 C3.5196682 12.41701974 3.04078388 10.83360022 2.5625 9.25 C2.29566406 8.36828125 2.02882813 7.4865625 1.75390625 6.578125 C1.11531506 4.39434165 0.53224167 2.21164502 0 0 Z " fill="#EED288" transform="translate(366,336)"/>
<path d="M0 0 C0.33 0 0.66 0 1 0 C1.48377997 6.28913963 1.48377997 6.28913963 -0.53125 9.25 C-3.94631005 11.67080206 -6.78688922 11.22197728 -10.75 10.75 C-11.44738281 10.68425781 -12.14476562 10.61851562 -12.86328125 10.55078125 C-14.57747263 10.38640673 -16.28911023 10.19577346 -18 10 C-18 9.34 -18 8.68 -18 8 C-10.08 7.505 -10.08 7.505 -2 7 C-1.34 4.69 -0.68 2.38 0 0 Z " fill="#F1EBDB" transform="translate(456,389)"/>
<path d="M0 0 C0.66 0 1.32 0 2 0 C0.44879203 4.03498739 -2.16561986 6.03315791 -5.5 8.6875 C-6.96953125 9.86892578 -6.96953125 9.86892578 -8.46875 11.07421875 C-11 13 -11 13 -13 14 C-13.66 13.34 -14.32 12.68 -15 12 C-14.00097656 11.21753906 -13.00195312 10.43507813 -11.97265625 9.62890625 C-10.66924354 8.60680564 -9.36585961 7.58466832 -8.0625 6.5625 C-7.40314453 6.04623047 -6.74378906 5.52996094 -6.06445312 4.99804688 C-5.43603516 4.50498047 -4.80761719 4.01191406 -4.16015625 3.50390625 C-3.57886963 3.04830322 -2.99758301 2.5927002 -2.39868164 2.12329102 C-1.02763998 1.06382373 -1.02763998 1.06382373 0 0 Z " fill="#3B3B3B" transform="translate(491,434)"/>
<path d="M0 0 C1.65 0 3.3 0 5 0 C4.67 2.31 4.34 4.62 4 7 C5.32 7.33 6.64 7.66 8 8 C7.34 10.64 6.68 13.28 6 16 C4.08614468 13.12921701 3.03567048 10.66588344 1.875 7.4375 C1.52179688 6.46683594 1.16859375 5.49617188 0.8046875 4.49609375 C0 2 0 2 0 0 Z " fill="#DEB751" transform="translate(376,360)"/>
<path d="M0 0 C2.8670615 2.8670615 4 4.91591468 4 9 C9.28 9 14.56 9 20 9 C20.33 7.35 20.66 5.7 21 4 C21.33 4 21.66 4 22 4 C22.042721 5.66611905 22.04063832 7.33382885 22 9 C21 10 21 10 19.23413086 10.11352539 C18.48526611 10.10828857 17.73640137 10.10305176 16.96484375 10.09765625 C16.15595703 10.09443359 15.34707031 10.09121094 14.51367188 10.08789062 C13.66353516 10.07951172 12.81339844 10.07113281 11.9375 10.0625 C11.08349609 10.05798828 10.22949219 10.05347656 9.34960938 10.04882812 C7.23304337 10.03700373 5.11651315 10.01906769 3 10 C3 9.34 3 8.68 3 8 C2.01 8 1.02 8 0 8 C0 5.36 0 2.72 0 0 Z " fill="#EBE1C3" transform="translate(650,388)"/>
<path d="M0 0 C0.66 0.66 1.32 1.32 2 2 C1.6875 3.8125 1.6875 3.8125 1 6 C0.65939189 7.66519519 0.32441604 9.33157466 0 11 C-0.66 11 -1.32 11 -2 11 C-2.99 13.31 -3.98 15.62 -5 18 C-5.66 18 -6.32 18 -7 18 C-6.40206779 14.20856623 -5.28345387 11.26563613 -3.5 7.875 C-2.11780882 5.23115758 -0.94548313 2.8364494 0 0 Z " fill="#7A5811" transform="translate(597,301)"/>
<path d="M0 0 C0.66 0 1.32 0 2 0 C2.02687279 1.81242052 2.04633715 3.62495233 2.0625 5.4375 C2.07410156 6.44683594 2.08570313 7.45617187 2.09765625 8.49609375 C2 11 2 11 1 12 C-0.99958364 12.04080783 -3.00045254 12.04254356 -5 12 C-4.67 11.01 -4.34 10.02 -4 9 C-3.34 9 -2.68 9 -2 9 C-1.34 6.03 -0.68 3.06 0 0 Z " fill="#82601C" transform="translate(454,384)"/>
<path d="M0 0 C1.14889133 3.93905597 1.52582695 7.93565958 2 12 C1.34 11.34 0.68 10.68 0 10 C-0.99 12.97 -1.98 15.94 -3 19 C-3.66 19 -4.32 19 -5 19 C-4.39816529 13.34275371 -2.90692814 8.34768978 -1 3 C-0.67 2.01 -0.34 1.02 0 0 Z " fill="#E5C677" transform="translate(429,275)"/>
<path d="M0 0 C0.33 0 0.66 0 1 0 C1 3.63 1 7.26 1 11 C-1.95664519 12.4783226 -4.74229737 12.06032783 -8 12 C-9.28317892 8.15046324 -9.06643637 5.05261865 -9 1 C-8.67 1 -8.34 1 -8 1 C-8 3.31 -8 5.62 -8 8 C-7.34 8 -6.68 8 -6 8 C-6 8.66 -6 9.32 -6 10 C-4.02 10 -2.04 10 0 10 C0 6.7 0 3.4 0 0 Z " fill="#EFE7C9" transform="translate(344,387)"/>
<path d="M0 0 C0.75 1.625 0.75 1.625 1 4 C-1.28076831 8.29837104 -3.5227624 10.99702528 -8 13 C-8.66 12.67 -9.32 12.34 -10 12 C-8.625 10.5 -8.625 10.5 -7 9 C-6.34 9 -5.68 9 -5 9 C-4.5978125 7.88625 -4.5978125 7.88625 -4.1875 6.75 C-3.05770579 4.13363446 -1.79106798 2.19812889 0 0 Z " fill="#F2EBD8" transform="translate(288,377)"/>
<path d="M0 0 C2.14336161 3.4766338 2.21277626 6.21229195 2.125 10.25 C2.10695313 11.32765625 2.08890625 12.4053125 2.0703125 13.515625 C2.04710937 14.33546875 2.02390625 15.1553125 2 16 C1.34 16 0.68 16 0 16 C-0.22786458 14.01432292 -0.45572917 12.02864583 -0.68359375 10.04296875 C-0.97170735 7.80603607 -0.97170735 7.80603607 -2 5 C-1.0625 2.3125 -1.0625 2.3125 0 0 Z " fill="#CDA84D" transform="translate(446,280)"/>
<path d="M0 0 C0.99 0 1.98 0 3 0 C3 3.63 3 7.26 3 11 C2.34 9.68 1.68 8.36 1 7 C0.01 7.33 -0.98 7.66 -2 8 C-1.125 1.125 -1.125 1.125 0 0 Z " fill="#3E3E3E" transform="translate(549,441)"/>
<path d="M0 0 C2.49551158 2.49551158 3.07575992 4.66076626 4.1875 8 C4.55230469 9.0725 4.91710937 10.145 5.29296875 11.25 C6 14 6 14 5 16 C2.9375 17.125 2.9375 17.125 1 18 C1.66 15.36 2.32 12.72 3 10 C2.34 10 1.68 10 1 10 C0.67 6.7 0.34 3.4 0 0 Z " fill="#D7B362" transform="translate(391,352)"/>
<path d="M0 0 C1.79378179 2.69067269 2.97313958 5.08578257 4.1875 8.0625 C4.55230469 8.94035156 4.91710937 9.81820313 5.29296875 10.72265625 C6 13 6 13 5 15 C3.046875 14.4140625 3.046875 14.4140625 1 13 C0.390625 9.9609375 0.390625 9.9609375 0.25 6.375 C0.19328125 5.18648438 0.1365625 3.99796875 0.078125 2.7734375 C0.05234375 1.85820312 0.0265625 0.94296875 0 0 Z " fill="#E3CD8F" transform="translate(362,277)"/>
<path d="M0 0 C0.33 0 0.66 0 1 0 C1.19546065 4.30013434 0.9955516 6.00889681 -1 10 C-3.97 10 -6.94 10 -10 10 C-9.01 9.67 -8.02 9.34 -7 9 C-7 8.34 -7 7.68 -7 7 C-5.02 7 -3.04 7 -1 7 C-0.67 4.69 -0.34 2.38 0 0 Z " fill="#B18B3B" transform="translate(400,386)"/>
<path d="M0 0 C0.66 0 1.32 0 2 0 C1.85946128 2.62538284 1.71281053 5.25017427 1.5625 7.875 C1.50352539 8.99455078 1.50352539 8.99455078 1.44335938 10.13671875 C1.11328125 15.7734375 1.11328125 15.7734375 0 18 C-0.66 18 -1.32 18 -2 18 C-2 17.01 -2 16.02 -2 15 C-1.34 15 -0.68 15 0 15 C-0.08378906 14.25234375 -0.16757812 13.5046875 -0.25390625 12.734375 C-0.35574219 11.74953125 -0.45757812 10.7646875 -0.5625 9.75 C-0.66691406 8.77546875 -0.77132813 7.8009375 -0.87890625 6.796875 C-0.98974468 4.2368648 -0.77738092 2.41851841 0 0 Z " fill="#866114" transform="translate(450,342)"/>
<path d="M0 0 C1.1484375 1.640625 1.1484375 1.640625 2 4 C1.1015625 6.796875 1.1015625 6.796875 -0.375 9.75 C-0.85710937 10.73484375 -1.33921875 11.7196875 -1.8359375 12.734375 C-2.22007812 13.48203125 -2.60421875 14.2296875 -3 15 C-4.1484375 13.359375 -4.1484375 13.359375 -5 11 C-4.1015625 8.203125 -4.1015625 8.203125 -2.625 5.25 C-2.14289063 4.26515625 -1.66078125 3.2803125 -1.1640625 2.265625 C-0.77992188 1.51796875 -0.39578125 0.7703125 0 0 Z " fill="#464646" transform="translate(317,440)"/>
<path d="M0 0 C1.65 0 3.3 0 5 0 C5 2.64 5 5.28 5 8 C3.68 7.01 2.36 6.02 1 5 C0.67 5.99 0.34 6.98 0 8 C0 5.36 0 2.72 0 0 Z " fill="#2A2A2A" transform="translate(270,435)"/>
<path d="M0 0 C0.33 0 0.66 0 1 0 C1 1.65 1 3.3 1 5 C0.34 5 -0.32 5 -1 5 C-0.938125 6.11375 -0.938125 6.11375 -0.875 7.25 C-1.00853499 10.18776979 -1.38177481 11.57266222 -3 14 C-5.125 15.75 -5.125 15.75 -7 17 C-5.1668733 11.00067626 -2.92678249 5.55079437 0 0 Z " fill="#EBDFC1" transform="translate(577,365)"/>
<path d="M0 0 C0.66 0.33 1.32 0.66 2 1 C1.57811541 2.8161982 1.13700835 4.62794073 0.6875 6.4375 C0.44386719 7.44683594 0.20023437 8.45617187 -0.05078125 9.49609375 C-0.36402344 10.32238281 -0.67726563 11.14867187 -1 12 C-1.99 12.33 -2.98 12.66 -4 13 C-3.71517632 11.58194169 -3.42181856 10.16559621 -3.125 8.75 C-2.96257812 7.96109375 -2.80015625 7.1721875 -2.6328125 6.359375 C-2.00849925 4.03168856 -1.15161458 2.10968048 0 0 Z " fill="#D7B45D" transform="translate(418,312)"/>
<path d="M0 0 C0.66 0.33 1.32 0.66 2 1 C1.375 2.9375 1.375 2.9375 0 5 C-3.125 5.75 -3.125 5.75 -6 6 C-6 5.34 -6 4.68 -6 4 C-7.98 4 -9.96 4 -12 4 C-12 3.67 -12 3.34 -12 3 C-11.38511719 2.95101563 -10.77023438 2.90203125 -10.13671875 2.8515625 C-9.32847656 2.77679688 -8.52023438 2.70203125 -7.6875 2.625 C-6.88699219 2.55539062 -6.08648437 2.48578125 -5.26171875 2.4140625 C-2.72775559 2.10435574 -2.72775559 2.10435574 0 0 Z " fill="#404040" transform="translate(252,463)"/>
<path d="M0 0 C2.11386464 2.11386464 2.97008322 3.79267603 4.1875 6.5 C4.55230469 7.2940625 4.91710937 8.088125 5.29296875 8.90625 C5.52628906 9.5971875 5.75960938 10.288125 6 11 C5.67 11.66 5.34 12.32 5 13 C0.24390244 8.73170732 0.24390244 8.73170732 -0.875 5.375 C-1 3 -1 3 0 0 Z " fill="#ECD79A" transform="translate(369,296)"/>
<path d="M0 0 C2.01822402 0.60927518 4.02416285 1.26480478 6 2 C6 2.33 6 2.66 6 3 C1.05 3 -3.9 3 -9 3 C-4.31506849 -0.51369863 -4.31506849 -0.51369863 0 0 Z " fill="#505050" transform="translate(446,466)"/>
<path d="M0 0 C0.66 0 1.32 0 2 0 C2.99 2.97 3.98 5.94 5 9 C3.35 9 1.7 9 0 9 C0.20625 8.236875 0.4125 7.47375 0.625 6.6875 C1.33391203 3.78114056 1.33391203 3.78114056 -1 1 C-0.67 0.67 -0.34 0.34 0 0 Z " fill="#3F3F3F" transform="translate(605,459)"/>
<path d="M0 0 C0.33 0 0.66 0 1 0 C0.67 2.97 0.34 5.94 0 9 C-1.32 9.33 -2.64 9.66 -4 10 C-2.8905928 6.51329166 -1.73662334 3.22515763 0 0 Z " fill="#896723" transform="translate(565,372)"/>
<path d="M0 0 C0.33 0 0.66 0 1 0 C1.22245393 1.60226955 1.42746669 3.20696767 1.625 4.8125 C1.74101562 5.70582031 1.85703125 6.59914063 1.9765625 7.51953125 C2 10 2 10 0 13 C-0.66 12.67 -1.32 12.34 -2 12 C-1.34 8.04 -0.68 4.08 0 0 Z " fill="#7C5908" transform="translate(451,350)"/>
<path d="M0 0 C0.99 0 1.98 0 3 0 C2.49396008 2.16874252 2.00016187 3.99967627 1 6 C0.34 6 -0.32 6 -1 6 C-1.33 6.66 -1.66 7.32 -2 8 C-1.125 1.125 -1.125 1.125 0 0 Z " fill="#DAB251" transform="translate(386,351)"/>
<path d="M0 0 C0.33 0 0.66 0 1 0 C1 2.97 1 5.94 1 9 C-0.32 9.33 -1.64 9.66 -3 10 C-2.01 6.7 -1.02 3.4 0 0 Z " fill="#FBF8E9" transform="translate(430,302)"/>
<path d="M0 0 C1.1875 1.625 1.1875 1.625 2 4 C0.625 7.25 0.625 7.25 -1 10 C-1.66 10 -2.32 10 -3 10 C-2.49287967 6.28111761 -1.88391785 3.26545761 0 0 Z " fill="#434343" transform="translate(581,458)"/>
<path d="M0 0 C1.90389849 2.85584773 2.69462177 4.9311762 3.625 8.1875 C4.01558594 9.53908203 4.01558594 9.53908203 4.4140625 10.91796875 C4.60742188 11.60503906 4.80078125 12.29210937 5 13 C4.34 12.67 3.68 12.34 3 12 C3 11.34 3 10.68 3 10 C2.34 10 1.68 10 1 10 C0.37542727 6.56484998 0 3.50935186 0 0 Z " fill="#F1DDA5" transform="translate(376,312)"/>
<path d="M0 0 C0.99 0.495 0.99 0.495 2 1 C4.37402501 1.07116382 6.75000677 1.08409085 9.125 1.0625 C10.40632813 1.05347656 11.68765625 1.04445313 13.0078125 1.03515625 C13.99523437 1.02355469 14.98265625 1.01195312 16 1 C16 1.66 16 2.32 16 3 C11.05 3.33 6.1 3.66 1 4 C0.67 2.68 0.34 1.36 0 0 Z " fill="#F0EACF" transform="translate(497,395)"/>
<path d="M0 0 C0.77321882 2.98241547 1.41196203 5.97580475 2 9 C0.68 9 -0.64 9 -2 9 C-2.33 9.99 -2.66 10.98 -3 12 C-2.25749403 7.91621717 -1.17076699 3.98060777 0 0 Z " fill="#E1C276" transform="translate(423,294)"/>
<path d="M0 0 C-1.39332574 3.36720387 -2.9789286 4.9859524 -6 7 C-6.66 6.34 -7.32 5.68 -8 5 C-2.25 0 -2.25 0 0 0 Z " fill="#494949" transform="translate(493,434)"/>
<path d="M0 0 C1.60080151 4.00200378 0.29279692 7.04556236 -1 11 C-2.1875 9.4375 -2.1875 9.4375 -3 7 C-1.625 3.25 -1.625 3.25 0 0 Z " fill="#EEE3CE" transform="translate(567,387)"/>
<path d="M0 0 C0.66 0 1.32 0 2 0 C1.01 2.97 0.02 5.94 -1 9 C-1.66 9 -2.32 9 -3 9 C-2.44271087 5.65626525 -1.64826111 2.96687001 0 0 Z " fill="#876726" transform="translate(593,310)"/>
<path d="M0 0 C0.66 0 1.32 0 2 0 C2.433125 0.9590625 2.433125 0.9590625 2.875 1.9375 C3.82823451 4.15206079 3.82823451 4.15206079 6 5 C5.67 5.66 5.34 6.32 5 7 C2.525 6.01 2.525 6.01 0 5 C0 3.35 0 1.7 0 0 Z " fill="#3C3C3C" transform="translate(366,461)"/>
<path d="M0 0 C0.66 0.66 1.32 1.32 2 2 C1.34 4.31 0.68 6.62 0 9 C-2 6 -2 6 -1.6875 3.375 C-1 1 -1 1 0 0 Z " fill="#D6AC4C" transform="translate(382,367)"/>
<path d="M0 0 C0.87840996 3.09720845 0.99435406 4.90645403 0 8 C-0.66 8 -1.32 8 -2 8 C-2.33 8.99 -2.66 9.98 -3 11 C-3.33 10.34 -3.66 9.68 -4 9 C-3.22265625 6.8359375 -3.22265625 6.8359375 -2.0625 4.375 C-1.68222656 3.55773437 -1.30195312 2.74046875 -0.91015625 1.8984375 C-0.60980469 1.27195312 -0.30945313 0.64546875 0 0 Z " fill="#E5D7B6" transform="translate(603,307)"/>
<path d="M0 0 C2.69082872 0.17635452 5.32851446 0.61835921 8 1 C8 1.66 8 2.32 8 3 C4.625 3.125 4.625 3.125 1 3 C0.34 2.34 -0.32 1.68 -1 1 C-0.67 0.67 -0.34 0.34 0 0 Z " fill="#282828" transform="translate(238,466)"/>
<path d="M0 0 C0.33 0.66 0.66 1.32 1 2 C1.66 2 2.32 2 3 2 C3 2.99 3 3.98 3 5 C2.34 5 1.68 5 1 5 C0.67 5.66 0.34 6.32 0 7 C-0.66 5.02 -1.32 3.04 -2 1 C-1.34 0.67 -0.68 0.34 0 0 Z " fill="#CCA54A" transform="translate(385,379)"/>
<path d="M0 0 C1.99097846 2.98646769 2.94124926 5.59687262 4 9 C2.68 8.34 1.36 7.68 0 7 C0 4.69 0 2.38 0 0 Z " fill="#E9DEC2" transform="translate(640,366)"/>
<path d="M0 0 C1.5 1.375 1.5 1.375 3 3 C3 3.66 3 4.32 3 5 C2.34 5 1.68 5 1 5 C0.67 5.66 0.34 6.32 0 7 C-0.66 7 -1.32 7 -2 7 C-1.34 4.69 -0.68 2.38 0 0 Z " fill="#D3BD87" transform="translate(283,365)"/>
<path d="M0 0 C0.33 0 0.66 0 1 0 C1 2.64 1 5.28 1 8 C0.01 8 -0.98 8 -2 8 C-2 6.35 -2 4.7 -2 3 C-1.34 3 -0.68 3 0 3 C0 2.01 0 1.02 0 0 Z " fill="#D8BD80" transform="translate(349,296)"/>
<path d="M0 0 C1.98 0 3.96 0 6 0 C6 1.32 6 2.64 6 4 C5.34 3.67 4.68 3.34 4 3 C3.01 3.33 2.02 3.66 1 4 C0.67 2.68 0.34 1.36 0 0 Z " fill="#D3A943" transform="translate(440,276)"/>
<path d="M0 0 C0.33 0 0.66 0 1 0 C1 2.97 1 5.94 1 9 C0.01 9 -0.98 9 -2 9 C-2 7.68 -2 6.36 -2 5 C-1.34 5 -0.68 5 0 5 C0 3.35 0 1.7 0 0 Z " fill="#CFB381" transform="translate(286,355)"/>
</svg>
