<svg width="1408" height="681" viewBox="0 0 1408 681" fill="none" xmlns="http://www.w3.org/2000/svg">
<path d="M0 120.353H1439.98V681H0V120.353Z" fill="#9E6A30"/>
<path d="M1438.91 13.7491C1438.44 13.9763 1438.06 14.271 1437.82 14.6763C1436.28 14.3263 1434.64 14.1482 1433.8 12.7297C1433.73 12.613 1433.37 12.613 1433.15 12.5578C1432.69 12.742 1432.23 12.8832 1431.71 12.8464C1431.14 12.3981 1430.49 12.5209 1429.88 12.7297C1428.56 13.1841 1427.12 13.3069 1425.86 13.9087C1425.1 14.271 1424.18 14.1175 1423.33 14.4798C1422.37 14.879 1421.89 13.614 1420.95 13.4605C1420.63 12.9262 1420.06 12.785 1419.43 12.8648C1418.37 12.9938 1417.61 12.742 1417.41 11.6551C1416.34 13.0122 1416.09 13.0245 1414.51 12.6499C1413.7 12.4534 1413.43 11.913 1412.95 11.4831C1412.68 11.2375 1412.21 10.8506 1412.01 11.4402C1411.7 12.3735 1410.91 12.6683 1409.98 12.9631C1409.12 13.2394 1408.33 13.614 1408.32 14.5535C1408.31 15.2904 1407.79 15.3272 1407.09 15.2228C1405.3 14.9465 1405.3 14.9649 1405.06 16.5677C1405.04 16.7089 1404.94 16.8378 1404.82 17.0773C1403.5 16.3712 1402.14 16.5247 1400.7 16.758C1398.93 17.0466 1397.41 16.4326 1396.26 15.2474C1394.58 13.5219 1392.43 12.7481 1389.82 13.0981C1388.97 13.2087 1388.43 13.0122 1387.97 12.4657C1387.67 12.1156 1387.53 11.6121 1386.79 11.6182C1386.76 12.349 1386.82 13.0736 1386.65 13.7552C1386.52 14.2649 1386.53 15.0018 1385.79 15.1737C1385.11 15.3272 1384.44 14.9035 1384.14 14.4368C1383.14 12.8894 1381.83 12.9385 1380.2 13.6324C1379.3 14.0131 1378.56 13.7675 1377.92 12.9938C1377.18 12.1218 1376.61 11.17 1375.87 10.3103C1375.09 9.40144 1374.45 9.22336 1373.35 9.74532C1372.83 9.99095 1372.64 9.9234 1372.41 9.50583C1371.77 8.33295 1370.76 8.08118 1369.64 8.84877C1369.04 9.2602 1368.52 9.2909 1368.15 8.7321C1367.27 7.375 1365.7 6.85918 1364.21 6.20212C1363.31 5.79684 1362.44 5.38541 1361.54 6.05475C1360.94 5.61876 1361.47 5.10294 1361.14 4.61782C1360.1 5.09065 1359.61 4.64852 1359.08 3.86251C1358.4 2.84929 1357.06 2.52383 1355.83 2.19838C1355.37 2.0817 1354.97 2.2168 1354.71 2.72034C1354.08 3.94848 1353.94 3.94848 1352.73 3.10106C1352.51 2.9414 1352.33 2.70806 1351.99 2.73876C1351.46 4.11428 1350.96 4.31078 1349.58 3.64759C1349.07 3.39582 1348.61 3.03965 1348.08 2.81245C1346.34 2.07556 1344.65 1.11761 1342.56 2.0817C1341.98 2.35189 1341.35 2.09398 1340.99 1.62729C1340.37 0.804434 1339.58 0.828997 1338.67 1.19744C1338.19 1.39394 1337.6 1.46149 1337.19 1.72554C1336.56 2.12469 1336.04 2.00801 1335.59 1.62729C1334.44 0.675479 1332.61 1.03164 1331.47 0.0736886C1331.35 -0.0245629 1330.93 -0.0245629 1330.78 0.0736886C1329.76 0.736886 1328.5 0.552665 1327.36 0.804434C1326.38 1.01936 1325.34 1.13603 1324.46 1.51062C1322.53 2.31505 1320.68 3.26072 1318.8 4.14498C1316.89 5.04767 1314.95 5.44068 1312.96 4.33535C1312.78 4.23709 1312.64 4.24938 1312.47 4.2985C1311.75 4.52571 1310.93 4.64852 1310.32 5.01083C1309.5 5.49594 1309.06 5.5205 1308.49 4.74063C1307.88 3.92392 1306.95 3.51249 1305.71 3.85637C1304.73 4.12656 1303.71 3.95462 1302.68 3.9055C1300.94 3.81953 1299.21 4.30464 1297.45 4.07744C1297.27 4.05287 1297.05 4.27394 1296.84 4.37833C1295.88 4.83888 1295.16 5.44068 1294.76 6.37406C1294.47 7.0434 1293.97 7.00042 1293.52 6.36178C1293.13 5.8214 1292.94 5.12136 1292.01 5.03539C1291.75 5.37927 1291.59 5.71087 1291.32 5.96264C1290.97 6.28195 1287.65 6.47846 1287.25 6.23283C1287.11 6.14686 1287 6.00562 1286.94 5.87053C1286.43 4.74063 1285.35 4.49501 1283.95 4.45202C1284.13 5.18891 1284.34 5.89509 1283.27 6.25125C1282.11 6.63197 1281.26 7.32588 1280.49 8.16715C1279.66 9.08212 1279.21 9.033 1278.05 8.3698C1277.67 8.15487 1277.46 7.69432 1276.84 7.82327C1276.34 8.8979 1275.42 9.80058 1274.26 10.2427C1273.19 10.6541 1272.14 11.5814 1270.71 11.041C1270.51 10.9673 1270.23 11.0349 1270 11.0533C1269.19 11.127 1268.26 12.0604 1267.63 10.8138C1267.61 10.7708 1267.39 10.7585 1267.29 10.7892C1266.6 10.9735 1265.95 11.1884 1265.26 10.7217C1264.46 10.1874 1263.96 11.3665 1263.15 11.0471C1263.01 10.9919 1262.8 11.0471 1262.62 11.0471C1261.68 10.8261 1260.82 10.9121 1259.84 11.0963C1257.01 11.6244 1254.25 13.0552 1251.2 11.8332C1250.64 11.606 1250.16 11.9314 1249.78 12.2692C1248.59 13.3131 1247.27 14.0254 1245.44 13.9763C1244.79 13.9579 1244.16 13.9824 1243.52 13.8412C1242.5 13.6201 1241.54 13.6201 1240.62 14.1973C1239.29 15.0386 1237.83 14.9404 1236.42 14.357C1235.83 14.1114 1235.29 13.7921 1234.6 13.7675C1232.33 13.6754 1229.99 13.9824 1227.86 12.9692C1227.6 12.8464 1227.28 12.9569 1226.98 12.9692C1224.97 13.049 1222.95 12.9569 1220.94 13.006C1219.99 13.0306 1219.15 12.6192 1218.64 11.9683C1217.65 10.7278 1216.23 10.0339 1214.69 9.4567L1209.42 8.51717C1208.7 8.72596 1208 8.84877 1207.31 8.75666C1204.84 8.42506 1203.26 9.45056 1202.24 11.17C1201.29 12.7727 1199.75 13.0736 1197.9 12.8894C1197.11 12.8095 1196.38 12.7973 1195.68 13.2271C1194.3 14.0622 1192.83 14.1666 1191.31 13.4912C1190.47 13.1166 1189.57 12.9201 1188.74 13.3683C1187.62 13.964 1186.39 14.4307 1185.37 15.1123C1184.42 15.7448 1183.24 16.6291 1183.06 17.4642C1182.76 18.8397 1181.83 18.588 1180.89 18.6309C1180.01 18.6678 1179.28 18.2932 1178.59 17.8572C1178.19 17.6054 1177.74 17.4581 1177.26 17.716C1176.79 17.9677 1176.72 18.3485 1176.83 18.7906C1176.9 19.0731 1177.13 19.3617 1176.75 19.7178C1175.36 19.3494 1173.83 19.6503 1172.39 19.2941C1171.47 19.0669 1170.82 19.0731 1169.94 19.5827C1169.46 19.8591 1168.38 18.809 1167.34 19.1161C1166.95 19.2327 1166.45 19.202 1166.17 19.4661C1165.65 19.9696 1165.04 20.1047 1164.28 20.0986C1163.74 20.0986 1163.19 20.2705 1162.98 20.7679C1162.71 21.382 1163.81 21.2653 1163.77 21.8118C1162.9 22.2785 1162.25 22.911 1161.88 23.7584C1161.64 24.2865 1161.29 24.8453 1160.44 24.6427C1159.56 24.4278 1159.1 24.7471 1158.48 25.2506C1158.23 25.4533 1157.22 24.6304 1156.38 24.7225C1155.89 24.7778 1155.37 24.8515 1155.17 25.2629C1154.68 26.2393 1153.84 26.0858 1152.92 25.8831C1151.89 25.6559 1150.82 25.1462 1149.78 25.6436C1148.63 26.2024 1147.63 26.7674 1146.73 25.3796C1146.55 25.1033 1146.07 25.2568 1145.73 25.3857C1145.35 25.5331 1144.98 25.748 1144.54 25.6559C1143.49 25.441 1143.19 26.0796 1142.59 26.6016C1141.97 27.1481 1141.38 25.748 1140.43 26.1165C1139.48 26.4911 1139.08 27.2341 1138.65 27.9587C1138.35 28.4499 1138.27 29.0456 1137.59 29.3219C1135.45 30.2 1133.31 31.1457 1131.33 29.0763C1131.19 28.9228 1130.94 28.8368 1130.71 28.7815C1129.86 28.5789 1128.9 28.0078 1128.15 28.4868C1127.38 28.978 1128.29 29.6781 1128.4 30.2922C1128.43 30.4948 1128.4 30.2369 1128.44 30.4395C1128.52 30.7957 1128.6 31.1641 1128.27 31.4528C1127.85 31.8151 1127.48 31.5019 1127.16 31.3054C1126.55 30.9308 1125.94 30.9185 1125.32 31.244C1124.71 31.5694 1124.27 31.3729 1123.7 31.0782C1121.68 30.0465 1119.58 29.7088 1117.46 30.9369C1116.67 31.3913 1116.06 31.4221 1115.61 30.5808C1115.43 30.243 1114.97 29.9728 1114.57 30.1693C1113.64 30.6299 1112.17 30.9308 1111.99 31.6861C1111.55 33.4178 1110.46 32.9081 1109.21 32.6993C1107.22 32.3616 1106.65 32.73 1106.33 34.4187C1106.21 35.0144 1106.18 35.6284 1105.15 35.1495C1104.51 34.8486 1104.23 35.2784 1103.82 35.5916C1102.02 36.9978 1099.77 37.8698 1097.83 39.1348C1096.73 39.841 1095.79 40.3998 1095.34 41.5112C1095.06 42.199 1094.54 42.8192 1093.61 42.9113C1092.16 43.0526 1090.95 43.4579 1090.13 44.5509C1089.91 44.8395 1089.43 45.1834 1089.12 44.7413C1088.41 43.6973 1087.7 44.3544 1087.05 44.6921C1086.2 45.1281 1085.39 45.1895 1084.49 44.8457C1082.07 43.9184 1082.06 43.9307 1082.29 46.0554C1082.34 46.5037 1082.23 46.8598 1081.78 47.1177C1081.3 47.4002 1080.91 47.2958 1080.52 46.9581C1079.69 46.2457 1078.44 45.6747 1077.52 45.7176C1075.26 45.8343 1073.09 45.8589 1070.94 45.1895C1070.58 45.079 1070.06 45.2018 1069.82 45.5457C1069.54 45.9571 1069.98 46.1905 1070.26 46.4361C1070.67 46.8107 1071.04 47.1976 1071.26 47.7993C1069.54 47.6335 1067.9 47.5046 1066.24 47.3449C1064.73 47.1976 1064.37 47.6151 1064.71 48.8064C1065.08 50.053 1064.8 50.3355 1063.26 50.2495C1062.44 50.2004 1061.53 49.8626 1060.91 50.5627C1060.31 51.2443 1059.46 51.1092 1058.67 51.2688C1056.02 51.8031 1053.12 51.8399 1051.15 53.8909C1050.63 53.6392 1050.46 52.8347 1049.59 53.0926C1048.95 53.283 1048.7 53.7743 1048.51 54.4068C1048.1 53.3014 1047.3 53.5164 1046.55 53.7313C1045.43 54.0445 1044.27 54.1488 1043.2 53.7558C1041.61 53.1725 1040.05 53.5532 1038.94 54.3024C1037.16 55.5182 1035.45 55.291 1033.59 54.8059C1033.19 54.7015 1032.49 54.5357 1032.57 54.9656C1032.75 56.12 1031.54 55.9481 1031 56.4025C1028.64 58.4105 1025.52 58.3368 1022.55 58.6316C1021.3 58.7544 1019.85 58.1833 1019.12 59.5895C1018.98 59.8597 1018.71 59.7308 1018.49 59.6755C1017.75 59.4913 1017.08 59.7492 1016.39 59.8904C1015.16 60.1422 1013.89 60.351 1012.67 59.9518C1011.83 59.6755 1011.33 59.8167 1010.86 60.4247C1010.26 61.2045 1009.45 61.3028 1008.52 60.8361C1006.06 59.6018 1003.92 57.7043 1000.65 58.1465C1000.37 58.1833 1000.09 57.9929 999.806 57.9008C997.804 57.2131 995.803 56.5437 994.183 55.2542C993.297 54.548 992.34 54.7322 991.728 55.5244C991.094 56.3472 991.944 56.685 992.671 56.9736C993.168 57.1701 993.52 57.5201 993.931 57.8087C992.318 56.642 990.338 56.1077 988.416 55.4445C986.882 54.9164 985.212 54.6769 983.822 53.805C983.073 53.3383 982.217 52.1838 981.288 52.976C980.453 53.6883 982.029 54.2778 982.267 55.0208C980.604 55.4814 980.553 55.7516 981.979 57.3175C981.101 56.6297 980.237 56.513 979.207 56.5806C976.745 56.7402 974.167 57.2806 972.057 55.5366C971.712 55.248 971.064 55.1682 970.704 55.4138C969.66 56.12 968.205 56.1998 967.27 57.0104C966.154 57.9745 964.908 58.4166 963.281 58.4351C962.266 58.4473 961.286 58.6623 960.3 58.2877C959.839 58.1157 959.299 58.0789 958.925 58.3552C957.615 59.3193 955.815 59.1658 954.411 59.307C951.847 59.565 950.011 60.7256 947.916 61.6405C945.605 62.6537 943.51 64.0968 940.695 64.1521C937.289 64.2196 933.97 64.9565 930.579 65.1776C929.83 65.2267 929.47 65.5092 929.42 66.0987C929.341 67.0259 928.8 66.7496 928.073 66.6145C926.187 66.2583 924.74 64.367 922.457 65.4539C920.521 64.7109 920.873 66.2276 920.434 67.1365C920.384 66.7373 920.391 66.5347 920.319 66.3382C919.815 65.0179 918.44 64.3916 917.245 63.6608C916.352 63.1143 915.733 63.9801 914.962 64.1459C913.364 64.4837 911.614 64.717 910.318 63.7406C908.662 62.4879 906.61 61.7449 905.019 60.4308C904.422 59.9395 903.579 59.3992 902.636 60.1053C902.269 60.6887 901.902 61.2966 901.182 61.6037C899.627 62.2669 898.287 63.1941 896.862 64.0108C895.573 64.7416 894.133 65.7794 892.283 64.9258C891.858 64.7293 891.318 64.8767 890.893 65.0609C889.871 65.5092 889.079 65.3311 888.423 64.5328C887.25 63.1082 885.263 62.7827 883.607 62.0212C883.333 61.8984 883.009 61.8984 882.743 62.0274C881.922 62.4142 881.008 62.3651 880.129 62.4511C879.107 62.5432 878.106 62.6783 877.343 63.3415C876.868 63.7591 876.277 63.7406 875.68 63.7345C874.679 63.7345 873.837 63.931 873.239 64.7416C872.037 66.3689 871.871 66.332 869.596 65.9022C868.451 65.6872 866.73 65.4907 866.385 66.5285C865.78 68.3093 864.916 67.3514 864.009 67.0198C863.282 66.7557 862.72 66.2829 862.101 65.8838C861.424 65.4478 860.79 65.3986 860.243 66.0434C859.674 66.7128 858.947 67.0996 857.946 67.0136C856.622 66.897 856.262 67.5233 856.319 68.4936C856.348 68.9971 856.427 69.4577 855.822 69.8507C852.143 72.2517 848.212 73.1666 843.791 71.435C843.302 71.2446 842.769 71.1279 842.229 71.1034C841.207 71.0542 840.422 70.6428 839.731 70.0287C838.946 69.3287 838.118 68.6655 837.391 67.9163C835.843 66.3136 833.431 66.7496 831.451 66.1601C831.199 66.0864 830.882 66.3197 830.709 66.5285C829.6 67.8918 827.62 67.9839 826.144 68.819C823.682 68.8067 822.148 69.9305 821.133 71.7297C820.723 72.4543 820.025 72.5956 819.168 72.2885C818.729 72.1289 818.304 71.9324 817.857 71.785C816.525 71.349 815.33 71.6437 814.97 72.5587C814.538 73.6702 815.597 73.793 816.446 74.0202C816.677 74.0816 816.943 74.1185 816.979 74.3579C817.022 74.6466 816.77 74.8185 816.518 74.9659C815.935 75.3159 815.352 75.1255 814.819 74.8922C813.271 74.2106 811.543 73.8913 810.031 73.1544C809.261 72.7798 808.584 72.7307 807.994 73.4246C807.396 74.1307 806.597 74.1246 805.754 73.7684C804.797 73.3632 804.012 73.2772 803.832 74.4562C803.789 74.751 803.522 74.9352 803.206 74.886C801.672 74.6466 800.038 75.0211 798.591 74.4378C797.273 73.9097 795.991 73.9158 794.58 74.0202C792.262 74.1921 789.778 74.2658 787.733 73.3079C785.566 72.2885 783.852 70.4831 780.958 71.2937C780.756 71.349 781.03 71.2937 780.792 71.263C778.856 71.0604 777.12 69.5436 774.975 70.606C774.924 70.6305 774.917 70.3603 774.816 70.2682C773.528 69.1015 771.504 69.3103 770.554 70.7656C769.935 71.7236 769.15 71.9385 768.041 71.4227C766.983 70.9314 765.91 70.4524 764.665 70.4647C762.901 70.477 761.029 71.1464 759.574 69.6542C759.394 69.4699 758.883 69.5498 758.523 69.5498C757.645 69.5498 756.932 69.2489 756.205 68.8436C753.21 67.204 750.236 65.503 746.37 65.9697C745.657 66.0557 744.771 65.8715 744.548 66.6022C744.339 67.2777 745.268 67.2593 745.736 67.4926C747.025 68.1435 747.111 68.4936 746.219 69.5313C745.722 70.1086 745.03 70.5507 744.613 71.177C744.109 71.9385 743.526 71.9446 742.691 71.5209C741.409 70.87 739.746 70.6489 738.601 71.1832C736.902 71.9753 735.188 72.5649 733.331 72.9333C733.23 73.0622 733.194 73.1973 733.223 73.3509C733.41 73.9342 734.403 73.793 734.605 74.3702C733.028 75.494 731.761 76.9555 729.392 76.7037C728.881 76.6484 728.427 77.1213 727.931 77.2318C725.936 77.6801 723.935 79.4916 721.883 77.2318C721.516 76.8327 720.414 76.8695 720.349 77.373C720.126 79.1354 719.183 79.6697 717.253 79.1231C717.21 79.1109 717.196 79.1047 717.181 79.0986C717.181 79.1109 717.181 79.1354 717.102 79.1784C715.216 80.2039 713.106 80.3636 710.953 80.3636C710.457 80.3636 709.924 80.4127 709.794 80.9039C709.269 82.9058 707.058 82.9365 705.51 83.0409C703.869 83.1515 702.882 83.3602 702.112 84.6437C701.392 85.8411 700.708 85.7981 699.707 84.7542C698.606 83.5997 698.31 83.5445 697.202 84.5515C696.165 85.5033 695.056 86.1665 693.436 85.9025C693.141 85.8534 692.788 85.8902 692.572 86.056C691.031 87.2289 689.051 87.2166 687.201 87.5666C685.876 87.8184 684.652 88.2298 684.537 89.6483C684.472 90.3729 683.759 90.3791 683.392 90.0536C682.298 89.0711 681.023 88.8193 679.511 88.979C679.123 89.022 678.77 88.6781 678.417 88.4877C677.906 88.2114 677.373 87.9289 676.761 87.9412C675.746 87.9596 674.205 87.45 673.939 88.5492C673.665 89.6913 675.263 89.7589 676.25 89.9738C677.128 90.1641 677.942 90.3299 678.323 91.5458C677.121 90.5694 675.71 90.901 674.752 89.9861C672.823 88.1439 672.016 88.279 670.425 90.4098C670.36 90.4958 670.296 90.5817 670.238 90.6738C669.576 91.7792 668.596 92.3748 667.048 92.1967C666.264 92.1046 665.486 92.2397 664.917 92.8047C664.464 93.2529 663.801 93.3696 663.225 93.6275C660.763 94.7206 658.121 94.9662 655.399 95.046C653.477 95.1074 651.49 95.9057 649.798 94.432C649.56 94.2232 649.106 94.1618 648.833 94.4565C648.624 94.6776 648.811 94.9355 648.948 95.1627C649.142 95.482 649.488 95.6969 649.646 95.8934C648.386 95.4329 647.825 93.9161 646.162 93.7995C645.182 93.7319 644.498 93.3512 643.807 92.8292C642.562 91.8958 641.078 91.1774 640.466 89.7282C640.301 89.3413 639.732 89.243 639.307 89.0527C636.715 87.8982 633.987 86.9894 631.474 85.663C630.142 84.963 628.565 84.5884 626.823 85.6385C625.771 86.2709 624 86.8113 622.647 86.1297C621.336 85.4665 619.839 85.2516 618.586 84.5577C617.844 84.1463 617.326 84.2506 616.728 84.8094C615.54 85.9148 613.949 86.1481 612.365 85.5341C611.71 85.2823 611.084 84.9323 610.335 84.9691C609.075 85.0367 608.578 84.5515 608.686 83.5076C608.729 83.0778 608.909 82.5005 608.132 82.4084C607.549 82.3409 607.311 82.8137 607.196 83.1944C606.829 84.4717 606.08 84.1155 605.072 83.7103C602.12 82.5128 600.363 80.4864 599.182 77.9994C598.793 77.1765 598.153 76.5809 597.008 76.7467C595.827 76.9186 595.683 77.7108 595.885 78.6257C594.913 78.3064 594.186 77.9318 593.53 77.502C592.414 76.759 591.471 76.5195 590.55 77.7169C590.118 78.2819 589.376 78.4968 588.656 78.1099C586.388 76.8941 584.026 75.8686 581.521 75.0396C580.707 74.7694 580.153 74.7755 579.361 75.058C577.633 75.6721 576.272 76.7651 574.667 77.5388C572.024 78.81 569.562 78.9819 566.891 78.0424C565.228 77.4529 563.212 77.5695 561.952 76.1387C561.433 75.5492 560.54 75.6475 559.792 75.9668C559.237 76.2002 558.69 76.4458 558.093 76.1449C556.962 75.5738 555.637 75.7212 554.442 75.3957C553.449 75.1317 553.06 75.4756 553.405 76.3353C553.521 76.63 553.521 76.937 553.542 77.2379C553.542 77.2564 553.549 77.2686 553.557 77.2871C553.297 77.2871 553.031 77.2993 552.772 77.2993C551.267 76.7958 549.813 75.9484 548.142 76.2002C547.041 76.366 546.025 76.3905 544.96 76.2063C544.492 76.1265 543.966 75.9791 543.549 76.1756C542.332 76.7467 541.115 76.9616 539.776 76.5256C539.43 76.4151 539.056 76.5256 538.876 76.8634C538.71 77.1704 538.804 77.4467 538.998 77.7292C539.193 78.0178 539.661 78.0424 539.798 78.5398C538.624 77.631 537.314 77.9994 536.039 78.0362C535.989 78.0362 535.967 78.0362 535.953 78.0362C535.967 78.0362 535.982 78.0178 535.874 77.9871C534.074 77.459 532.137 77.2748 530.524 76.2923C529.768 75.8317 528.868 75.7826 527.939 75.887C526.629 76.0344 525.405 75.8317 524.57 74.8553C524.066 74.2658 523.605 74.2965 523.166 74.8308C522.482 75.6536 521.459 76.1142 520.487 76.5993C516.513 78.5828 513.943 78.2082 511.171 75.1747C510.112 74.0141 508.276 74.9782 507.218 73.9588C507.204 73.9465 507.204 73.9404 507.204 73.9342C507.204 73.9465 507.189 73.9772 507.081 74.0141C504.345 74.9045 503.582 74.7018 501.861 72.6385C501.271 71.9324 500.594 71.2814 499.809 70.7288C499.435 70.4647 499.01 70.2437 499.01 69.777C499.017 68.9234 498.816 68.3216 497.563 68.7146C497.325 68.7883 497.066 68.7392 496.929 68.5427C496.353 67.7076 495.821 68.1681 495.439 68.6348C494.719 69.5129 493.848 69.605 492.782 69.1875C492.228 68.9725 491.623 68.8988 491.025 68.9357C489.449 69.0278 488.275 68.4199 486.936 67.7444C485.518 67.0259 484.366 64.9749 482.04 66.332C481.802 66.4733 481.63 66.2461 481.428 66.1478C480.182 65.5644 478.966 64.7477 477.447 65.6443C477.202 65.7855 477 65.6565 476.835 65.503C475.726 64.4775 474.25 64.717 472.983 64.9565C471.629 65.2144 470.549 65.0548 469.404 64.4775C468.267 63.9064 467.064 63.4213 466.078 62.6722C463.896 61.0203 460.988 60.7378 458.468 59.7246C457.906 59.4974 457.301 59.6079 456.711 59.7308C454.119 60.2773 451.556 61.0449 448.805 60.4001C448.172 60.2527 447.495 60.4431 446.933 60.7808C446.811 60.7808 446.696 60.7931 446.573 60.7931C446.249 60.7992 445.954 60.8361 445.817 61.0756C444.226 60.3755 441.908 60.6457 441.569 58.5333C440.633 58.8895 440.9 59.5465 440.425 60.0562C439.625 59.4483 438.56 59.3132 437.602 59.4483C435.673 59.7123 434.254 58.0114 432.296 58.564C432.08 58.6254 431.864 58.3982 431.763 58.214C431.022 56.906 429.495 56.4209 428.113 55.9174L423.08 52.6321C422.209 51.4776 421.201 50.9925 419.48 51.3671C418.076 51.668 416.73 51.932 415.463 52.5645C413.771 53.4058 412.007 53.7128 410.264 52.5584C409.746 52.2145 409.12 52.2022 408.292 52.7549C409.53 51.7048 409.364 50.8636 408.479 50.139C407.687 49.488 407.068 48.7696 406.664 47.9037C406.441 47.4248 406.052 47.0256 405.563 46.7247C404.972 46.3686 404.267 45.9141 403.619 46.3747C402.935 46.8598 403.878 47.216 404.051 47.6397C404.108 47.7871 404.152 47.9283 403.763 48.2353C403.014 46.8659 401.898 47.0993 400.681 47.7871C400.386 47.9529 400.004 47.6765 399.68 47.5599C398.694 47.1914 397.737 46.8107 396.945 46.1352C396.261 45.5457 395.641 45.4352 394.936 46.3256C394.345 47.0747 393.006 47.83 392.214 47.4432C390.767 46.7431 389.147 46.6019 387.7 46.0001C386.31 45.4229 384.971 45.5948 383.567 46.1475C382.005 46.7554 380.356 47.5783 378.635 47.3572C376.202 47.0379 373.394 47.1853 372.04 44.6983C371.694 44.0596 370.823 43.7587 370.334 44.7965C370.053 45.3799 369.463 45.3185 368.966 45.1895C368.015 44.9378 366.979 43.9982 366.41 45.5764C366.374 45.6747 366.071 45.6562 365.906 45.6071C363.443 44.9193 360.743 45.1895 358.404 43.771C356.712 42.7455 354.552 41.7016 352.276 43.114C351.672 43.4886 351.297 43.1263 350.894 42.8008C350.39 42.3894 349.908 42.1376 349.166 42.5736C347.258 43.7158 346.372 43.5929 344.378 42.5306C343.01 41.7999 341.786 40.8849 340.353 40.2585C339.489 39.8778 339.108 39.3559 338.762 38.576C338.013 36.8996 336.948 35.3398 334.673 34.8056C334.673 34.8056 334.673 34.8056 334.673 34.7994C334.579 34.7196 334.485 34.6398 334.399 34.5661C334.406 34.5477 334.421 34.5354 334.428 34.517C334.442 33.6941 333.693 33.2581 333.103 32.7914C330.893 31.0352 328.87 29.1868 328.279 26.534C328.2 26.184 327.977 25.6928 327.595 25.7112C326.155 25.7787 324.888 24.919 323.419 25.2322C322.606 25.4041 321.77 25.4901 320.928 25.3182C319.87 25.1094 319.027 25.3427 318.113 25.8954C314.751 27.9341 311.244 28.9842 307.342 26.7551C306.586 26.3191 305.657 26.2823 304.7 26.9148C303.785 27.5227 302.576 27.8297 301.352 27.3016C301.128 27.2034 300.675 27.2525 300.999 26.8472C301.877 25.7849 300.79 25.6805 300.034 25.4717C299.141 25.2261 298.148 25.3366 297.341 24.7532C296.376 24.0471 295.498 23.9672 295.145 25.2875C294.915 26.1349 294.152 25.9507 293.864 25.5208C293.093 24.3848 292.373 23.654 290.919 24.8515C290.883 24.8822 290.869 24.8945 290.869 24.9068C290.869 24.8945 290.861 24.8699 290.761 24.8453C289.436 24.569 288.536 25.134 287.866 25.963C286.988 27.0499 285.973 27.0437 284.785 26.4296C283.863 25.9507 282.941 25.4594 281.775 25.6559C281.537 25.6559 281.3 25.6559 281.062 25.6559C280.126 25.8033 280.853 27.0007 279.773 27.099C278.945 27.1727 278.182 27.5473 277.326 27.5657C276.879 27.5718 276.526 27.7683 276.282 28.0815C276.08 28.3394 275.864 28.585 275.482 28.6526C273.524 28.9903 272.113 30.1448 270.543 31.0475C269.305 31.7598 269.226 31.9317 268.052 31.1887C266.518 30.2185 265.021 31.594 263.538 31.072C263.43 31.0352 263.235 31.244 263.185 31.3852C262.796 32.4414 262.213 32.0914 261.515 31.6063C260.651 31.0045 259.599 30.5869 258.519 30.8878C257.555 31.158 256.712 31.6124 255.704 31.029C255.51 30.9185 255.265 31.0843 255.049 31.1764C253.695 31.7721 251.55 31.8949 250.16 31.4405C249.095 31.0905 248.058 30.7589 246.863 30.8448C245.293 30.9554 243.724 30.6115 242.464 29.9176C240.57 28.8737 238.849 29.2482 237.287 30.1448C236.495 30.5992 236.085 30.5931 235.465 30.1693C234.709 29.6535 233.881 29.4754 232.945 29.7886C232.607 29.8992 232.254 29.979 231.894 29.9176C229.734 29.5614 227.459 29.9667 225.364 29.1807C225.148 29.1009 224.874 29.0333 224.658 29.0947C223.096 29.543 221.915 28.7938 220.619 28.2657C218.762 27.5104 216.832 26.9209 214.794 27.9034C214.478 28.0569 214.103 28.0999 213.743 28.0262C212.714 27.8113 211.879 28.1552 211.043 28.5973C209.949 29.1745 208.739 29.6044 207.472 29.236C206.191 28.8614 205.269 29.2789 204.355 29.9114C203.743 30.329 203.275 30.8571 202.807 31.3852C202.029 32.2572 200.913 32.8221 199.704 32.5704C198.213 32.2633 197.256 32.6502 196.478 33.6266C195.816 34.4494 194.952 34.6398 193.821 34.4801C193.101 34.3757 192.309 34.2468 191.654 34.6766C191.625 34.6582 191.596 34.6521 191.575 34.6336C190.538 34.2284 189.343 34.1485 188.364 33.6511C186.96 32.9327 185.448 32.773 183.864 32.8406C182.042 32.9142 180.285 32.687 178.579 32.1221C176.851 31.551 175.029 31.2317 173.28 30.7159C172.668 30.5316 172.07 30.5255 171.574 30.8755C170.652 31.5203 169.637 31.5756 168.521 31.3852C167.938 31.2808 167.311 31.2501 166.728 31.3791C164.726 31.8151 162.689 31.7537 160.651 31.7659C159.679 31.7659 158.765 31.8642 157.843 32.1589C155.496 32.9081 153.163 32.9142 150.91 31.8519C150.132 31.4835 149.52 31.5878 148.807 32.0975C147.742 32.859 146.46 33.0248 145.1 32.6011C144.027 32.2695 142.968 31.9194 141.924 31.5264C140.844 31.115 139.728 30.9615 138.612 31.3606C137.784 31.6554 136.985 31.6186 136.157 31.4221C135.754 31.3238 135.351 31.1887 134.926 31.2317C134.264 31.2992 133.918 31.5449 134.278 32.1528C134.393 32.3432 134.796 32.4905 134.451 32.7791C133.983 32.8897 133.501 32.8897 133.047 33.0371C132.586 33.1844 132.248 33.4792 131.845 33.7003C131.009 34.167 130.153 34.4187 129.145 34.038C127.633 33.4608 126.099 32.9941 124.594 34.0994C124.292 34.3266 123.903 34.2284 123.565 34.124C122.621 33.8354 121.685 33.8968 120.735 34.1055C120.015 34.2652 119.288 34.1915 118.611 33.9889C116.941 33.4915 115.213 33.3564 113.47 33.4608C111.62 33.5713 109.892 33.3441 108.358 32.3984C108.006 32.3002 107.638 32.2449 107.264 32.251C106.962 32.2388 106.667 32.2388 106.364 32.2326C104.679 32.2019 102.923 32.2203 101.454 31.5203C99.769 30.7097 98.221 30.5501 96.5291 31.3361C95.9675 31.594 95.3987 31.6431 94.8083 31.3852C92.6051 30.4273 90.3084 29.7518 87.8028 29.7395C87.6228 29.7395 87.4428 29.6965 87.2772 29.6412C86.2548 29.2789 85.1964 29.2053 84.1021 29.2912C83.2885 29.3526 82.5613 29.1684 82.0069 28.6096C81.4381 28.0324 80.6605 27.8359 79.8397 27.6087C77.9893 27.0928 75.9734 26.9455 74.339 25.9077C74.0582 25.7296 73.6982 25.6252 73.3526 25.5392C72.5822 25.3489 71.891 25.2998 71.7902 26.2209C71.7542 26.5279 71.7398 26.8902 71.1926 26.706C70.847 26.5893 70.5879 26.3621 70.6455 25.9998C70.6959 25.6928 71.0055 25.4656 71.0703 25.1647C71.207 24.569 70.9479 24.2804 70.1991 24.4094C69.9039 24.4585 69.6231 24.5506 69.3351 24.6243C67.0095 25.2261 64.6839 25.4901 62.344 24.6366C61.4368 24.305 60.5008 24.3848 59.5288 24.5997C57.5489 25.0418 55.5761 24.8638 53.7977 24.0225C52.7753 23.5435 51.9473 23.4084 51.0042 24.0286C50.2482 24.526 49.4274 24.5874 48.4626 24.4155C46.929 24.1453 45.4458 23.8383 44.0563 23.1812C42.9907 22.6715 41.8891 22.5242 41.0179 23.5312C40.7011 23.8997 40.2043 23.8935 39.7363 23.9979C36.8636 24.6366 33.9404 24.6488 30.9957 24.6059C28.8717 24.5752 27.1797 23.783 25.6893 22.6531C24.3358 21.6276 24.3934 21.5539 22.9174 22.5242C22.1902 23.0031 21.4486 23.4146 20.5126 23.476C17.5895 23.6725 14.6735 23.4023 11.8007 23.04C9.28078 22.7207 6.64562 22.8619 4.25526 21.8732C3.78726 21.6829 3.18247 21.8732 2.64968 21.7811C1.7713 21.6337 1.3249 22.082 0.928908 22.6285C0.583313 23.1014 0.583313 23.7216 0.0361212 24.1085V127.383C0.0649208 127.684 -0.165476 128.114 0.576113 128.003C0.986507 127.942 1.4113 127.991 1.83609 127.991H1440V12.2507C1439.29 12.5639 1439.06 13.135 1438.93 13.7491H1438.91ZM1439.26 15.0018C1439.3 15.0448 1439.34 15.0877 1439.37 15.1307C1439.32 15.1307 1439.27 15.1369 1439.23 15.143C1439.24 15.0939 1439.26 15.057 1439.27 15.0018H1439.26ZM861.064 77.1458C861.057 77.109 861.042 77.0721 861.042 77.0292C861.107 77.0353 861.172 77.0353 861.237 77.0414C861.179 77.0721 861.122 77.109 861.064 77.1458ZM1134.58 36.1504C1134.46 36.0706 1134.34 36.003 1134.22 35.9416C1134.3 35.9109 1134.37 35.8679 1134.43 35.8188C1134.48 35.9293 1134.52 36.0276 1134.57 36.1504H1134.58ZM1018.48 69.0954C1018.55 69.1199 1018.62 69.1383 1018.68 69.1568C1018.61 69.1568 1018.54 69.1383 1018.48 69.0954ZM822.192 83.0286C822.127 82.9488 822.069 82.8874 822.005 82.8137C822.055 82.7646 822.113 82.7216 822.163 82.6725C822.163 82.7892 822.163 82.9058 822.192 83.0286ZM194.541 36.0829C194.541 36.0829 194.57 36.0337 194.584 36.0153C194.613 36.0399 194.642 36.0583 194.671 36.089C194.628 36.089 194.584 36.089 194.541 36.089V36.0829Z" fill="#9E6A30"/>
</svg>
