<svg width="31" height="32" viewBox="0 0 31 32" fill="none" xmlns="http://www.w3.org/2000/svg">
<path d="M26.8737 11.0328L19.3601 9.8797L16.0013 2.68907C15.9096 2.4922 15.7587 2.33282 15.5722 2.23595C15.1047 1.9922 14.5365 2.19532 14.3027 2.68907L10.9439 9.8797L3.43032 11.0328C3.22317 11.0641 3.03378 11.1672 2.88877 11.3235C2.71347 11.5137 2.61687 11.7697 2.6202 12.0351C2.62353 12.3006 2.72652 12.5538 2.90653 12.7391L8.34273 18.336L7.0584 26.2391C7.02828 26.4229 7.04755 26.612 7.11401 26.7849C7.18047 26.9577 7.29148 27.1075 7.43443 27.2171C7.57739 27.3268 7.74657 27.3919 7.9228 27.4052C8.09904 27.4185 8.27527 27.3793 8.43151 27.2922L15.152 23.561L21.8726 27.2922C22.056 27.3953 22.2691 27.4297 22.4733 27.3922C22.9882 27.2985 23.3344 26.7828 23.2457 26.2391L21.9613 18.336L27.3975 12.7391C27.5455 12.586 27.6432 12.386 27.6727 12.1672C27.7526 11.6203 27.3916 11.1141 26.8737 11.0328V11.0328Z" fill="#D1AE62"/>
</svg>
