<svg width="24" height="24" viewBox="0 0 24 24" fill="none" xmlns="http://www.w3.org/2000/svg">
<path d="M22.8002 12.1815C22.8002 10.7961 21.7373 9.67165 20.4276 9.67165C19.7823 9.67165 19.2129 9.93267 18.7953 10.3744C17.1819 9.1496 14.9422 8.34645 12.4747 8.24606L13.5566 2.88503L17.068 3.6681C17.106 4.61181 17.8462 5.3748 18.7573 5.3748C19.6874 5.3748 20.4466 4.57165 20.4466 3.58779C20.4466 2.60393 19.6874 1.80078 18.7573 1.80078C18.093 1.80078 17.5236 2.20236 17.2578 2.80472L13.3288 1.92125C13.215 1.90118 13.1011 1.92125 13.0062 1.98149C12.9113 2.04173 12.8543 2.14212 12.8164 2.26259L11.6206 8.24606C9.09615 8.32637 6.83745 9.10944 5.20512 10.3744C4.78754 9.95275 4.19914 9.67165 3.57278 9.67165C2.26311 9.67165 1.2002 10.7961 1.2002 12.1815C1.2002 13.2055 1.76962 14.0689 2.60477 14.4705C2.5668 14.7114 2.54782 14.9724 2.54782 15.2335C2.54782 19.0886 6.78051 22.2008 12.0192 22.2008C17.2578 22.2008 21.4905 19.0886 21.4905 15.2335C21.4905 14.9724 21.4715 14.7315 21.4336 14.4905C22.2118 14.089 22.8002 13.2055 22.8002 12.1815ZM6.57172 13.9685C6.57172 12.9846 7.33095 12.1815 8.261 12.1815C9.19106 12.1815 9.95028 12.9846 9.95028 13.9685C9.95028 14.9524 9.19106 15.7555 8.261 15.7555C7.33095 15.7555 6.57172 14.9524 6.57172 13.9685ZM16.0051 18.687C14.8473 19.9118 12.6455 19.9921 12.0002 19.9921C11.3549 19.9921 9.13411 19.8917 7.99527 18.687C7.82445 18.5063 7.82445 18.2051 7.99527 18.0244C8.1661 17.8437 8.45081 17.8437 8.62164 18.0244C9.3429 18.7874 10.8993 19.0685 12.0192 19.0685C13.139 19.0685 14.6765 18.7874 15.4167 18.0244C15.5875 17.8437 15.8723 17.8437 16.0431 18.0244C16.1759 18.2252 16.1759 18.5063 16.0051 18.687ZM15.7014 15.7555C14.7714 15.7555 14.0121 14.9524 14.0121 13.9685C14.0121 12.9846 14.7714 12.1815 15.7014 12.1815C16.6315 12.1815 17.3907 12.9846 17.3907 13.9685C17.3907 14.9524 16.6315 15.7555 15.7014 15.7555Z" fill="#D1AE62"/>
</svg>
