<svg width="331" height="476" viewBox="0 0 331 476" fill="none" xmlns="http://www.w3.org/2000/svg">
<path d="M142.699 443.624L142.699 443.623C147.135 420.854 156.55 400.063 165.966 379.268C166.618 377.828 167.27 376.388 167.921 374.948C168.954 372.657 169.992 370.369 171.03 368.081C181.647 344.685 192.235 321.35 196.855 295.96L196.855 295.959C200.862 274.363 199.794 253.402 189.687 233.395L189.682 233.383L189.677 233.372C189.593 233.184 189.515 232.975 189.443 232.784C189.409 232.693 189.376 232.606 189.345 232.527C189.24 232.26 189.134 232.027 188.995 231.821C188.826 231.57 188.591 231.335 188.2 231.159C188.684 233.355 189.199 235.548 189.714 237.737C190.792 242.32 191.866 246.888 192.637 251.441L192.637 251.441C195.849 270.502 192.157 288.945 186.83 307.084C180.649 328.255 171.619 348.214 162.578 368.197C159.667 374.632 156.754 381.069 153.936 387.55L153.477 387.351L153.936 387.55C145.894 406.026 138.234 424.444 135.289 444.502C134.232 451.677 134.348 458.979 134.584 466.202L134.585 466.21L134.585 466.218C134.585 466.582 134.65 466.992 134.734 467.454C134.744 467.513 134.755 467.573 134.767 467.634C134.839 468.03 134.918 468.459 134.952 468.871C134.992 469.347 134.978 469.854 134.802 470.323C134.62 470.81 134.277 471.222 133.729 471.514C133.187 471.804 132.652 471.874 132.138 471.782C131.636 471.692 131.184 471.453 130.782 471.172C130.381 470.89 130.003 470.546 129.658 470.221C129.589 470.156 129.521 470.091 129.454 470.028C129.184 469.772 128.936 469.536 128.692 469.335C102.609 449.743 83.3937 424.799 72.2443 394.034L72.2441 394.034C53.5107 342.145 58.1345 291.892 87.664 245.217C104.037 219.316 127.284 199.723 154.183 185.008L154.184 185.007C177.315 172.415 202.347 165.999 228.564 165.999C258.095 165.999 285.967 173.483 311.816 187.851C347.138 207.437 374.411 235.103 391.842 271.796C412.594 315.261 414.374 359.694 396.704 404.586L396.703 404.587C378.919 449.468 346.796 482.694 308.798 510.789C305.866 512.972 303.041 515.291 300.178 517.64C298.791 518.778 297.396 519.923 295.975 521.064C365.394 499.793 433.528 421.784 427.075 323.437C419.172 203.539 314.787 125.698 208.163 137.628L208.107 137.131L208.163 137.628C91.9798 150.622 19.3227 254.567 32.297 358.395C39.4927 415.689 66.7343 461.396 112.862 495.658C132.174 509.933 153.262 520.494 176.783 525.282C168.889 518.494 161.137 511.775 154.968 503.463C141.387 485.446 138.539 465.283 142.699 443.624Z" stroke="#7F4F29"/>
<path d="M306.693 298.789L306.701 298.787C308.508 298.425 310.308 297.854 312.086 297.245C312.576 297.078 313.064 296.907 313.549 296.738C314.74 296.322 315.921 295.91 317.104 295.547C317.212 295.654 317.321 295.759 317.426 295.854C317.445 295.872 317.465 295.89 317.485 295.908C315.691 298.121 313.221 299.168 310.634 300.266C310.132 300.479 309.626 300.694 309.119 300.919C308.415 301.232 307.574 301.328 306.635 301.34C306.19 301.346 305.736 301.334 305.272 301.321L305.202 301.319C304.717 301.306 304.222 301.294 303.738 301.305C302.778 301.328 301.801 301.445 300.96 301.881C300.096 302.33 299.423 303.092 299.032 304.301L299.032 304.302C298.47 306.051 298.446 307.962 298.55 309.87C298.589 310.572 298.643 311.266 298.698 311.956C298.794 313.177 298.89 314.383 298.89 315.586L298.89 315.607L298.891 315.628C298.95 316.339 299.01 317.02 299.069 317.7L299.069 317.702L299.069 317.702C299.128 318.383 299.187 319.063 299.246 319.772L299.246 319.775C299.605 323.851 300.566 327.511 302.418 330.643C304.273 333.781 307.008 336.361 310.872 338.296C314.851 340.288 318.601 342.869 322.003 345.806L322.005 345.808C324.741 348.14 325.968 350.263 325.968 352.311C325.968 354.363 324.737 356.516 322.118 358.907C320.594 360.198 319.077 361.366 317.447 362.415L317.437 362.421L317.437 362.422C313.789 364.896 311.654 366.73 310.915 369.08C310.176 371.428 310.872 374.163 312.401 378.285L312.404 378.293L312.407 378.302C313.244 380.337 314.2 382.25 315.272 384.159L315.275 384.164C315.916 385.273 316.398 386.286 316.674 387.199C316.95 388.112 317.011 388.892 316.848 389.552C316.535 390.817 315.314 391.903 312.294 392.543C312.294 392.543 312.294 392.543 312.293 392.543L312.397 393.032C308.968 393.743 308.849 395.401 310.859 398.006L306.693 298.789ZM306.693 298.789L306.685 298.79M306.693 298.789L306.685 298.79M306.685 298.79C305.251 299.029 304.069 299.127 303.112 299.029C302.147 298.931 301.368 298.63 300.801 298.035C300.241 297.446 299.95 296.635 299.821 295.647C299.692 294.66 299.718 293.442 299.837 291.982C301.842 264.462 297.947 238.293 282.652 214.728L282.651 214.728M306.685 298.79L282.651 214.728M282.651 214.728C277.669 207.016 271.055 201.073 261.416 197.514C261.949 199.055 262.481 200.577 263.008 202.085C265.99 210.619 268.814 218.699 270.67 227.018L270.671 227.019M282.651 214.728L270.671 227.019M270.671 227.019C277.791 259.107 273.634 289.886 260.471 319.695M270.671 227.019L260.471 319.695M260.471 319.695C253.16 336.306 244.064 351.945 234.976 367.568C230.381 375.467 225.789 383.362 221.431 391.376C207.376 417.28 196.781 444.068 197.606 474.254L197.606 474.255C197.841 483.462 198.902 492.659 201.255 501.614L201.257 501.623L201.259 501.633C201.304 501.835 201.405 502.06 201.536 502.335C201.549 502.361 201.561 502.387 201.574 502.414C201.688 502.651 201.822 502.929 201.901 503.199C201.992 503.505 202.039 503.891 201.849 504.265C201.662 504.634 201.301 504.88 200.834 505.049C200.403 505.227 199.993 505.268 199.61 505.171C199.228 505.074 198.927 504.853 198.69 504.597C198.264 504.137 197.973 503.48 197.754 502.984C197.741 502.954 197.728 502.925 197.715 502.896C193.667 494.31 191.528 485.254 190.578 475.977L190.578 475.976C187.135 441.738 196.873 410.608 213.581 381.298L213.581 381.298C214.311 380.018 215.039 378.742 215.821 377.304C209.794 380.281 204.612 385.197 198.477 395.072C179.61 425.539 171.015 458.46 176.316 494.089C180.773 524.044 202.331 543.178 232.497 545.294L232.502 545.294C237.542 545.698 242.581 545.583 247.65 545.467C248.495 545.448 249.341 545.428 250.189 545.411L250.199 545.411C250.419 545.411 250.665 545.419 250.899 545.427C251.065 545.432 251.224 545.437 251.364 545.439C251.737 545.445 252.069 545.433 252.366 545.376C252.658 545.32 252.9 545.223 253.101 545.067C253.204 544.987 253.304 544.886 253.397 544.755C240.096 539.577 229.841 531.956 222.527 522.141C215.118 512.199 210.747 500.031 209.261 485.926C208.067 474.863 210.691 465.832 216.449 459.341C222.203 452.855 231.029 448.968 242.118 448.072L242.119 448.072C251.275 447.358 260.314 448.072 269.232 450.216C276.986 451.98 284.68 452.436 292.238 449.642C297.364 447.717 300.762 444.972 302.566 441.445C304.37 437.916 304.621 433.521 303.28 428.208C302.868 426.608 302.388 425.053 301.905 423.491C301.839 423.276 301.772 423.06 301.705 422.843C301.158 421.066 300.621 419.274 300.202 417.418L260.471 319.695Z" stroke="#7F4F29"/>
<path d="M69.9398 79.6793C69.9619 79.6916 70.0271 79.7219 70.1172 79.7219L70.1172 79.2219L70.1172 78.7219C70.4673 78.7219 70.633 78.7199 70.9048 78.6292L71.1912 79.0919L72.5215 79.1971C77.0225 79.553 80.4073 80.2668 83.5611 82.076C99.9538 87.0838 113.395 96.38 123.15 110.676L123.15 110.676L123.153 110.681C123.346 110.97 123.651 111.257 124.027 111.561C124.028 111.562 124.029 111.562 124.029 111.563C119.18 92.3789 111.677 75.0662 92.8307 65.4574C83.4482 60.7029 73.6197 62.2131 63.8071 63.721C63.5321 63.7632 63.2572 63.8055 62.9822 63.8476C52.002 65.64 41.6157 64.0841 31.5988 59.5461L31.5899 59.5421L31.5812 59.5377C31.2868 59.3903 30.9841 59.3118 30.6279 59.2404C30.547 59.2242 30.4617 59.2082 30.3726 59.1914C30.1217 59.1441 29.8417 59.0914 29.5518 59.0152C29.5274 59.0251 29.4958 59.0387 29.4552 59.0572C29.3583 59.1013 29.2314 59.1632 29.059 59.2489C31.6833 72.2641 37.7546 83.7889 46.2598 93.94L46.26 93.9403C60.8407 111.368 79.532 121.496 101.889 125.267C109.646 126.524 116.976 128.987 124.492 133.805C121.966 121.759 117.326 112.134 109.832 103.833L109.831 103.832C102.335 95.5035 93.0719 89.8566 83.1735 84.8977C83.0965 84.8737 83.0193 84.8498 82.9421 84.8258C79.5964 83.787 76.0697 82.692 72.2045 80.1114L71.3389 79.5335C71.2129 79.6516 71.0109 79.8059 70.6977 79.8353C70.5928 79.8696 70.4835 79.8814 70.3735 79.8682C70.2301 79.851 70.1203 79.7952 70.0518 79.7541C70.0177 79.7336 69.9884 79.7132 69.9698 79.7003C69.9517 79.6876 69.9448 79.6827 69.9398 79.6793ZM69.9398 79.6793C69.9306 79.6741 69.9288 79.6721 69.9358 79.6766C69.9371 79.6775 69.9384 79.6783 69.9398 79.6793ZM29.611 58.9935C29.6123 58.9932 29.613 58.993 29.6131 58.993L29.611 58.9935Z" stroke="#7F4F29"/>
<path d="M27.0194 152.093C20.8057 161.542 13.7519 170.075 1.30107 174.081C26.4271 187.342 50.51 195.103 76.864 181.212L76.8654 181.211C80.7873 179.161 84.5606 176.901 88.3723 174.617C91.059 173.008 93.7648 171.387 96.5552 169.821C102.934 166.238 109.672 162.991 117.38 160.987C95.3251 148.757 74.056 148.313 51.8411 156.192L51.3674 155.326C66.1684 143.835 83.1659 143.943 100.283 145.017C88.4687 138.349 76.1231 133.367 62.8367 131.466L62.836 131.466C56.3527 130.53 50.5663 131.235 45.4608 133.486C40.3542 135.738 35.8978 139.551 32.0973 144.88L32.0974 144.88L32.0904 144.889C30.8372 146.562 29.6463 148.291 28.4661 150.004C27.9833 150.704 27.5022 151.403 27.0194 152.093Z" stroke="#7F4F29"/>
<path d="M158.889 56.7309C166.574 71.6691 167.187 86.9339 161.567 103.093C172.215 90.0274 177.361 78.0023 177.692 66.6849C178.042 54.741 173.032 43.4918 163.274 32.5427L163.271 32.539C162.241 31.3604 161.202 30.1871 160.162 29.0124C157.034 25.4792 153.893 21.9329 150.957 18.1899C147.224 13.4327 144.449 8.23626 142.945 1.29894C125.395 28.5799 118.507 55.6732 133.116 85.5147C133.363 86.0158 133.611 86.517 133.86 87.0188C138.05 95.4775 142.311 104.077 141.464 114.387C148.903 107.071 153.996 98.4641 157.26 88.659C160.178 79.5869 159.285 70.61 158.373 61.4502C158.226 59.9732 158.079 58.4915 157.947 57.0038L158.889 56.7309Z" stroke="#7F4F29"/>
<path d="M221.124 104.084C212.474 115.725 200.716 122.897 186.751 127.441C196.988 130.855 207.575 131.109 216.724 127.938C226.284 124.625 234.303 117.565 238.742 106.393C241.56 99.2206 243.09 91.8025 244.27 84.2374L244.271 84.2356C245.218 78.3076 246.053 74.5562 247.542 71.0628C248.952 67.753 250.939 64.6976 254.115 60.251C245.511 59.8505 237.597 61.5277 229.739 63.1932C229.461 63.2521 229.183 63.311 228.905 63.3698C211.201 67.1271 198.314 77.213 189.748 93.1942C184.712 102.707 178.652 111.395 167.942 117.584C183.303 120.239 196.24 117.569 208.302 109.478C211.556 107.278 214.396 104.585 217.268 101.862C218.512 100.682 219.763 99.4965 221.055 98.3428C222.263 95.5982 223.988 93.1438 227.187 91.7882L228.277 91.3266L227.848 92.4296C227.667 92.8963 227.489 93.3658 227.311 93.8357C225.893 97.5823 224.462 101.362 221.124 104.084Z" stroke="#7F4F29"/>
<path d="M221.607 101.321L221.446 102.447C223.859 100.041 225.057 96.9542 226.312 93.7206C226.361 93.5957 226.409 93.4707 226.458 93.3454C224.264 94.5505 222.95 96.5186 221.953 98.8973L221.607 101.321Z" stroke="#7F4F29"/>
<path d="M82.8579 82.833L82.8579 82.8304C80.3711 81.4447 77.7727 80.7581 74.2922 80.5181C77.2986 82.3372 80.1037 83.2388 82.8579 84.0127L82.8579 84.0113L82.8579 84.007L82.8579 84.0028L82.8579 83.9986L82.8579 83.9943L82.8579 83.9901L82.8579 83.9859L82.8579 83.9817L82.8579 83.9775L82.8579 83.9733L82.8579 83.9691L82.8579 83.9649L82.8579 83.9607L82.8579 83.9565L82.8579 83.9523L82.8579 83.9481L82.8579 83.9439L82.8579 83.9397L82.8579 83.9355L82.8579 83.9313L82.8579 83.9272L82.8579 83.923L82.8579 83.9188L82.8579 83.9146L82.8579 83.9105L82.8579 83.9063L82.8579 83.9022L82.8579 83.898L82.8579 83.8938L82.8579 83.8897L82.8579 83.8855L82.8579 83.8814L82.8579 83.8772L82.8579 83.8731L82.8579 83.869L82.8579 83.8648L82.8579 83.8607L82.8579 83.8566L82.8579 83.8524L82.8579 83.8483L82.8579 83.8442L82.8579 83.8401L82.8579 83.8359L82.8579 83.8318L82.8579 83.8277L82.8579 83.8236L82.8579 83.8195L82.8579 83.8154L82.8579 83.8113L82.8579 83.8072L82.8579 83.8031L82.8579 83.799L82.8579 83.7949L82.8579 83.7908L82.8579 83.7867L82.8579 83.7826L82.8579 83.7785L82.8579 83.7744L82.8579 83.7703L82.8579 83.7663L82.8579 83.7622L82.8579 83.7581L82.8579 83.754L82.8579 83.75L82.8579 83.7459L82.8579 83.7418L82.8579 83.7378L82.8579 83.7337L82.8579 83.7296L82.8579 83.7256L82.8579 83.7215L82.8579 83.7175L82.8579 83.7134L82.8579 83.7093L82.8579 83.7053L82.8579 83.7013L82.8579 83.6972L82.8579 83.6932L82.8579 83.6891L82.8579 83.6851L82.8579 83.681L82.8579 83.677L82.8579 83.673L82.8579 83.6689L82.8579 83.6649L82.8579 83.6609L82.8579 83.6568L82.8579 83.6528L82.8579 83.6488L82.8579 83.6448L82.8579 83.6408L82.8579 83.6367L82.8579 83.6327L82.8579 83.6287L82.8579 83.6247L82.8579 83.6207L82.8579 83.6167L82.8579 83.6127L82.8579 83.6086L82.8579 83.6046L82.8579 83.6006L82.8579 83.5966L82.8579 83.5926L82.8579 83.5886L82.8579 83.5846L82.8579 83.5806L82.8579 83.5766L82.8579 83.5726L82.8579 83.5687L82.8579 83.5647L82.8579 83.5607L82.8579 83.5567L82.8579 83.5527L82.8579 83.5487L82.8579 83.5447L82.8579 83.5407L82.8579 83.5368L82.8579 83.5328L82.8579 83.5288L82.8579 83.5248L82.8579 83.5208L82.8579 83.5169L82.8579 83.5129L82.8579 83.5089L82.8579 83.5049L82.8579 83.501L82.8579 83.497L82.8579 83.493L82.8579 83.4891L82.8579 83.4851L82.8579 83.4811L82.8579 83.4772L82.8579 83.4732L82.8579 83.4692L82.8579 83.4653L82.8579 83.4613L82.8579 83.4573L82.8579 83.4534L82.8579 83.4494L82.8579 83.4455L82.8579 83.4415L82.8579 83.4376L82.8579 83.4336L82.8579 83.4297L82.8579 83.4257L82.8579 83.4217L82.8579 83.4178L82.8579 83.4138L82.8579 83.4099L82.8579 83.4059L82.8579 83.402L82.8579 83.398L82.8579 83.3941L82.8579 83.3902L82.8579 83.3862L82.8579 83.3823L82.8579 83.3783L82.8579 83.3744L82.8579 83.3704L82.8579 83.3665L82.8579 83.3625L82.8579 83.3586L82.8579 83.3547L82.8579 83.3507L82.8579 83.3468L82.8579 83.3428L82.8579 83.3389L82.8579 83.335L82.8579 83.331L82.8579 83.3271L82.8579 83.3232L82.8579 83.3192L82.8579 83.3153L82.8579 83.3113L82.8579 83.3074L82.8579 83.3035L82.8579 83.2995L82.8579 83.2956L82.8579 83.2917L82.8579 83.2877L82.8579 83.2838L82.8579 83.2799L82.8579 83.2759L82.8579 83.272L82.8579 83.2681L82.8579 83.2641L82.8579 83.2602L82.8579 83.2563L82.8579 83.2523L82.8579 83.2484L82.8579 83.2445L82.8579 83.2405L82.8579 83.2366L82.8579 83.2327L82.8579 83.2287L82.8579 83.2248L82.8579 83.2209L82.8579 83.217L82.8579 83.213L82.8579 83.2091L82.8579 83.2052L82.8579 83.2012L82.8579 83.1973L82.8579 83.1934L82.8579 83.1894L82.8579 83.1855L82.8579 83.1816L82.8579 83.1776L82.8579 83.1737L82.8579 83.1698L82.8579 83.1658L82.8579 83.1619L82.8579 83.158L82.8579 83.154L82.8579 83.1501L82.8579 83.1462L82.8579 83.1422L82.8579 83.1383L82.8579 83.1344L82.8579 83.1304L82.8579 83.1265L82.8579 83.1225L82.8579 83.1186L82.8579 83.1147L82.8579 83.1107L82.8579 83.1068L82.8579 83.1029L82.8579 83.0989L82.8579 83.095L82.8579 83.091L82.8579 83.0871L82.8579 83.0831L82.8579 83.0792L82.8579 83.0753L82.8579 83.0713L82.8579 83.0674L82.8579 83.0634L82.8579 83.0595L82.8579 83.0555L82.8579 83.0516L82.8579 83.0476L82.8579 83.0437L82.8579 83.0397L82.8579 83.0358L82.8579 83.0318L82.8579 83.0279L82.8579 83.0239L82.8579 83.02L82.8579 83.016L82.8579 83.0121L82.8579 83.0081L82.8579 83.0042L82.8579 83.0002L82.8579 82.9963L82.8579 82.9923L82.8579 82.9883L82.8579 82.9844L82.8579 82.9804L82.8579 82.9765L82.8579 82.9725L82.8579 82.9685L82.8579 82.9646L82.8579 82.9606L82.8579 82.9566L82.8579 82.9527L82.8579 82.9487L82.8579 82.9447L82.8579 82.9407L82.8579 82.9368L82.8579 82.9328L82.8579 82.9288L82.8579 82.9248L82.8579 82.9209L82.8579 82.9169L82.8579 82.9129L82.8579 82.9089L82.8579 82.9049L82.8579 82.901L82.8579 82.897L82.8579 82.893L82.8579 82.889L82.8579 82.885L82.8579 82.881L82.8579 82.877L82.8579 82.873L82.8579 82.869L82.8579 82.865L82.8579 82.861L82.8579 82.857L82.8579 82.853L82.8579 82.849L82.8579 82.845L82.8579 82.841L82.8579 82.837L82.8579 82.833Z" stroke="#7F4F29"/>
<path d="M317.939 295.004C318.047 295.097 318.153 295.195 318.257 295.294C318.338 295.188 318.422 295.081 318.504 294.974L318.506 294.972C318.576 294.882 318.645 294.793 318.713 294.706C318.574 294.676 318.463 294.683 318.371 294.709C318.242 294.745 318.097 294.832 317.939 295.004Z" stroke="#7F4F29"/>
<mask id="path-10-inside-1_18_1484" fill="white">
<path d="M124.724 112.853L125.091 113.22L124.724 112.975L124.724 112.853Z"/>
</mask>
<path d="M124.724 112.853L123.724 112.853L123.724 110.439L125.431 112.146L124.724 112.853ZM125.091 113.22L125.798 112.513L124.536 114.052L125.091 113.22ZM124.724 112.975L124.169 113.807L123.724 113.511L123.724 112.975L124.724 112.975ZM125.431 112.146L125.798 112.513L124.383 113.927L124.017 113.56L125.431 112.146ZM124.536 114.052L124.169 113.807L125.279 112.143L125.645 112.388L124.536 114.052ZM123.724 112.975L123.724 112.853L125.724 112.853L125.724 112.975L123.724 112.975Z" fill="#7F4F29" mask="url(#path-10-inside-1_18_1484)"/>
<mask id="path-12-inside-2_18_1484" fill="white">
<path d="M70.1105 79.2244C70.2288 79.3466 70.4653 79.4687 70.5835 79.4687C70.7018 79.4687 70.9383 79.3466 71.0565 79.2244C70.7018 79.1023 70.347 79.2244 70.1105 79.2244Z"/>
</mask>
<path d="M70.1105 79.2244L69.3921 79.92L67.7505 78.2244L70.1105 78.2244L70.1105 79.2244ZM71.0565 79.2244L71.3821 78.2789L72.8684 78.7907L71.775 79.92L71.0565 79.2244ZM70.829 78.5289C70.8042 78.5033 70.7898 78.4939 70.7935 78.4965C70.7951 78.4977 70.8002 78.501 70.8059 78.5039C70.8127 78.5074 70.8077 78.504 70.7886 78.4977C70.7785 78.4944 70.7581 78.4882 70.7289 78.4824C70.7017 78.477 70.651 78.4687 70.5835 78.4687L70.5835 80.4687C70.2739 80.4687 70.0066 80.3421 69.8882 80.2809C69.7362 80.2024 69.5489 80.082 69.3921 79.92L70.829 78.5289ZM70.5835 78.4687C70.5161 78.4687 70.4654 78.477 70.4381 78.4824C70.4089 78.4882 70.3886 78.4944 70.3785 78.4977C70.3593 78.504 70.3543 78.5074 70.3611 78.5039C70.3668 78.501 70.3719 78.4977 70.3736 78.4966C70.3773 78.4939 70.3628 78.5033 70.3381 78.5289L71.775 79.92C71.6182 80.0819 71.4309 80.2024 71.2789 80.2809C71.1605 80.342 70.8932 80.4687 70.5835 80.4687L70.5835 78.4687ZM70.731 80.17C70.7482 80.1759 70.7346 80.1647 70.6327 80.1743C70.5764 80.1796 70.5303 80.1866 70.4395 80.1986C70.3685 80.208 70.2429 80.2244 70.1105 80.2244L70.1105 78.2244C70.0964 78.2244 70.1038 78.2256 70.1769 78.2159C70.2302 78.2089 70.3394 78.193 70.4457 78.183C70.6689 78.1621 71.0101 78.1509 71.3821 78.2789L70.731 80.17Z" fill="#7F4F29" mask="url(#path-12-inside-2_18_1484)"/>
</svg>
