<svg width="16" height="21" viewBox="0 0 16 21" fill="none" xmlns="http://www.w3.org/2000/svg">
<path d="M14.0669 2.16797H13.2002V1.16797C13.2002 0.617969 12.8102 0.167969 12.3335 0.167969C11.8569 0.167969 11.4669 0.617969 11.4669 1.16797V2.16797H4.53353V1.16797C4.53353 0.617969 4.14353 0.167969 3.66686 0.167969C3.1902 0.167969 2.8002 0.617969 2.8002 1.16797V2.16797H1.93353C0.971529 2.16797 0.208862 3.06797 0.208862 4.16797L0.200195 18.168C0.200195 18.6984 0.382814 19.2071 0.707877 19.5822C1.03294 19.9573 1.47382 20.168 1.93353 20.168H14.0669C15.0202 20.168 15.8002 19.268 15.8002 18.168V4.16797C15.8002 3.06797 15.0202 2.16797 14.0669 2.16797ZM14.0669 17.168C14.0669 17.718 13.6769 18.168 13.2002 18.168H2.8002C2.32353 18.168 1.93353 17.718 1.93353 17.168V7.16797H14.0669V17.168ZM3.66686 9.16797H5.4002V11.168H3.66686V9.16797ZM7.13353 9.16797H8.86686V11.168H7.13353V9.16797ZM10.6002 9.16797H12.3335V11.168H10.6002V9.16797Z" fill="white"/>
</svg>
