<svg width="28" height="28" viewBox="0 0 28 28" fill="none" xmlns="http://www.w3.org/2000/svg">
<path d="M18.0962 22.2351H14.4166C14.745 22.92 14.8052 23.6087 14.5342 24.3106C14.3112 24.8874 13.931 25.3362 13.3955 25.6495C12.3782 26.245 11.0795 26.0691 10.2787 25.2176C9.49381 24.3821 9.18137 23.0621 10.0443 21.871C9.33006 21.4354 8.91881 20.7946 8.80777 19.9714C8.69578 19.1397 8.95551 18.4237 9.54745 17.8121C9.5211 17.783 9.49663 17.7491 9.46464 17.7237C8.83882 17.2203 8.4511 16.5768 8.26477 15.794C7.97491 14.5727 7.65871 13.3572 7.35381 12.1387C6.91526 10.3878 6.47955 8.63594 6.03818 6.885C5.9149 6.39764 5.80762 5.90275 5.63917 5.43138C5.28532 4.43971 4.57575 3.80369 3.5641 3.52049C3.29966 3.44711 3.02016 3.41888 2.74442 3.39724C2.3614 3.36619 2.08191 3.15356 2.01227 2.80544C1.94074 2.44792 2.18919 2.06593 2.57032 2.01794C2.83665 1.98501 3.11803 2.00007 3.38529 2.04147C4.41671 2.19859 5.29756 2.66525 6.00901 3.42264C6.60659 4.05678 6.99055 4.80947 7.17971 5.66847C7.34628 6.42586 7.55237 7.17478 7.73776 7.92841C7.75753 8.01027 7.80176 8.01779 7.8714 8.01779C12.5156 8.01591 17.1598 8.01591 21.8049 8.01591C22.9578 8.01591 24.1115 8.01403 25.2643 8.01403C25.6427 8.01403 25.9306 8.22478 25.9918 8.57948C26.0153 8.71497 25.9843 8.86739 25.9494 9.00475C25.4074 11.1847 24.8616 13.3637 24.3157 15.5428C24.2085 15.9699 24.1143 16.4037 23.881 16.7856C23.3474 17.6588 22.5804 18.2045 21.5725 18.3973C21.3513 18.4397 21.1227 18.4623 20.8978 18.4632C17.8016 18.467 14.7055 18.4651 11.6093 18.466C11.4494 18.466 11.2875 18.466 11.1313 18.4924C10.5732 18.5864 10.1855 19.0531 10.1827 19.6195C10.1799 20.2047 10.5713 20.693 11.1303 20.7899C11.2715 20.8144 11.4174 20.8219 11.5613 20.8219C14.4429 20.8229 17.3235 20.8219 20.2051 20.8219C20.7952 20.8219 21.3579 20.9386 21.8567 21.2641C22.4665 21.6621 22.8025 22.2511 22.9342 22.9539C23.0707 23.6774 22.9022 24.352 22.4882 24.9466C22.1249 25.4688 21.5951 25.7737 20.9759 25.9223C19.4212 26.2949 18.0915 25.1931 17.8543 23.8129C17.764 23.2879 17.8298 22.778 18.0783 22.2991C18.0849 22.2859 18.0877 22.2699 18.0981 22.2351H18.0962ZM24.4136 9.41497H8.11608C8.12172 9.45072 8.12266 9.47424 8.12831 9.49588C8.23277 9.91174 8.33817 10.3276 8.44169 10.7435C8.83223 12.3053 9.22184 13.868 9.61144 15.4299C9.72061 15.8664 9.90129 16.2616 10.241 16.5702C10.6438 16.9352 11.1275 17.0557 11.6573 17.0557C14.6594 17.0538 17.6614 17.0557 20.6634 17.0538C20.8356 17.0538 21.0079 17.0519 21.1791 17.0416C21.9518 16.9973 22.6547 16.4159 22.8439 15.6623C23.3069 13.8172 23.7671 11.9713 24.2292 10.1263C24.2875 9.89292 24.3506 9.65959 24.4145 9.41497H24.4136ZM20.4517 22.2238C19.775 22.2257 19.2189 22.746 19.2198 23.3773C19.2198 24.0698 19.7346 24.5806 20.4319 24.5806C21.085 24.5806 21.6111 24.0481 21.5885 23.3773C21.564 22.6566 21.0276 22.2417 20.4526 22.2247L20.4517 22.2238ZM13.2958 23.4036C13.3061 22.7855 12.7753 22.2341 12.1693 22.2229C11.3684 22.2087 10.9252 22.8579 10.9327 23.366C10.944 24.1281 11.4465 24.5731 12.1279 24.5769C12.7283 24.5806 13.2995 24.1356 13.2958 23.4027V23.4036Z" fill="black"/>
</svg>
