<svg width="24" height="24" viewBox="0 0 24 24" fill="none" xmlns="http://www.w3.org/2000/svg">
<path d="M12.7871 21.5025L2.99707 11.7125V13.7125C2.99707 14.2425 3.20707 14.7525 3.58707 15.1225L11.3771 22.9125C12.1571 23.6925 13.4271 23.6925 14.2071 22.9125L20.4171 16.7025C21.1971 15.9225 21.1971 14.6525 20.4171 13.8725L12.7871 21.5025Z" fill="#9E6A30"/>
<path d="M11.3771 17.9125C11.7671 18.3025 12.2771 18.5025 12.7871 18.5025C13.2971 18.5025 13.8071 18.3025 14.1971 17.9125L20.4071 11.7025C21.1871 10.9225 21.1871 9.6525 20.4071 8.8725L12.6171 1.0825C12.2471 0.712502 11.7371 0.502502 11.2071 0.502502H4.99707C3.89707 0.502502 2.99707 1.4025 2.99707 2.5025V8.7125C2.99707 9.2425 3.20707 9.7525 3.58707 10.1225L11.3771 17.9125ZM4.99707 2.5025H11.2071L18.9971 10.2925L12.7871 16.5025L4.99707 8.7125V2.5025Z" fill="#9E6A30"/>
<path d="M7.24707 6.0025C7.93743 6.0025 8.49707 5.44286 8.49707 4.7525C8.49707 4.06215 7.93743 3.5025 7.24707 3.5025C6.55671 3.5025 5.99707 4.06215 5.99707 4.7525C5.99707 5.44286 6.55671 6.0025 7.24707 6.0025Z" fill="#9E6A30"/>
</svg>
