<svg width="14" height="22" viewBox="0 0 14 22" fill="none" xmlns="http://www.w3.org/2000/svg">
<g clip-path="url(#clip0_10_132)">
<path d="M12.9047 0C12.9409 0.0117627 12.9771 0.0245056 13.0132 0.0352881C13.3139 0.125469 13.4049 0.244076 13.4059 0.540104C13.4059 1.60953 13.408 2.67895 13.41 3.7474C13.41 4.0297 13.2468 4.21889 12.9471 4.22575C12.3643 4.24045 11.7815 4.22771 11.1987 4.23947C10.8825 4.24535 10.5643 4.25907 10.2512 4.30024C9.72107 4.36984 9.37801 4.71978 9.30671 5.23538C9.28811 5.36771 9.27984 5.502 9.27881 5.63629C9.27571 6.34401 9.27777 7.05075 9.27777 7.75848C9.27777 7.80259 9.27777 7.84572 9.27777 7.90355C9.33874 7.90355 9.38937 7.90355 9.43897 7.90355C10.5105 7.90355 11.5821 7.90355 12.6536 7.90355C13.0918 7.90355 13.2809 8.07705 13.2881 8.49462C13.2933 8.83966 13.2902 9.18568 13.2902 9.5317C13.2902 10.2639 13.2902 10.9952 13.2902 11.7274C13.2902 11.8166 13.2829 11.9058 13.2674 11.994C13.224 12.2381 13.0277 12.393 12.7642 12.394C11.6544 12.394 10.5446 12.394 9.43381 12.394C9.38731 12.394 9.34081 12.394 9.27984 12.394V12.5449C9.27984 15.4807 9.27984 18.4155 9.27984 21.3512C9.27984 21.7669 9.08144 21.958 8.64641 21.958C7.45499 21.958 6.26356 21.958 5.07214 21.958C5.01634 21.958 4.96054 21.956 4.90577 21.9472C4.54514 21.8884 4.42114 21.7531 4.42011 21.4042C4.41907 18.4968 4.42011 15.5905 4.42011 12.6831C4.42011 12.5939 4.42011 12.5047 4.42011 12.394H4.25477C3.34648 12.394 2.43715 12.394 1.52886 12.394C1.10933 12.394 0.932632 12.2283 0.933665 11.8333C0.933665 11.0158 0.936765 10.1992 0.936765 9.38173C0.936765 9.0808 0.936765 8.77987 0.933665 8.47894C0.929532 8.07411 1.10416 7.90453 1.52886 7.90453C2.44129 7.90453 3.35475 7.90453 4.26717 7.90453C4.31367 7.90453 4.36017 7.90453 4.42011 7.90453C4.42321 7.85356 4.42837 7.81043 4.42837 7.7673C4.43251 6.8204 4.39841 5.87154 4.44697 4.92661C4.51621 3.59644 4.9781 2.39567 5.98766 1.43407C6.68206 0.773397 7.53145 0.362683 8.49348 0.1735C8.79314 0.114686 9.10314 0.0999829 9.40797 0.065675C9.43277 0.0627344 9.45654 0.0597937 9.48134 0.0431299C9.40591 0.0284265 9.33047 0.0147034 9.25504 0C10.4723 0 11.6896 0 12.9068 0L12.9047 0Z" fill="white"/>
</g>
<defs>
<clipPath id="clip0_10_132">
<rect width="12.4795" height="21.958" fill="white" transform="translate(0.931641)"/>
</clipPath>
</defs>
</svg>
