<svg width="24" height="25" viewBox="0 0 24 25" fill="none" xmlns="http://www.w3.org/2000/svg">
<g clip-path="url(#clip0_70_4157)">
<path d="M1 6.60001H23C23.2652 6.60001 23.5196 6.49465 23.7071 6.30712C23.8946 6.11958 24 5.86523 24 5.60001C24 5.3348 23.8946 5.08044 23.7071 4.89291C23.5196 4.70537 23.2652 4.60001 23 4.60001H1C0.734784 4.60001 0.48043 4.70537 0.292893 4.89291C0.105357 5.08044 0 5.3348 0 5.60001C0 5.86523 0.105357 6.11958 0.292893 6.30712C0.48043 6.49465 0.734784 6.60001 1 6.60001Z" fill="#374957"/>
<path d="M23 9.6H1C0.734784 9.6 0.48043 9.70536 0.292893 9.89289C0.105357 10.0804 0 10.3348 0 10.6C0 10.8652 0.105357 11.1196 0.292893 11.3071C0.48043 11.4946 0.734784 11.6 1 11.6H23C23.2652 11.6 23.5196 11.4946 23.7071 11.3071C23.8946 11.1196 24 10.8652 24 10.6C24 10.3348 23.8946 10.0804 23.7071 9.89289C23.5196 9.70536 23.2652 9.6 23 9.6Z" fill="#374957"/>
<path d="M23 19.6H1C0.734784 19.6 0.48043 19.7053 0.292893 19.8929C0.105357 20.0804 0 20.3348 0 20.6C0 20.8652 0.105357 21.1196 0.292893 21.3071C0.48043 21.4946 0.734784 21.6 1 21.6H23C23.2652 21.6 23.5196 21.4946 23.7071 21.3071C23.8946 21.1196 24 20.8652 24 20.6C24 20.3348 23.8946 20.0804 23.7071 19.8929C23.5196 19.7053 23.2652 19.6 23 19.6Z" fill="#374957"/>
<path d="M23 14.6H1C0.734784 14.6 0.48043 14.7054 0.292893 14.8929C0.105357 15.0805 0 15.3348 0 15.6C0 15.8653 0.105357 16.1196 0.292893 16.3071C0.48043 16.4947 0.734784 16.6 1 16.6H23C23.2652 16.6 23.5196 16.4947 23.7071 16.3071C23.8946 16.1196 24 15.8653 24 15.6C24 15.3348 23.8946 15.0805 23.7071 14.8929C23.5196 14.7054 23.2652 14.6 23 14.6Z" fill="#374957"/>
</g>
<defs>
<clipPath id="clip0_70_4157">
<rect width="24" height="24" fill="white" transform="translate(0 0.6)"/>
</clipPath>
</defs>
</svg>
