<svg width="43" height="23" viewBox="0 0 43 23" fill="none" xmlns="http://www.w3.org/2000/svg">
<g clip-path="url(#clip0_1_4122)">
<path d="M28.4903 1.63247C28.3843 1.63247 28.3045 1.63247 28.2246 1.63247C21.825 1.63556 15.4238 1.6402 9.02417 1.6402C8.85628 1.6402 8.68349 1.62628 8.52375 1.58295C8.14068 1.47928 7.88151 1.09863 7.92552 0.742734C7.97279 0.357441 8.29228 0.051063 8.69653 0.0139263C8.8302 0.00154736 8.96712 0.00154736 9.10242 0.00154736C15.8476 0 22.5944 0 29.3396 0C29.5009 0 29.6672 0.00618945 29.8204 0.0464209C30.241 0.156284 30.4969 0.529198 30.4072 0.931512C30.1888 1.90945 29.9508 2.88274 29.721 3.85758C29.6509 4.15776 29.5775 4.4564 29.5074 4.75814C29.496 4.80611 29.4977 4.85717 29.4928 4.9268C29.6085 4.9268 29.7079 4.9268 29.8074 4.9268C31.413 4.9268 33.017 4.93454 34.6226 4.9268C35.5126 4.92216 36.37 5.05988 37.216 5.31674C39.1753 5.91557 40.5967 7.11942 41.609 8.79057C42.2219 9.80099 42.5479 10.8934 42.5495 12.054C42.5495 12.5661 42.4191 13.0814 42.3229 13.592C41.9953 15.3266 41.6579 17.0581 41.3221 18.7912C41.296 18.9227 41.2748 19.0589 41.2227 19.1827C41.0711 19.5478 40.7662 19.7103 40.3652 19.7165C39.9724 19.7227 39.5796 19.7227 39.1867 19.7103C39.0596 19.7072 39.009 19.7351 38.9797 19.8542C38.7058 20.9699 38.018 21.8039 37.0024 22.4027C36.4596 22.723 35.8581 22.8855 35.2257 22.9613C33.0121 23.2259 31.1245 21.7853 30.598 19.8929C30.5523 19.7304 30.4822 19.7057 30.3192 19.7072C28.9304 19.718 27.5432 19.718 26.1544 19.718C24.1364 19.718 22.1184 19.7165 20.1004 19.7119C19.9798 19.7119 19.9358 19.7536 19.9097 19.8589C19.4663 21.6909 17.7352 22.7849 16.1084 22.9752C14.3968 23.1749 12.0887 22.1196 11.5182 19.8991C11.479 19.7443 11.4073 19.7149 11.2541 19.7165C10.4896 19.7242 9.72347 19.7227 8.95734 19.7196C8.42431 19.718 8.06896 19.4937 7.95323 19.0991C7.82608 18.6674 8.11623 18.2125 8.58732 18.1165C8.73239 18.0871 8.88236 18.0747 9.03069 18.0747C9.78867 18.0701 10.5483 18.0716 11.3063 18.0747C11.4138 18.0747 11.4904 18.0732 11.5247 17.9417C11.8425 16.7285 12.5842 15.8233 13.7595 15.2539C15.0782 14.6148 16.4214 14.6319 17.7156 15.274C18.8241 15.8233 19.5543 16.7084 19.8755 17.8689C19.9195 18.0299 19.9847 18.0794 20.1591 18.0778C21.5479 18.0701 22.9367 18.067 24.3239 18.0809C24.5407 18.0825 24.5798 17.9927 24.6173 17.8349C25.0998 15.811 25.5839 13.787 26.0697 11.7646C26.6206 9.47295 27.1716 7.18131 27.7225 4.88967C27.9654 3.88543 28.2099 2.88119 28.4528 1.8754C28.4707 1.80422 28.474 1.72995 28.4887 1.63402L28.4903 1.63247ZM30.5409 18.0624C31.144 15.7181 33.2028 14.7773 34.841 14.7912C36.6324 14.8052 38.4939 15.9874 39.0286 18.0716C39.1932 18.0716 39.3628 18.0624 39.5307 18.0747C39.6757 18.084 39.723 18.0361 39.7491 17.8983C40.0637 16.286 40.393 14.6767 40.7043 13.0644C40.7842 12.6512 40.8934 12.2211 40.8526 11.811C40.6717 10.0362 39.8175 8.60643 38.2592 7.58362C37.2127 6.8966 36.0407 6.5701 34.766 6.5701C32.9306 6.5701 31.0951 6.56082 29.2613 6.54999C29.1195 6.54999 29.0771 6.6026 29.0494 6.7202C28.8766 7.45829 28.6973 8.19483 28.5196 8.93138C27.9785 11.1859 27.4373 13.4404 26.8961 15.6949C26.707 16.481 26.5196 17.267 26.3288 18.0639H30.5409V18.0624ZM15.6944 21.3644C17.1451 21.3784 18.2992 20.2983 18.3106 18.915C18.3236 17.5626 17.1484 16.4361 15.7156 16.4283C14.2681 16.4191 13.1172 17.4806 13.1042 18.8376C13.0895 20.2302 14.2387 21.3505 15.6927 21.3644H15.6944ZM34.7758 21.3644C36.1679 21.3861 37.3578 20.2751 37.3806 18.9304C37.4051 17.5424 36.282 16.4407 34.8002 16.433C33.1686 16.4253 32.2574 17.6972 32.1758 18.7308C32.0666 20.125 33.3723 21.4109 34.7774 21.3644H34.7758Z" fill="white"/>
<path d="M7.06323 14.7912C5.39079 14.7912 3.71673 14.7974 2.04429 14.7835C1.81771 14.782 1.56668 14.7278 1.37108 14.6226C1.05974 14.457 0.909772 14.163 0.978234 13.821C1.0467 13.4837 1.28794 13.2733 1.63841 13.1866C1.75577 13.1572 1.87966 13.1433 2.00028 13.1433C5.36634 13.1418 8.73241 13.1402 12.1001 13.1433C12.656 13.1433 13.0064 13.3909 13.0879 13.8226C13.171 14.2682 12.8793 14.6783 12.4066 14.7618C12.268 14.7866 12.1246 14.7897 11.9827 14.7912C10.3429 14.7928 8.7047 14.7912 7.06486 14.7912H7.06323Z" fill="white"/>
<path d="M7.93365 8.2134C9.29474 8.2134 10.6558 8.2134 12.0169 8.21495C12.1506 8.21495 12.2875 8.22733 12.4196 8.25209C12.8271 8.32791 13.1074 8.65749 13.1058 9.04588C13.1042 9.42189 12.8222 9.75303 12.4261 9.8304C12.294 9.85515 12.1571 9.86134 12.0218 9.86289C9.28007 9.86444 6.53669 9.86289 3.79494 9.86289C3.40372 9.86289 3.05 9.78243 2.83809 9.43272C2.55284 8.96232 2.82668 8.37123 3.38742 8.25827C3.53739 8.22733 3.6955 8.2165 3.85036 8.2165C5.21146 8.2134 6.57255 8.21495 7.93365 8.21495V8.2134Z" fill="white"/>
<path d="M8.74703 4.93454C7.66468 4.93454 6.58069 4.93609 5.49833 4.93299C5.34348 4.93299 5.18373 4.92371 5.03703 4.88348C4.66211 4.7829 4.44532 4.46878 4.45673 4.07575C4.46651 3.72605 4.73547 3.41039 5.10549 3.33147C5.23589 3.30362 5.37282 3.2866 5.50648 3.2866C7.69891 3.2835 9.89133 3.2835 12.0854 3.2866C12.6526 3.2866 13.0064 3.53263 13.0862 3.97208C13.1661 4.40844 12.8792 4.81539 12.4195 4.90359C12.2875 4.92835 12.1506 4.93454 12.0153 4.93454C10.9264 4.93763 9.83591 4.93454 8.74703 4.93454Z" fill="white"/>
</g>
<defs>
<clipPath id="clip0_1_4122">
<rect width="41.5892" height="23" fill="white" transform="translate(0.961914)"/>
</clipPath>
</defs>
</svg>
