<svg width="24" height="22" viewBox="0 0 24 22" fill="none" xmlns="http://www.w3.org/2000/svg">
<g clip-path="url(#clip0_10_126)">
<path d="M11.9266 0.000655623C13.4957 0.000655623 15.0648 -0.000819529 16.6338 0.000655623C17.9836 0.00213078 19.28 0.230779 20.4406 0.916725C22.3352 2.03637 23.2947 3.69739 23.4839 5.78128C23.5202 6.17958 23.5181 6.5818 23.5186 6.98255C23.5212 9.79566 23.5196 12.6093 23.5202 15.4224C23.5202 16.7102 23.2905 17.9478 22.583 19.0675C21.5639 20.6813 20.0197 21.562 18.0956 21.8693C17.5974 21.9489 17.0843 21.9735 16.5778 21.975C13.4397 21.9844 10.3016 21.9789 7.16347 21.9799C5.61411 21.9804 4.17619 21.6288 2.91866 20.7413C1.43046 19.691 0.644637 18.2547 0.417079 16.5302C0.363688 16.126 0.353321 15.715 0.352803 15.3068C0.349174 12.2562 0.328958 9.2056 0.364207 6.15548C0.385459 4.32039 1.04895 2.71346 2.54441 1.48417C3.64539 0.578424 4.95528 0.0965405 6.39319 0.0498274C8.23543 -0.00967044 10.0818 0.0355676 11.9261 0.0355676C11.9261 0.0237663 11.9261 0.0124568 11.9261 0.000655623H11.9266ZM11.9251 19.9501C13.3993 19.9501 14.873 19.9526 16.3472 19.9486C16.6914 19.9477 17.0381 19.9462 17.3797 19.9098C19.0908 19.7269 20.3857 18.9696 21.088 17.4301C21.3726 16.8061 21.4654 16.1432 21.4649 15.4666C21.4638 12.5557 21.4659 9.64471 21.4623 6.73374C21.4623 6.4156 21.4576 6.09402 21.4136 5.77981C21.2316 4.48856 20.6625 3.4058 19.4651 2.69379C18.6927 2.23453 17.8302 2.05112 16.9272 2.04964C13.6517 2.04472 10.3762 2.0462 7.10075 2.04964C6.82602 2.04964 6.5487 2.06685 6.27656 2.10324C4.63079 2.325 3.41887 3.09454 2.8124 4.60952C2.57395 5.20499 2.49154 5.82849 2.49102 6.46231C2.48894 9.47113 2.48687 12.4804 2.49465 15.4893C2.49568 15.8472 2.52575 16.2101 2.59106 16.5622C2.86423 18.0447 3.6993 19.1063 5.21497 19.6398C5.86136 19.8675 6.53419 19.9486 7.21893 19.9496C8.78748 19.9516 10.3565 19.9501 11.9251 19.9501Z" fill="white"/>
<path d="M17.906 10.9547C17.9039 14.0859 15.2173 16.6276 11.9138 16.6227C8.615 16.6178 5.95325 14.0874 5.95117 10.9557C5.9491 7.82687 8.64092 5.27634 11.9387 5.28224C15.2157 5.28814 17.9081 7.84703 17.906 10.9547ZM11.932 14.5796C14.0396 14.5786 15.7699 12.9373 15.7657 10.9434C15.7616 8.96372 14.0339 7.32286 11.9439 7.31303C9.84506 7.30319 8.1096 8.94553 8.10546 10.9444C8.10131 12.9461 9.82173 14.5806 11.932 14.5796Z" fill="white"/>
<path d="M18.1437 6.42467C17.3921 6.42467 16.798 5.86313 16.7949 5.15014C16.7913 4.42977 17.3967 3.8584 18.1582 3.86331C18.9005 3.86823 19.5033 4.44747 19.4992 5.15161C19.4956 5.85624 18.8901 6.42516 18.1437 6.42467Z" fill="white"/>
</g>
<defs>
<clipPath id="clip0_10_126">
<rect width="23.1762" height="21.9812" fill="white" transform="translate(0.34375)"/>
</clipPath>
</defs>
</svg>
