<svg width="70" height="60" viewBox="0 0 70 60" fill="none" xmlns="http://www.w3.org/2000/svg">
<g clip-path="url(#clip0_4_8528)">
<path d="M28.0598 4.43174C17.1538 9.09682 10.2136 20.4006 10.2136 29.5514C10.2136 31.525 11.0398 33.1399 11.866 33.1399C12.527 33.1399 14.6752 30.0896 19.4672 30.0896C25.5812 30.0896 30.8689 36.7284 30.8689 44.2643C30.8689 52.6973 24.7549 59.5155 16.9885 59.5155C7.56972 59.5155 0.464294 50.1853 0.464294 37.6255C0.464294 20.0418 10.5441 6.58485 28.0598 0.484375V4.43174ZM66.7265 4.43174C55.8205 9.09682 48.8804 20.4006 48.8804 29.5514C48.8804 31.525 49.7066 33.1399 50.5328 33.1399C51.1938 33.1399 53.3419 30.0896 58.1339 30.0896C64.2479 30.0896 69.5357 36.7284 69.5357 44.2643C69.5357 52.6973 63.4217 59.5155 55.6553 59.5155C46.2365 59.5155 39.131 50.1853 39.131 37.6255C39.131 20.0418 49.2108 6.58485 66.7265 0.484375V4.43174Z" fill="white"/>
</g>
<defs>
<clipPath id="clip0_4_8528">
<rect width="69.0714" height="59.0311" fill="white" transform="translate(0.464294 0.484375)"/>
</clipPath>
</defs>
</svg>
