<svg width="28" height="28" viewBox="0 0 28 28" fill="none" xmlns="http://www.w3.org/2000/svg">
<path d="M19.5657 18.594C19.7697 18.7981 19.9662 18.9984 20.1655 19.1949C21.8128 20.8121 23.46 22.4275 25.1073 24.0448C25.3245 24.2582 25.5398 24.4736 25.7532 24.6917C25.9619 24.9052 26.0588 25.1543 25.9629 25.4496C25.8632 25.7561 25.6441 25.9329 25.3301 25.9902C25.158 26.0213 24.9944 25.9761 24.8487 25.8868C24.7566 25.8304 24.6691 25.7608 24.5911 25.6856C23.5879 24.7058 22.5847 23.727 21.5862 22.7425C20.8293 21.9969 20.079 21.2456 19.325 20.4971C19.0702 20.2442 18.8088 19.9969 18.5568 19.7412C18.4779 19.6612 18.4309 19.6443 18.3293 19.7233C17.0976 20.6861 15.7108 21.3152 14.183 21.6396C13.0773 21.8746 11.9632 21.9433 10.8425 21.7985C9.50548 21.6255 8.24842 21.2052 7.0741 20.5376C6.33322 20.1163 5.66285 19.6011 5.03573 19.0303C4.78564 18.8028 4.56281 18.5423 4.34468 18.2819C3.50132 17.2701 2.86009 16.1446 2.46051 14.8856C2.21699 14.1193 2.06656 13.336 2.01861 12.5349C1.8804 10.2021 2.51316 8.09023 3.87928 6.20122C4.18673 5.77528 4.51862 5.35779 4.89188 4.99015C5.88756 4.00662 7.03743 3.245 8.3415 2.72409C9.03631 2.44671 9.75275 2.24643 10.4899 2.12983C11.4667 1.97563 12.4464 1.95494 13.4299 2.08846C14.2855 2.20412 15.1148 2.41756 15.9111 2.74195C17.0854 3.22149 18.1403 3.89567 19.0599 4.77294C20.6112 6.25294 21.6116 8.03381 22.0159 10.1466C22.1964 11.0878 22.2284 12.0309 22.1221 12.9787C22.0366 13.7441 21.8645 14.4916 21.6041 15.2184C21.2186 16.2988 20.6479 17.2729 19.923 18.1587C19.8045 18.3035 19.6851 18.4464 19.5629 18.594H19.5657ZM12.264 20.3411C12.4464 20.3288 12.8065 20.3232 13.1619 20.2762C13.9254 20.1756 14.6738 20.0035 15.3865 19.7036C16.778 19.1187 17.9514 18.2433 18.8803 17.0492C19.9192 15.713 20.5012 14.2011 20.6131 12.5076C20.6808 11.4921 20.5849 10.4945 20.2849 9.52321C19.75 7.7931 18.7609 6.37611 17.3158 5.27881C16.1386 4.38555 14.8233 3.82703 13.3566 3.62675C12.5753 3.5205 11.793 3.50451 11.0098 3.59478C10.2576 3.68129 9.52992 3.87028 8.83135 4.15801C7.66079 4.64037 6.64537 5.34275 5.78132 6.27738C4.75743 7.38503 4.0739 8.6638 3.74671 10.1306C3.54551 11.0323 3.51918 11.9472 3.60756 12.8659C3.69594 13.7836 3.94979 14.6552 4.34468 15.4864C5.03009 16.9288 6.0521 18.0844 7.38437 18.956C8.80972 19.8888 10.3874 20.3288 12.265 20.3392L12.264 20.3411Z" fill="black"/>
</svg>
