<svg width="60" height="60" viewBox="0 0 60 60" fill="none" xmlns="http://www.w3.org/2000/svg">
<g clip-path="url(#clip0_773_5458)">
<path d="M1.26316 9.82105C4.02632 10.3737 6.17368 12.5211 6.72632 15.2842C6.86842 16.0263 7.51579 16.5474 8.27368 16.5474C9.03158 16.5474 9.67895 16.0105 9.82105 15.2842C10.3737 12.5211 12.5211 10.3737 15.2842 9.82105C16.0263 9.67895 16.5474 9.03158 16.5474 8.27368C16.5474 7.51579 16.0105 6.86842 15.2842 6.72632C12.5211 6.17368 10.3737 4.02632 9.82105 1.26316C9.67895 0.521053 9.03158 0 8.27368 0C7.51579 0 6.86842 0.536842 6.72632 1.26316C6.17368 4.02632 4.02632 6.17368 1.26316 6.72632C0.521053 6.86842 0 7.51579 0 8.27368C0 9.03158 0.536842 9.67895 1.26316 9.82105ZM8.27368 5.58947C8.98421 6.64737 9.9 7.56316 10.9579 8.27368C9.9 8.98421 8.98421 9.9 8.27368 10.9579C7.56316 9.9 6.64737 8.98421 5.58947 8.27368C6.64737 7.56316 7.56316 6.64737 8.27368 5.58947Z" fill="#D1AE62"/>
<path d="M41.937 9.82105C44.7001 10.3737 46.8475 12.5211 47.4001 15.2842C47.5422 16.0263 48.1896 16.5474 48.9475 16.5474C49.7054 16.5474 50.3528 16.0105 50.4949 15.2842C51.0475 12.5211 53.1949 10.3737 55.958 9.82105C56.7001 9.67895 57.2212 9.03158 57.2212 8.27368C57.2212 7.51579 56.6844 6.86842 55.958 6.72632C53.1949 6.17368 51.0475 4.02632 50.4949 1.26316C50.3528 0.521053 49.7054 0 48.9475 0C48.1896 0 47.5422 0.536842 47.4001 1.26316C46.8475 4.02632 44.7001 6.17368 41.937 6.72632C41.1949 6.86842 40.6738 7.51579 40.6738 8.27368C40.6738 9.03158 41.2107 9.67895 41.937 9.82105ZM48.9475 5.58947C49.658 6.64737 50.5738 7.56316 51.6317 8.27368C50.5738 8.98421 49.658 9.9 48.9475 10.9579C48.237 9.9 47.3212 8.98421 46.2633 8.27368C47.3212 7.56316 48.237 6.64737 48.9475 5.58947Z" fill="#D1AE62"/>
<path d="M50.3684 43.3741C56.1474 36.2373 56.1474 26.4005 56.1474 25.9426C56.1474 25.0899 55.4368 24.3794 54.5842 24.3794C54.3316 24.3952 50.8263 24.3952 46.5316 25.5636C45.9158 21.0952 44.5263 17.8426 44.4632 17.6847C44.1158 16.8952 43.2 16.532 42.4105 16.8636C42.2526 16.9268 39.1895 18.2057 35.7789 20.8426C33.6158 17.1794 31.2947 14.8426 31.1053 14.6689C30.4895 14.0531 29.5105 14.0531 28.8947 14.6689C28.7053 14.8426 26.2263 17.3373 24.0158 21.1899C20.4316 18.4583 17.1632 17.1478 17.0053 17.0847C16.2 16.7689 15.2842 17.1478 14.9684 17.9531C14.9053 18.0952 13.6421 21.1741 13.0895 25.4373C8.96842 24.3636 5.66842 24.3636 5.41579 24.3794C4.56316 24.3794 3.85263 25.0899 3.85263 25.9426C3.85263 26.4005 3.85263 36.2373 9.63158 43.3741C4.76842 44.7162 0 46.9268 0 50.5268C0 56.2741 12.1895 59.0847 23.6053 59.7952H23.7C24.5211 59.7952 25.2158 59.1478 25.2789 58.311C25.3263 57.4426 24.6632 56.7005 23.7947 56.6373C10.5158 55.8162 3.15789 52.5005 3.15789 50.5268C3.15789 49.5162 5.57368 47.5268 12.1421 45.9952C17.1947 50.6847 22.5474 53.3215 26.5737 53.3215C27.8684 53.3215 29.0211 53.0373 30 52.4689C30.9789 53.0373 32.1316 53.3215 33.4263 53.3215C37.4526 53.3215 42.8053 50.6847 47.8579 45.9952C54.4263 47.5268 56.8421 49.5162 56.8421 50.5268C56.8421 52.5005 49.4842 55.8162 36.2053 56.6373C35.3368 56.7005 34.6737 57.4426 34.7211 58.311C34.7842 59.1478 35.4789 59.7952 36.3 59.7952H36.3947C47.8105 59.0847 60 56.2741 60 50.5268C60 46.9268 55.2316 44.7162 50.3684 43.3741ZM42.1263 20.4952C42.5842 21.8689 43.1842 24.0478 43.4684 26.5741C41.9684 27.1583 40.4526 27.9005 38.9842 28.8478C38.5895 27.0005 37.9895 25.2794 37.2632 23.7005C39.1263 22.2162 40.9263 21.1426 42.1263 20.4952ZM17.3368 20.7162C18.6158 21.3636 20.5737 22.5005 22.5632 24.0794C21.9158 25.5478 21.3789 27.1583 21.0158 28.8478C19.4211 27.8215 17.7632 27.0162 16.1526 26.4162C16.4211 24.0478 16.9421 22.0268 17.3368 20.7162ZM13.2632 42.711C8.52632 37.9899 7.37368 30.8373 7.10526 27.632C9.96316 27.8847 15.9474 28.8478 20.5579 32.4162C20.5579 32.6689 20.5263 32.9057 20.5263 33.1583C20.5263 40.7531 22.5474 47.0215 25.6105 50.0847C22.3895 49.6268 17.6526 47.1005 13.2632 42.711ZM30 48.9478C27.0158 48.9478 23.6842 42.1899 23.6842 33.1583C23.6842 26.4794 27.9316 20.6057 30 18.1426C32.0684 20.6057 36.3158 26.4794 36.3158 33.1583C36.3158 42.1899 32.9842 48.9478 30 48.9478ZM46.7368 42.711C42.3474 47.1005 37.6105 49.6268 34.3895 50.0847C37.4526 47.0215 39.4737 40.7531 39.4737 33.1583C39.4737 32.9057 39.4421 32.6689 39.4421 32.4162C44.0526 28.8478 50.0368 27.8847 52.8947 27.632C52.6263 30.8373 51.4895 37.9741 46.7368 42.711Z" fill="#D1AE62"/>
<path d="M29.9998 59.9997C30.8719 59.9997 31.5788 59.2928 31.5788 58.4207C31.5788 57.5487 30.8719 56.8418 29.9998 56.8418C29.1278 56.8418 28.4209 57.5487 28.4209 58.4207C28.4209 59.2928 29.1278 59.9997 29.9998 59.9997Z" fill="#D1AE62"/>
</g>
<defs>
<clipPath id="clip0_773_5458">
<rect width="60" height="60" fill="white"/>
</clipPath>
</defs>
</svg>
