<svg width="60" height="60" viewBox="0 0 60 60" fill="none" xmlns="http://www.w3.org/2000/svg">
<g clip-path="url(#clip0_773_5446)">
<path d="M58.0421 45.1263C61.1684 41.7632 59.6211 35.5421 59.4316 34.8316C59.2895 34.2947 58.8632 33.8684 58.3263 33.7263C57.6158 33.5368 51.5526 32.0211 48.1579 34.9895C46.6895 33.7105 44.7474 33.2526 42.9316 33.1737C41.6053 30.8684 39.3789 29.2579 36.8053 28.6737C38.4632 26.9684 39.4737 24.6632 39.4737 22.1053C39.4737 17.8421 36.6474 14.2421 32.7789 13.0421C33.979 11.6684 34.7368 9.86842 34.7368 7.89474C34.7368 3.53684 31.2 0 26.8421 0H17.3684C13.0105 0 9.47368 3.53684 9.47368 7.89474C9.47368 9.86842 10.2316 11.6684 11.4316 13.0421C7.56316 14.2421 4.73684 17.8421 4.73684 22.1053C4.73684 24.6474 5.74737 26.9526 7.38947 28.6579C5.65263 29.0526 4.05789 29.9053 2.76316 31.2C0.978947 33 0 35.3684 0 37.8947C0 40.4211 1.08947 42.9158 2.82632 44.6368C1.18421 45.3947 0 47.0526 0 48.9474C0 51.5526 2.13158 53.6842 4.73684 53.6842H6.31579V58.4211C6.31579 59.2895 7.02632 60 7.89474 60H14.2105C15.0789 60 15.7895 59.2895 15.7895 58.4211V53.6842H22.1053C22.9737 53.6842 23.6842 52.9737 23.6842 52.1053C23.6842 51.2368 22.9737 50.5263 22.1053 50.5263H4.73684C3.86842 50.5263 3.15789 49.8158 3.15789 48.9474C3.15789 48.0789 3.9 47.3684 4.73684 47.3684H55.2632C56.1316 47.3684 56.8421 48.0789 56.8421 48.9474C56.8421 49.3737 56.6842 49.7526 56.3526 50.0684C56.0684 50.3684 55.6895 50.5263 55.2632 50.5263H34.7368C33.8684 50.5263 33.1579 51.2368 33.1579 52.1053C33.1579 52.9737 33.8684 53.6842 34.7368 53.6842H44.2105V58.4211C44.2105 59.2895 44.9211 60 45.7895 60H52.1053C52.9737 60 53.6842 59.2895 53.6842 58.4211V53.6842H55.2632C56.5421 53.6842 57.7421 53.179 58.5947 52.3105C59.4947 51.4263 60 50.2263 60 48.9474C60 47.3842 59.2263 45.9947 58.0421 45.1263ZM9.47368 53.6842H12.6316V56.8421H9.47368V53.6842ZM17.3684 3.15789H26.8421C29.4474 3.15789 31.5789 5.28947 31.5789 7.89474C31.5789 10.5 29.4474 12.6316 26.8421 12.6316H17.3684C14.7632 12.6316 12.6316 10.5 12.6316 7.89474C12.6316 5.28947 14.7632 3.15789 17.3684 3.15789ZM14.2105 15.7895H30C33.4895 15.7895 36.3158 18.6158 36.3158 22.1053C36.3158 25.5947 33.4895 28.4211 30 28.4211H14.2105C10.7211 28.4211 7.89474 25.5947 7.89474 22.1053C7.89474 18.6158 10.7211 15.7895 14.2105 15.7895ZM37.9895 33.7105C37.4526 33.8684 37.0263 34.2947 36.8684 34.8316C36.6947 35.4789 35.4 40.7368 37.5632 44.2105H9.47368C5.98421 44.2105 3.15789 41.3842 3.15789 37.8947C3.15789 36.2053 3.82105 34.6263 4.98947 33.4263C6.20526 32.2421 7.78421 31.5789 9.47368 31.5789H34.7368C36.4579 31.5789 38.0368 32.2895 39.2053 33.4579C38.5895 33.5684 38.1474 33.6789 37.9895 33.7105ZM45.8211 40.4053L45.3474 39.9316C44.7316 39.3158 43.7211 39.3158 43.1053 39.9316C42.4895 40.5474 42.4895 41.5579 43.1053 42.1737L45.1263 44.1947C45.0316 44.1947 44.9211 44.2105 44.8263 44.2105H44.7158C43.0579 44.2421 41.5105 43.9421 40.6421 43.0579C39.1895 41.6053 39.3947 38.4316 39.7263 36.5684C41.5895 36.2368 44.7632 36.0316 46.2158 37.4842C46.2789 37.5316 46.3263 37.5947 46.3737 37.6579C46.0421 38.5579 45.8842 39.4895 45.8211 40.4053ZM55.6737 43.0579C54.7737 43.9579 53.1947 44.2263 51.6789 44.2105H51.6632C51.5053 44.2105 51.3474 44.1947 51.1895 44.1947L53.2105 42.1737C53.8263 41.5579 53.8263 40.5632 53.2105 39.9474C52.5947 39.3316 51.6 39.3316 50.9842 39.9474L48.9632 41.9526C48.8842 40.3105 49.0895 38.4789 50.1 37.4842C51.5368 36.0316 54.7263 36.2368 56.5895 36.5684C56.9211 38.4316 57.1263 41.6053 55.6737 43.0579ZM50.5263 56.8421H47.3684V53.6842H50.5263V56.8421Z" fill="#D1AE62"/>
<path d="M28.4212 53.6843C29.2933 53.6843 30.0002 52.9773 30.0002 52.1053C30.0002 51.2333 29.2933 50.5264 28.4212 50.5264C27.5492 50.5264 26.8423 51.2333 26.8423 52.1053C26.8423 52.9773 27.5492 53.6843 28.4212 53.6843Z" fill="#D1AE62"/>
</g>
<defs>
<clipPath id="clip0_773_5446">
<rect width="60" height="60" fill="white"/>
</clipPath>
</defs>
</svg>
