<svg width="60" height="60" viewBox="0 0 60 60" fill="none" xmlns="http://www.w3.org/2000/svg">
<g clip-path="url(#clip0_773_5452)">
<path d="M25.2632 34.7373H17.3685C16.5001 34.7373 15.7896 35.4478 15.7896 36.3163C15.7896 37.1847 16.5001 37.8952 17.3685 37.8952H25.2632C26.1317 37.8952 26.8422 37.1847 26.8422 36.3163C26.8422 35.4478 26.1317 34.7373 25.2632 34.7373Z" fill="#D1AE62"/>
<path d="M44.2103 36.3163C44.2103 35.4478 43.4998 34.7373 42.6314 34.7373H34.7367C33.8682 34.7373 33.1577 35.4478 33.1577 36.3163C33.1577 37.1847 33.8682 37.8952 34.7367 37.8952H42.6314C43.4998 37.8952 44.2103 37.1847 44.2103 36.3163Z" fill="#D1AE62"/>
<path d="M56.8421 15.7895H52.1053V9.47368C52.1053 5.98421 49.2789 3.15789 45.7895 3.15789H40.7684C40.1053 1.32632 38.3684 0 36.3158 0H23.6842C21.6316 0 19.8947 1.32632 19.2316 3.15789H14.2105C10.7211 3.15789 7.89474 5.98421 7.89474 9.47368V15.7895H3.15789C1.42105 15.7895 0 17.2105 0 18.9474V22.1053C0 23.8421 1.42105 25.2632 3.15789 25.2632V52.1053C3.15789 54.7105 5.28947 56.8421 7.89474 56.8421H9.75789C10.4211 58.6737 12.1579 60 14.2105 60H23.6842C24.5526 60 25.2632 59.2895 25.2632 58.4211C25.2632 57.5526 24.5526 56.8421 23.6842 56.8421H14.2105C13.3421 56.8421 12.6316 56.1316 12.6316 55.2632V45.7895C12.6316 44.9211 13.3421 44.2105 14.2105 44.2105H15.7895V48.9474C15.7895 51.5526 17.9211 53.6842 20.5263 53.6842C23.1316 53.6842 25.2632 51.5526 25.2632 48.9474V44.2105H34.7368V48.9474C34.7368 51.5526 36.8684 53.6842 39.4737 53.6842C42.0789 53.6842 44.2105 51.5526 44.2105 48.9474V44.2105H45.7895C46.6579 44.2105 47.3684 44.9211 47.3684 45.7895V55.2632C47.3684 56.1316 46.6579 56.8421 45.7895 56.8421H36.3158C35.4474 56.8421 34.7368 57.5526 34.7368 58.4211C34.7368 59.2895 35.4474 60 36.3158 60H45.7895C47.8421 60 49.5789 58.6737 50.2421 56.8421H52.1053C54.7105 56.8421 56.8421 54.7105 56.8421 52.1053V25.2632C58.5789 25.2632 60 23.8421 60 22.1053V18.9474C60 17.2105 58.5789 15.7895 56.8421 15.7895ZM22.1053 4.73684C22.1053 3.86842 22.8158 3.15789 23.6842 3.15789H36.3158C37.1842 3.15789 37.8947 3.86842 37.8947 4.73684V28.4211H22.1053V4.73684ZM11.0526 9.47368C11.0526 7.73684 12.4737 6.31579 14.2105 6.31579H18.9474V28.4211H17.3684C15.5842 28.4211 13.9579 29.0368 12.6316 30.0474V25.2632C14.3684 25.2632 15.7895 23.8421 15.7895 22.1053V18.9474C15.7895 17.2105 14.3684 15.7895 12.6316 15.7895H11.0526V9.47368ZM9.47368 45.7895V53.6842H7.89474C7.02632 53.6842 6.31579 52.9737 6.31579 52.1053V25.2632H9.47368V36.3158C9.47368 38.4474 10.3263 40.3737 11.7 41.7947C10.3737 42.6316 9.47368 44.1 9.47368 45.7895ZM3.15789 22.1053V18.9474H12.6316V22.1053H3.15789ZM22.1053 48.9474C22.1053 49.8158 21.3947 50.5263 20.5263 50.5263C19.6579 50.5263 18.9474 49.8158 18.9474 48.9474V44.2105H22.1053V48.9474ZM41.0526 48.9474C41.0526 49.8158 40.3421 50.5263 39.4737 50.5263C38.6053 50.5263 37.8947 49.8158 37.8947 48.9474V44.2105H41.0526V48.9474ZM42.6316 41.0526H17.3684C14.7632 41.0526 12.6316 38.9211 12.6316 36.3158C12.6316 33.7105 14.7632 31.5789 17.3684 31.5789H42.6316C45.2368 31.5789 47.3684 33.7105 47.3684 36.3158C47.3684 38.9211 45.2368 41.0526 42.6316 41.0526ZM47.3684 30.0474C46.0421 29.0368 44.4158 28.4211 42.6316 28.4211H41.0526V6.31579H45.7895C47.5263 6.31579 48.9474 7.73684 48.9474 9.47368V15.7895H47.3684C45.6316 15.7895 44.2105 17.2105 44.2105 18.9474V22.1053C44.2105 23.8421 45.6316 25.2632 47.3684 25.2632V30.0474ZM53.6842 52.1053C53.6842 52.9737 52.9737 53.6842 52.1053 53.6842H50.5263V45.7895C50.5263 44.1 49.6263 42.6316 48.3 41.7947C49.6737 40.3737 50.5263 38.4474 50.5263 36.3158V25.2632H53.6842V52.1053ZM56.8421 22.1053H47.3684V18.9474H56.8421V22.1053Z" fill="#D1AE62"/>
<path d="M26.8421 12.6315H33.1579C34.0263 12.6315 34.7369 11.921 34.7369 11.0526C34.7369 10.1842 34.0263 9.47363 33.1579 9.47363H26.8421C25.9737 9.47363 25.2632 10.1842 25.2632 11.0526C25.2632 11.921 25.9737 12.6315 26.8421 12.6315Z" fill="#D1AE62"/>
<path d="M26.8421 18.947H33.1579C34.0263 18.947 34.7369 18.2364 34.7369 17.368C34.7369 16.4996 34.0263 15.7891 33.1579 15.7891H26.8421C25.9737 15.7891 25.2632 16.4996 25.2632 17.368C25.2632 18.2364 25.9737 18.947 26.8421 18.947Z" fill="#D1AE62"/>
<path d="M26.8421 25.2634H33.1579C34.0263 25.2634 34.7369 24.5528 34.7369 23.6844C34.7369 22.816 34.0263 22.1055 33.1579 22.1055H26.8421C25.9737 22.1055 25.2632 22.816 25.2632 23.6844C25.2632 24.5528 25.9737 25.2634 26.8421 25.2634Z" fill="#D1AE62"/>
<path d="M29.9998 59.9997C30.8719 59.9997 31.5788 59.2928 31.5788 58.4207C31.5788 57.5487 30.8719 56.8418 29.9998 56.8418C29.1278 56.8418 28.4209 57.5487 28.4209 58.4207C28.4209 59.2928 29.1278 59.9997 29.9998 59.9997Z" fill="#D1AE62"/>
</g>
<defs>
<clipPath id="clip0_773_5452">
<rect width="60" height="60" fill="white"/>
</clipPath>
</defs>
</svg>
