<svg width="60" height="60" viewBox="0 0 60 60" fill="none" xmlns="http://www.w3.org/2000/svg">
<g clip-path="url(#clip0_773_5437)">
<path d="M56.8421 36.6V4.73684C56.8421 2.13158 54.7105 0 52.1053 0H42.6316C40.5632 0 38.8263 1.34211 38.1789 3.18947C38.0842 3.18947 37.9895 3.15789 37.8947 3.15789H22.1053C22.0105 3.15789 21.9158 3.17368 21.8211 3.18947C21.1737 1.34211 19.4368 0 17.3684 0H7.89474C5.28947 0 3.15789 2.13158 3.15789 4.73684V12.6316C3.15789 13.5 3.86842 14.2105 4.73684 14.2105C5.60526 14.2105 6.31579 13.5 6.31579 12.6316V4.73684C6.31579 3.86842 7.02632 3.15789 7.89474 3.15789H17.3684C18.1263 3.15789 18.7421 3.71053 18.8842 4.43684C17.9526 5.30526 17.3684 6.52105 17.3684 7.89474V37.0895C16.3263 36.4737 15.0474 36.4895 14.0368 37.1684L11.0526 39.1579L7.18421 36.5842C6.93158 36.4105 6.63158 36.3158 6.31579 36.3158V25.2632C6.31579 24.3947 5.60526 23.6842 4.73684 23.6842C3.86842 23.6842 3.15789 24.3947 3.15789 25.2632V36.6C1.32632 37.2632 0 39 0 41.0526V55.2632C0 57.8684 2.13158 60 4.73684 60H55.2632C57.8684 60 60 57.8684 60 55.2632V41.0526C60 39 58.6737 37.2632 56.8421 36.6ZM42.6316 3.15789H52.1053C52.9737 3.15789 53.6842 3.86842 53.6842 4.73684V36.3158C53.3684 36.3158 53.0684 36.4105 52.8158 36.5842L48.9474 39.1579L45.9632 37.1684C44.9526 36.4895 43.6737 36.4737 42.6316 37.0895V7.89474C42.6316 6.52105 42.0474 5.30526 41.1158 4.43684C41.2579 3.71053 41.8737 3.15789 42.6316 3.15789ZM20.5263 7.89474C20.5263 7.02632 21.2368 6.31579 22.1053 6.31579H37.8947C38.7632 6.31579 39.4737 7.02632 39.4737 7.89474V39.1579L36.4895 37.1684C35.4316 36.4579 34.0421 36.4579 32.9842 37.1684L30 39.1579L27.0158 37.1684C25.9579 36.4579 24.5684 36.4579 23.5105 37.1684L20.5263 39.1579V7.89474ZM56.8421 55.2632C56.8421 56.1316 56.1316 56.8421 55.2632 56.8421H4.73684C3.86842 56.8421 3.15789 56.1316 3.15789 55.2632V50.6842L6.11053 48.7105L8.82632 51.4105C10.0579 52.6421 12.0474 52.6421 13.2789 51.4105L15.7895 48.9158L18.3 51.4105C19.5316 52.6421 21.5211 52.6421 22.7526 51.4105L25.2632 48.9158L27.7737 51.4105C29.0053 52.6421 30.9947 52.6421 32.2263 51.4105L34.7368 48.9158L37.2474 51.4105C38.479 52.6421 40.4684 52.6421 41.7 51.4105L44.2105 48.9158L46.7211 51.4105C47.3368 52.0263 48.1421 52.3421 48.9474 52.3421C49.7526 52.3421 50.5579 52.0263 51.1737 51.4105L53.8895 48.7105L56.8421 50.6842V55.2632ZM56.8421 46.8947L55.6421 46.0895C54.3947 45.2526 52.7053 45.4105 51.6474 46.4842L48.9474 49.1842L46.4368 46.6737C45.2053 45.4421 43.2158 45.4421 41.9842 46.6737L39.4737 49.1842L36.9632 46.6737C35.7316 45.4421 33.7421 45.4421 32.5105 46.6737L30 49.1842L27.4895 46.6737C26.2579 45.4421 24.2684 45.4421 23.0368 46.6737L20.5263 49.1842L18.0158 46.6737C16.7842 45.4421 14.7947 45.4421 13.5632 46.6737L11.0526 49.1842L8.35263 46.4842C7.27895 45.4105 5.60526 45.2526 4.35789 46.0895L3.15789 46.8947V41.0526C3.15789 40.1842 3.86842 39.4737 4.73684 39.4737H5.84211L9.3 41.7789C10.3579 42.4895 11.7474 42.4895 12.8053 41.7789L15.7895 39.7895L18.7737 41.7789C19.8316 42.4895 21.2211 42.4895 22.2789 41.7789L25.2632 39.7895L28.2474 41.7789C29.3053 42.4895 30.6947 42.4895 31.7526 41.7789L34.7368 39.7895L37.7211 41.7789C38.7789 42.4895 40.1684 42.4895 41.2263 41.7789L44.2105 39.7895L47.1947 41.7789C48.2526 42.4895 49.6421 42.4895 50.7 41.7789L54.1579 39.4737H55.2632C56.1316 39.4737 56.8421 40.1842 56.8421 41.0526V46.8947Z" fill="#D1AE62"/>
<path d="M25.263 15.7894C26.1315 15.7894 26.842 15.0789 26.842 14.2105V11.0526C26.842 10.1842 26.1315 9.47363 25.263 9.47363C24.3946 9.47363 23.6841 10.1842 23.6841 11.0526V14.2105C23.6841 15.0789 24.3946 15.7894 25.263 15.7894Z" fill="#D1AE62"/>
<path d="M29.9998 22.1049C30.8683 22.1049 31.5788 21.3943 31.5788 20.5259V17.368C31.5788 16.4996 30.8683 15.7891 29.9998 15.7891C29.1314 15.7891 28.4209 16.4996 28.4209 17.368V20.5259C28.4209 21.3943 29.1314 22.1049 29.9998 22.1049Z" fill="#D1AE62"/>
<path d="M25.263 28.4213C26.1315 28.4213 26.842 27.7107 26.842 26.8423V23.6844C26.842 22.816 26.1315 22.1055 25.263 22.1055C24.3946 22.1055 23.6841 22.816 23.6841 23.6844V26.8423C23.6841 27.7107 24.3946 28.4213 25.263 28.4213Z" fill="#D1AE62"/>
<path d="M29.9998 33.1576C30.8683 33.1576 31.5788 32.4471 31.5788 31.5786V28.4207C31.5788 27.5523 30.8683 26.8418 29.9998 26.8418C29.1314 26.8418 28.4209 27.5523 28.4209 28.4207V31.5786C28.4209 32.4471 29.1314 33.1576 29.9998 33.1576Z" fill="#D1AE62"/>
<path d="M34.7368 23.6844V26.8423C34.7368 27.7107 35.4473 28.4213 36.3158 28.4213C37.1842 28.4213 37.8947 27.7107 37.8947 26.8423V23.6844C37.8947 22.816 37.1842 22.1055 36.3158 22.1055C35.4473 22.1055 34.7368 22.816 34.7368 23.6844Z" fill="#D1AE62"/>
<path d="M34.7367 15.7894C35.6051 15.7894 36.3156 15.0789 36.3156 14.2105V11.0526C36.3156 10.1842 35.6051 9.47363 34.7367 9.47363C33.8682 9.47363 33.1577 10.1842 33.1577 11.0526V14.2105C33.1577 15.0789 33.8682 15.7894 34.7367 15.7894Z" fill="#D1AE62"/>
<path d="M4.73666 20.5261C5.60869 20.5261 6.31561 19.8191 6.31561 18.9471C6.31561 18.0751 5.60869 17.3682 4.73666 17.3682C3.86463 17.3682 3.15771 18.0751 3.15771 18.9471C3.15771 19.8191 3.86463 20.5261 4.73666 20.5261Z" fill="#D1AE62"/>
</g>
<defs>
<clipPath id="clip0_773_5437">
<rect width="60" height="60" fill="white"/>
</clipPath>
</defs>
</svg>
