<svg width="60" height="60" viewBox="0 0 60 60" fill="none" xmlns="http://www.w3.org/2000/svg">
<g clip-path="url(#clip0_773_5430)">
<path d="M55.2632 22.5C57.8684 22.5 60 19.9688 60 16.875C60 13.7812 57.8684 11.25 55.2632 11.25H29.1158C29.6684 10.1438 30 8.86875 30 7.5C30 3.35625 27.1737 0 23.6842 0H11.0526C7.56316 0 4.73684 3.35625 4.73684 7.5C4.73684 8.86875 5.06842 10.1438 5.62105 11.25H4.73684C2.13158 11.25 0 13.7812 0 16.875C0 19.9688 2.13158 22.5 4.73684 22.5H6.31579V48.75H4.73684C3.86842 48.75 3.15789 49.5938 3.15789 50.625V58.125C3.15789 59.1562 3.86842 60 4.73684 60H17.3684C18.2368 60 18.9474 59.1562 18.9474 58.125V50.625C18.9474 49.5938 18.2368 48.75 17.3684 48.75H15.7895V39.375H23.6842C24.5526 39.375 25.2632 38.5312 25.2632 37.5C25.2632 36.4688 24.5526 35.625 23.6842 35.625H14.2105C13.3421 35.625 12.6316 36.4688 12.6316 37.5V48.75H9.47368V22.5H12.6316V30C12.6316 31.0312 13.3421 31.875 14.2105 31.875H45.7895C46.6579 31.875 47.3684 31.0312 47.3684 30V22.5H50.5263V48.75H47.3684V37.5C47.3684 36.4688 46.6579 35.625 45.7895 35.625H36.3158C35.4474 35.625 34.7368 36.4688 34.7368 37.5C34.7368 38.5312 35.4474 39.375 36.3158 39.375H44.2105V48.75H42.6316C41.7632 48.75 41.0526 49.5938 41.0526 50.625V58.125C41.0526 59.1562 41.7632 60 42.6316 60H55.2632C56.1316 60 56.8421 59.1562 56.8421 58.125V50.625C56.8421 49.5938 56.1316 48.75 55.2632 48.75H53.6842V22.5H55.2632ZM11.0526 3.75H23.6842C25.4211 3.75 26.8421 5.4375 26.8421 7.5C26.8421 9.5625 25.4211 11.25 23.6842 11.25H11.0526C9.31579 11.25 7.89474 9.5625 7.89474 7.5C7.89474 5.4375 9.31579 3.75 11.0526 3.75ZM15.7895 52.5V56.25H6.31579V52.5H15.7895ZM44.2105 28.125H15.7895V22.5H44.2105V28.125ZM53.6842 56.25H44.2105V52.5H53.6842V56.25ZM4.73684 18.75C3.86842 18.75 3.15789 17.9062 3.15789 16.875C3.15789 15.8438 3.86842 15 4.73684 15H55.2632C56.1316 15 56.8421 15.8438 56.8421 16.875C56.8421 17.9062 56.1316 18.75 55.2632 18.75H4.73684Z" fill="#D1AE62"/>
<path d="M29.9998 39.375C30.8719 39.375 31.5788 38.5355 31.5788 37.5C31.5788 36.4645 30.8719 35.625 29.9998 35.625C29.1278 35.625 28.4209 36.4645 28.4209 37.5C28.4209 38.5355 29.1278 39.375 29.9998 39.375Z" fill="#D1AE62"/>
</g>
<defs>
<clipPath id="clip0_773_5430">
<rect width="60" height="60" fill="white"/>
</clipPath>
</defs>
</svg>
