<svg width="60" height="60" viewBox="0 0 60 60" fill="none" xmlns="http://www.w3.org/2000/svg">
<g clip-path="url(#clip0_773_5470)">
<path d="M55.2632 25.254V17.3572C55.2632 14.7512 53.1316 12.6191 50.5263 12.6191H49.4684L34.7368 1.56357C31.9421 -0.52119 28.0579 -0.52119 25.2632 1.56357L10.5316 12.6191H9.47368C6.86842 12.6191 4.73684 14.7512 4.73684 17.3572V25.254C2.13158 25.254 0 27.3862 0 29.9921V52.1032C0 56.4622 3.53684 60 7.89474 60H20.5263C21.3947 60 22.1053 59.2893 22.1053 58.4206C22.1053 57.552 21.3947 56.8413 20.5263 56.8413H7.89474C5.84211 56.8413 4.10526 55.5146 3.44211 53.6825H11.0526C13.6579 53.6825 15.7895 51.5504 15.7895 48.9445V36.3096C15.7895 33.7036 13.6579 31.5715 11.0526 31.5715H3.15789V29.9921C3.15789 29.1235 3.86842 28.4127 4.73684 28.4127H55.2632C56.1316 28.4127 56.8421 29.1235 56.8421 29.9921V31.5715H48.9474C46.3421 31.5715 44.2105 33.7036 44.2105 36.3096V48.9445C44.2105 51.5504 46.3421 53.6825 48.9474 53.6825H56.5579C55.8947 55.5146 54.1579 56.8413 52.1053 56.8413H33.1579C32.2895 56.8413 31.5789 57.552 31.5789 58.4206C31.5789 59.2893 32.2895 60 33.1579 60H52.1053C56.4632 60 60 56.4622 60 52.1032V29.9921C60 27.3862 57.8684 25.254 55.2632 25.254ZM11.0526 34.7302C11.9211 34.7302 12.6316 35.4409 12.6316 36.3096V48.9445C12.6316 49.8131 11.9211 50.5238 11.0526 50.5238H3.15789V34.7302H11.0526ZM27.1579 4.09055C28.8316 2.84285 31.1684 2.84285 32.8421 4.09055L44.2105 12.6191H15.7895L27.1579 4.09055ZM52.1053 18.9366H33.1579C32.2895 18.9366 31.5789 19.6473 31.5789 20.5159C31.5789 21.3846 32.2895 22.0953 33.1579 22.0953H52.1053V25.254H7.89474V22.0953H26.8421C27.7105 22.0953 28.4211 21.3846 28.4211 20.5159C28.4211 19.6473 27.7105 18.9366 26.8421 18.9366H7.89474V17.3572C7.89474 16.4885 8.60526 15.7778 9.47368 15.7778H50.5263C51.3947 15.7778 52.1053 16.4885 52.1053 17.3572V18.9366ZM56.8421 50.5238H48.9474C48.0789 50.5238 47.3684 49.8131 47.3684 48.9445V36.3096C47.3684 35.4409 48.0789 34.7302 48.9474 34.7302H56.8421V50.5238Z" fill="#D1AE62"/>
<path d="M41.3369 38.6784L39.5053 35.5197C39.2211 35.0301 38.7001 34.73 38.1316 34.73H34.5632L33.1895 32.361C32.9053 31.8714 32.3843 31.5713 31.8159 31.5713H28.1843C27.6159 31.5713 27.0948 31.8714 26.8106 32.361L25.4369 34.73H21.8685C21.3001 34.73 20.779 35.0301 20.4948 35.5197L18.6632 38.6784C18.3948 39.168 18.3948 39.7682 18.6632 40.2578L20.4948 43.4165C20.779 43.9061 21.3001 44.2062 21.8685 44.2062H25.5001C26.0685 44.2062 26.5895 43.9061 26.8738 43.4165L28.2474 41.0475H31.7527L33.1264 43.4165C33.4106 43.9061 33.9317 44.2062 34.5001 44.2062H38.1316C38.7001 44.2062 39.2211 43.9061 39.5053 43.4165L41.3369 40.2578C41.6053 39.7682 41.6053 39.168 41.3369 38.6784ZM24.6001 41.0475H22.7685L21.8685 39.4681L22.7685 37.8887H24.6001L25.5001 39.4681L24.6001 41.0475ZM30.9159 37.8887H29.0843L28.1843 36.3094L29.0843 34.73H30.9159L31.8159 36.3094L30.9159 37.8887ZM37.2316 41.0475H35.4001L34.5001 39.4681L35.4001 37.8887H37.2316L38.1316 39.4681L37.2316 41.0475Z" fill="#D1AE62"/>
<path d="M34.7369 48.9441C34.7369 46.3382 32.6053 44.2061 30 44.2061C27.3948 44.2061 25.2632 46.3382 25.2632 48.9441C25.2632 51.5501 27.3948 53.6822 30 53.6822C32.6053 53.6822 34.7369 51.5501 34.7369 48.9441ZM30 50.5235C29.1316 50.5235 28.4211 49.8128 28.4211 48.9441C28.4211 48.0755 29.1316 47.3648 30 47.3648C30.8684 47.3648 31.579 48.0755 31.579 48.9441C31.579 49.8128 30.8684 50.5235 30 50.5235Z" fill="#D1AE62"/>
<path d="M26.8421 59.9995C27.7142 59.9995 28.4211 59.2924 28.4211 58.4202C28.4211 57.5479 27.7142 56.8408 26.8421 56.8408C25.9701 56.8408 25.2632 57.5479 25.2632 58.4202C25.2632 59.2924 25.9701 59.9995 26.8421 59.9995Z" fill="#D1AE62"/>
</g>
<defs>
<clipPath id="clip0_773_5470">
<rect width="60" height="60" fill="white"/>
</clipPath>
</defs>
</svg>
