<svg width="23" height="22" viewBox="0 0 23 22" fill="none" xmlns="http://www.w3.org/2000/svg">
<g clip-path="url(#clip0_10_130)">
<path d="M9.70828 13.6325C9.48492 13.8784 9.26887 14.1159 9.05315 14.3539C7.96078 15.5594 6.86824 16.7645 5.77636 17.9704C4.96513 18.8663 4.15507 19.7631 3.34384 20.659C3.0255 21.0107 2.70599 21.3615 2.38498 21.7111C2.36638 21.7314 2.33068 21.7487 2.30278 21.7487C1.68286 21.7507 1.06278 21.7502 0.442856 21.7501C0.432726 21.7501 0.422762 21.7474 0.398517 21.7441C3.22112 18.6398 6.03642 15.5433 8.85587 12.4423C6.03841 8.52019 3.22212 4.60029 0.394531 0.664347H0.498488C2.61033 0.664347 4.72201 0.664661 6.83386 0.662931C6.89697 0.662931 6.932 0.682124 6.96738 0.731052C7.76748 1.83484 8.56974 2.93722 9.37116 4.04022C10.0612 4.98983 10.7503 5.94007 11.4402 6.88984C11.7945 7.3777 12.1493 7.86525 12.504 8.3528C12.5116 8.36334 12.5209 8.37278 12.537 8.3915C12.6335 8.28657 12.7273 8.18556 12.8202 8.08362C13.9343 6.8579 15.0483 5.63203 16.1622 4.40631C17.0311 3.45025 17.8998 2.49419 18.7686 1.53813C19.0498 1.22867 19.3306 0.919055 19.6137 0.611328C19.6346 0.588516 19.6725 0.566491 19.7026 0.566334C20.3004 0.563816 20.8982 0.564446 21.4961 0.56476C21.5064 0.56476 21.5165 0.568536 21.5386 0.572941C18.8199 3.57375 16.1074 6.56795 13.3881 9.56955C16.3821 13.69 19.3761 17.8105 22.382 21.9477C22.332 21.9477 22.3028 21.9477 22.2736 21.9477C20.1064 21.9477 17.9393 21.9474 15.772 21.9493C15.7044 21.9493 15.6673 21.9263 15.6316 21.8763C14.9142 20.8744 14.1953 19.8732 13.4765 18.8723C12.6533 17.7262 11.8299 16.5802 11.0066 15.4343C10.5909 14.856 10.1751 14.2776 9.75926 13.6995C9.74547 13.6803 9.73053 13.6619 9.70811 13.6326L9.70828 13.6325ZM19.659 20.5321C17.2215 17.2442 14.7968 13.9734 12.3675 10.6963C11.8067 11.3155 11.2567 11.9227 10.707 12.5295C10.7271 12.5582 10.7419 12.5804 10.7576 12.6017C11.7271 13.9092 12.6968 15.2166 13.6661 16.5241C14.6386 17.8359 15.6112 19.1476 16.5819 20.4607C16.6216 20.5143 16.6619 20.5335 16.7303 20.5333C17.6711 20.5311 18.6118 20.5319 19.5528 20.5319C19.5817 20.5319 19.6107 20.5319 19.6592 20.5319L19.659 20.5321ZM9.84063 11.3646C9.85956 11.3415 9.86903 11.3288 9.87982 11.3168C10.4077 10.7358 10.9352 10.1545 11.4649 9.5749C11.5024 9.53384 11.4882 9.50819 11.4623 9.47342C10.5351 8.22411 9.60831 6.97448 8.68183 5.72485C7.78076 4.50952 6.87953 3.29403 5.97996 2.07775C5.94741 2.03386 5.9137 2.01813 5.85823 2.01828C4.90635 2.01986 3.95446 2.01938 3.00258 2.0197C2.97916 2.0197 2.95591 2.02237 2.91706 2.02489C5.22702 5.14086 7.52884 8.24582 9.84096 11.3648L9.84063 11.3646Z" fill="white"/>
</g>
<defs>
<clipPath id="clip0_10_130">
<rect width="21.9876" height="21.3848" fill="white" transform="translate(0.394531 0.564453)"/>
</clipPath>
</defs>
</svg>
