<svg width="28" height="28" viewBox="0 0 28 28" fill="none" xmlns="http://www.w3.org/2000/svg">
<path d="M3.88057 26H2C2.03667 23.453 2.75693 21.1365 4.23223 19.0571C5.70942 16.9748 7.67931 15.5503 10.0761 14.6574C8.11654 13.1868 7.04838 11.2598 7.08035 8.81532C7.10573 6.89023 7.85326 5.23142 9.25898 3.90945C11.9482 1.37936 16.0591 1.33702 18.7831 3.94144C20.3571 5.44689 21.0755 7.3287 20.9128 9.50218C20.7502 11.6804 19.6726 13.3627 17.9303 14.6574C21.1329 15.8467 23.4751 17.9609 24.9297 21.049C25.7478 22.7849 26.0383 24.8756 25.996 26H24.1493C24.0581 22.4641 22.58 19.6545 19.6867 17.6222C17.8701 16.3463 15.8165 15.8138 13.605 15.8862C11.8476 15.9436 10.2171 16.4395 8.72114 17.3606C7.22233 18.2846 6.02911 19.5143 5.16969 21.0518C4.31404 22.5826 3.87963 24.2311 3.88057 26ZM19.068 9.0195C19.1404 6.29652 16.9364 3.89063 14.0328 3.87087C11.2627 3.85205 9.01451 6.07447 8.94023 8.80215C8.865 11.5515 11.0521 14.0204 14.0685 14.0025C16.7794 13.9865 19.0454 11.766 19.068 9.02044V9.0195Z" fill="black"/>
</svg>
