<svg width="31" height="32" viewBox="0 0 31 32" fill="none" xmlns="http://www.w3.org/2000/svg">
<path d="M1.10303 30.2859L20.679 10.7098M10.1733 21.2156L10.5106 20.9435C10.8377 20.6597 11.1341 20.3417 11.3944 19.9945C13.4176 17.297 12.8709 13.47 10.1733 11.4468L9.8361 11.719C9.50894 12.0027 9.2126 12.3208 8.95226 12.6679C6.92906 15.3655 7.47575 19.1924 10.1733 21.2156ZM10.1733 21.2156L10.4455 21.5529C10.7293 21.88 11.0473 22.1764 11.3945 22.4367C14.092 24.4599 17.9189 23.9132 19.9421 21.2156L19.6699 20.8784C19.3861 20.5512 19.0681 20.2548 18.7209 19.9945C16.0234 17.9713 12.1965 18.5181 10.1733 21.2156ZM15.0577 16.3312L15.3949 16.0591C15.7221 15.7753 16.0184 15.4573 16.2788 15.1101C18.302 12.4126 17.7553 8.5856 15.0577 6.5624L14.7205 6.83455C14.3933 7.11832 14.097 7.43636 13.8366 7.78347C11.8134 10.4811 12.3601 14.308 15.0577 16.3312ZM15.0577 16.3312L15.3298 16.6685C15.6136 16.9956 15.9317 17.292 16.2788 17.5523C18.9764 19.5755 22.8033 19.0288 24.8264 16.3312L24.5543 15.994C24.2705 15.6668 23.9524 15.3704 23.6053 15.1101C20.9077 13.0869 17.0808 13.6337 15.0577 16.3312ZM19.9421 11.4468L20.2793 11.1747C20.6064 10.8909 20.9028 10.5729 21.1631 10.2257C23.1863 7.52816 22.6396 3.7012 19.9421 1.678L19.6048 1.95015C19.2777 2.23391 18.9813 2.55195 18.721 2.89907C16.6978 5.59665 17.2445 9.4236 19.9421 11.4468ZM19.9421 11.4468L20.2142 11.7841C20.498 12.1112 20.816 12.4076 21.1632 12.6679C23.8607 14.6911 27.6876 14.1444 29.7108 11.4468L29.4386 11.1096C29.1548 10.7824 28.8368 10.486 28.4896 10.2257C25.7921 8.20253 21.9652 8.74925 19.9421 11.4468ZM5.17333 26.2156L5.51056 25.9435C5.83771 25.6597 6.13406 25.3417 6.3944 24.9945C8.4176 22.297 7.87091 18.47 5.17333 16.4468L4.8361 16.719C4.50894 17.0027 4.2126 17.3208 3.95226 17.6679C1.92905 20.3655 2.47575 24.1924 5.17333 26.2156ZM5.17333 26.2156L5.44549 26.5529C5.72926 26.88 6.04732 27.1764 6.39445 27.4367C9.09201 29.4599 12.9189 28.9132 14.9421 26.2156L14.6699 25.8784C14.3861 25.5512 14.0681 25.2548 13.7209 24.9945C11.0234 22.9713 7.19648 23.5181 5.17333 26.2156ZM29.8901 1.49984C30.367 4.83797 28.0475 7.93057 24.7094 8.40743C24.2799 8.46879 23.8455 8.48413 23.4135 8.45345L22.9826 8.40736C22.5057 5.0693 24.8252 1.9767 28.1632 1.49984C28.7359 1.41802 29.3174 1.41802 29.8901 1.49984Z" stroke="#9E6A30" stroke-width="1.66667" stroke-linecap="round"/>
</svg>
