<svg width="32" height="21" viewBox="0 0 32 21" fill="none" xmlns="http://www.w3.org/2000/svg">
<path d="M15.9912 0.000246579C17.4573 0.0170139 18.6436 0.0184934 19.8294 0.0475897C21.1442 0.0798916 22.4584 0.135865 23.7727 0.184688C25.018 0.231044 26.26 0.314881 27.495 0.480336C28.1695 0.57083 28.8191 0.730367 29.3967 1.08889C30.3413 1.6755 30.9207 2.50031 31.1609 3.54309C31.353 4.37727 31.4751 5.22131 31.5391 6.07201C31.603 6.92196 31.6677 7.77291 31.693 8.62434C31.7262 9.73962 31.752 10.8566 31.7244 11.9714C31.6906 13.3313 31.6077 14.6909 31.4198 16.0414C31.3306 16.683 31.2511 17.3308 31.02 17.9426C30.4832 19.3626 29.4136 20.2054 27.8524 20.4767C26.8298 20.6542 25.7939 20.7269 24.7568 20.779C23.7376 20.8302 22.7181 20.8803 21.6981 20.9202C20.9804 20.9484 20.262 20.9686 19.5438 20.9745C17.8206 20.9888 16.0975 21.008 14.3744 20.9964C12.9292 20.9868 11.4839 20.9437 10.0392 20.9015C9.06208 20.8732 8.0842 20.8428 7.10995 20.773C6.12739 20.7028 5.14535 20.6073 4.16955 20.4774C3.05598 20.3292 2.15712 19.8074 1.4922 18.9392C1.10281 18.4308 0.877967 17.855 0.773993 17.2418C0.650523 16.5141 0.53693 15.7838 0.45687 15.0509C0.266856 13.3113 0.224746 11.5646 0.244761 9.81606C0.259318 8.54445 0.326901 7.2758 0.448032 6.00888C0.520034 5.25706 0.617511 4.50993 0.770094 3.76896C0.895383 3.15942 1.10099 2.5807 1.49324 2.07274C2.1553 1.21563 3.04376 0.709408 4.14407 0.533104C5.16043 0.370115 6.18588 0.289237 7.21393 0.234743C8.00855 0.192825 8.80318 0.151646 9.59807 0.117865C10.1858 0.0929603 10.774 0.0729874 11.3623 0.0636174C12.9983 0.03748 14.6343 0.0182468 15.9912 0V0.000246579ZM21.0093 10.5085C18.3306 9.03515 15.6933 7.58427 13.0555 6.13414C13.0038 6.10554 12.9479 6.0836 12.8933 6.05968C12.8876 6.05721 12.8774 6.06239 12.8696 6.06535C12.8616 6.06831 12.8543 6.07275 12.852 6.07398V14.9905C15.5777 13.4928 18.2722 12.0123 21.0093 10.5085Z" fill="white"/>
</svg>
